<ttFont>
    <TTGlyph name="A" xMin="20" yMin="0" xMax="1464" yMax="1352">
      <contour>
        <pt x="428" y="73" on="1"/>
        <pt x="428" y="0" on="1"/>
        <pt x="20" y="0" on="1"/>
        <pt x="20" y="73" on="1"/>
        <pt x="120" y="100" on="1"/>
        <pt x="597" y="1352" on="1"/>
        <pt x="887" y="1352" on="1"/>
        <pt x="1362" y="100" on="1"/>
        <pt x="1464" y="73" on="1"/>
        <pt x="1464" y="0" on="1"/>
        <pt x="867" y="0" on="1"/>
        <pt x="867" y="73" on="1"/>
        <pt x="1022" y="100" on="1"/>
        <pt x="894" y="447" on="1"/>
        <pt x="379" y="447" on="1"/>
        <pt x="256" y="100" on="1"/>
      </contour>
      <contour>
        <pt x="641" y="1150" on="1"/>
        <pt x="420" y="557" on="1"/>
        <pt x="856" y="557" on="1"/>
      </contour>
    </TTGlyph>
    <TTGlyph name="AE" xMin="14" yMin="0" xMax="1942" yMax="1341">
      <contour>
        <pt x="827" y="1252" on="1"/>
        <pt x="684" y="1270" on="1"/>
        <pt x="684" y="1341" on="1"/>
        <pt x="1858" y="1341" on="1"/>
        <pt x="1858" y="1000" on="1"/>
        <pt x="1767" y="1000" on="1"/>
        <pt x="1735" y="1217" on="1"/>
        <pt x="1623" y="1231" on="0"/>
        <pt x="1471" y="1231" on="1"/>
        <pt x="1271" y="1231" on="1"/>
        <pt x="1271" y="739" on="1"/>
        <pt x="1554" y="739" on="1"/>
        <pt x="1585" y="887" on="1"/>
        <pt x="1674" y="887" on="1"/>
        <pt x="1674" y="475" on="1"/>
        <pt x="1585" y="475" on="1"/>
        <pt x="1554" y="627" on="1"/>
        <pt x="1271" y="627" on="1"/>
        <pt x="1271" y="110" on="1"/>
        <pt x="1516" y="110" on="1"/>
        <pt x="1714" y="110" on="0"/>
        <pt x="1794" y="126" on="1"/>
        <pt x="1851" y="374" on="1"/>
        <pt x="1942" y="374" on="1"/>
        <pt x="1923" y="0" on="1"/>
        <pt x="784" y="0" on="1"/>
        <pt x="784" y="73" on="1"/>
        <pt x="956" y="100" on="1"/>
        <pt x="956" y="447" on="1"/>
        <pt x="495" y="447" on="1"/>
        <pt x="290" y="100" on="1"/>
        <pt x="442" y="73" on="1"/>
        <pt x="442" y="0" on="1"/>
        <pt x="14" y="0" on="1"/>
        <pt x="14" y="73" on="1"/>
        <pt x="136" y="100" on="1"/>
      </contour>
      <contour>
        <pt x="956" y="557" on="1"/>
        <pt x="956" y="1236" on="1"/>
        <pt x="560" y="557" on="1"/>
      </contour>
    </TTGlyph>
    <TTGlyph name="AEacute" xMin="14" yMin="0" xMax="1942" yMax="1757">
      <component glyphName="AE" x="0" y="0" flags="0x204"/>
      <component glyphName="acute" x="963" y="334" flags="0x4"/>
    </TTGlyph>
    <TTGlyph name="Aacute" xMin="20" yMin="0" xMax="1464" yMax="1757">
      <component glyphName="A" x="0" y="0" flags="0x204"/>
      <component glyphName="acute" x="457" y="334" flags="0x4"/>
    </TTGlyph>
    <TTGlyph name="Abreve" xMin="20" yMin="0" xMax="1464" yMax="1777">
      <component glyphName="A" x="0" y="0" flags="0x204"/>
      <component glyphName="breve" x="399" y="334" flags="0x4"/>
    </TTGlyph>
    <TTGlyph name="Acircumflex" xMin="20" yMin="0" xMax="1464" yMax="1778">
      <component glyphName="A" x="0" y="0" flags="0x204"/>
      <component glyphName="circumflex" x="398" y="334" flags="0x4"/>
    </TTGlyph>
    <TTGlyph name="Adieresis" xMin="20" yMin="0" xMax="1464" yMax="1704">
      <component glyphName="A" x="0" y="0" flags="0x204"/>
      <component glyphName="dieresis" x="395" y="334" flags="0x4"/>
    </TTGlyph>
    <TTGlyph name="Agrave" xMin="20" yMin="0" xMax="1464" yMax="1757">
      <component glyphName="A" x="0" y="0" flags="0x204"/>
      <component glyphName="grave" x="363" y="334" flags="0x4"/>
    </TTGlyph>
    <TTGlyph name="Alpha" xMin="20" yMin="0" xMax="1464" yMax="1352">
      <component glyphName="A" x="0" y="0" flags="0x204"/>
    </TTGlyph>
    <TTGlyph name="Alphatonos" xMin="20" yMin="0" xMax="1464" yMax="1352">
      <component glyphName="A" x="0" y="0" flags="0x204"/>
      <component glyphName="tonos" x="-149" y="-180" flags="0x4"/>
    </TTGlyph>
    <TTGlyph name="Amacron" xMin="20" yMin="0" xMax="1464" yMax="1605">
      <component glyphName="A" x="0" y="0" flags="0x204"/>
      <component glyphName="uni02C9" x="398" y="334" flags="0x4"/>
    </TTGlyph>
    <TTGlyph name="Aogonek" xMin="20" yMin="-430" xMax="1464" yMax="1352">
      <component glyphName="A" x="0" y="0" flags="0x204"/>
      <component glyphName="ogonek" x="793" y="0" flags="0x4"/>
    </TTGlyph>
    <TTGlyph name="Aring" xMin="20" yMin="0" xMax="1464" yMax="1696">
      <component glyphName="A" x="0" y="0" flags="0x204"/>
      <component glyphName="ring" x="390" y="213" flags="0x4"/>
    </TTGlyph>
    <TTGlyph name="Aringacute" xMin="20" yMin="0" xMax="1464" yMax="2064">
      <component glyphName="A" x="0" y="0" flags="0x204"/>
      <component glyphName="ring" x="390" y="213" flags="0x4"/>
      <component glyphName="acute" x="483" y="641" flags="0x4"/>
    </TTGlyph>
    <TTGlyph name="Atilde" xMin="20" yMin="0" xMax="1464" yMax="1759">
      <component glyphName="A" x="0" y="0" flags="0x204"/>
      <component glyphName="tilde" x="389" y="334" flags="0x4"/>
    </TTGlyph>
    <TTGlyph name="B" xMin="34" yMin="-6" xMax="1309" yMax="1341">
      <contour>
        <pt x="878" y="1010" on="1"/>
        <pt x="878" y="1127" on="0"/>
        <pt x="777" y="1231" on="0"/>
        <pt x="661" y="1231" on="1"/>
        <pt x="522" y="1231" on="1"/>
        <pt x="522" y="764" on="1"/>
        <pt x="669" y="764" on="1"/>
        <pt x="776" y="764" on="0"/>
        <pt x="878" y="876" on="0"/>
      </contour>
      <contour>
        <pt x="979" y="391" on="1"/>
        <pt x="979" y="524" on="0"/>
        <pt x="846" y="654" on="0"/>
        <pt x="695" y="654" on="1"/>
        <pt x="522" y="654" on="1"/>
        <pt x="522" y="110" on="1"/>
        <pt x="666" y="104" on="0"/>
        <pt x="749" y="104" on="1"/>
        <pt x="866" y="104" on="0"/>
        <pt x="979" y="246" on="0"/>
      </contour>
      <contour>
        <pt x="34" y="0" on="1"/>
        <pt x="34" y="73" on="1"/>
        <pt x="207" y="100" on="1"/>
        <pt x="207" y="1242" on="1"/>
        <pt x="34" y="1268" on="1"/>
        <pt x="34" y="1341" on="1"/>
        <pt x="685" y="1341" on="1"/>
        <pt x="952" y="1341" on="0"/>
        <pt x="1206" y="1198" on="0"/>
        <pt x="1206" y="1038" on="1"/>
        <pt x="1206" y="918" on="0"/>
        <pt x="1056" y="744" on="0"/>
        <pt x="930" y="717" on="1"/>
        <pt x="1117" y="698" on="0"/>
        <pt x="1309" y="533" on="0"/>
        <pt x="1309" y="391" on="1"/>
        <pt x="1309" y="196" on="0"/>
        <pt x="1021" y="-6" on="0"/>
        <pt x="752" y="-6" on="1"/>
        <pt x="296" y="0" on="1"/>
      </contour>
    </TTGlyph>
    <TTGlyph name="Beta" xMin="34" yMin="-6" xMax="1309" yMax="1341">
      <component glyphName="B" x="0" y="0" flags="0x204"/>
    </TTGlyph>
    <TTGlyph name="C" xMin="100" yMin="-20" xMax="1323" yMax="1356">
      <contour>
        <pt x="815" y="-20" on="1"/>
        <pt x="478" y="-20" on="0"/>
        <pt x="100" y="338" on="0"/>
        <pt x="100" y="655" on="1"/>
        <pt x="100" y="999" on="0"/>
        <pt x="461" y="1356" on="0"/>
        <pt x="814" y="1356" on="1"/>
        <pt x="1047" y="1356" on="0"/>
        <pt x="1297" y="1289" on="1"/>
        <pt x="1303" y="967" on="1"/>
        <pt x="1213" y="967" on="1"/>
        <pt x="1185" y="1161" on="1"/>
        <pt x="1053" y="1251" on="0"/>
        <pt x="878" y="1251" on="1"/>
        <pt x="646" y="1251" on="0"/>
        <pt x="432" y="962" on="0"/>
        <pt x="432" y="658" on="1"/>
        <pt x="432" y="377" on="0"/>
        <pt x="656" y="83" on="0"/>
        <pt x="870" y="83" on="1"/>
        <pt x="983" y="83" on="0"/>
        <pt x="1152" y="143" on="0"/>
        <pt x="1200" y="184" on="1"/>
        <pt x="1232" y="404" on="1"/>
        <pt x="1323" y="404" on="1"/>
        <pt x="1317" y="64" on="1"/>
        <pt x="1227" y="29" on="0"/>
        <pt x="939" y="-20" on="0"/>
      </contour>
    </TTGlyph>
    <TTGlyph name="Cacute" xMin="100" yMin="-20" xMax="1323" yMax="1757">
      <component glyphName="C" x="0" y="0" flags="0x204"/>
      <component glyphName="acute" x="531" y="334" flags="0x4"/>
    </TTGlyph>
    <TTGlyph name="Ccaron" xMin="100" yMin="-20" xMax="1323" yMax="1778">
      <component glyphName="C" x="0" y="0" flags="0x204"/>
      <component glyphName="caron" x="500" y="334" flags="0x4"/>
    </TTGlyph>
    <TTGlyph name="Ccedilla" xMin="100" yMin="-422" xMax="1323" yMax="1356">
      <component glyphName="C" x="0" y="0" flags="0x204"/>
      <component glyphName="cedilla" x="457" y="0" flags="0x4"/>
    </TTGlyph>
    <TTGlyph name="Ccircumflex" xMin="100" yMin="-20" xMax="1323" yMax="1845">
      <component glyphName="C" x="0" y="0" flags="0x204"/>
      <component glyphName="circumflex" x="474" y="401" flags="0x4"/>
    </TTGlyph>
    <TTGlyph name="Chi" xMin="38" yMin="0" xMax="1455" yMax="1341">
      <component glyphName="X" x="0" y="0" flags="0x204"/>
    </TTGlyph>
    <TTGlyph name="D" xMin="36" yMin="-4" xMax="1379" yMax="1341">
      <contour>
        <pt x="1047" y="670" on="1"/>
        <pt x="1047" y="960" on="0"/>
        <pt x="835" y="1231" on="0"/>
        <pt x="596" y="1231" on="1"/>
        <pt x="522" y="1231" on="1"/>
        <pt x="522" y="114" on="1"/>
        <pt x="618" y="106" on="0"/>
        <pt x="696" y="106" on="1"/>
        <pt x="826" y="106" on="0"/>
        <pt x="977" y="218" on="0"/>
        <pt x="1047" y="457" on="0"/>
      </contour>
      <contour>
        <pt x="673" y="1341" on="1"/>
        <pt x="1034" y="1341" on="0"/>
        <pt x="1379" y="1014" on="0"/>
        <pt x="1379" y="678" on="1"/>
        <pt x="1379" y="333" on="0"/>
        <pt x="1049" y="-4" on="0"/>
        <pt x="715" y="-4" on="1"/>
        <pt x="266" y="0" on="1"/>
        <pt x="36" y="0" on="1"/>
        <pt x="36" y="73" on="1"/>
        <pt x="208" y="100" on="1"/>
        <pt x="208" y="1242" on="1"/>
        <pt x="36" y="1268" on="1"/>
        <pt x="36" y="1341" on="1"/>
      </contour>
    </TTGlyph>
    <TTGlyph name="Dcaron" xMin="36" yMin="-4" xMax="1379" yMax="1778">
      <component glyphName="D" x="0" y="0" flags="0x204"/>
      <component glyphName="caron" x="350" y="334" flags="0x4"/>
    </TTGlyph>
    <TTGlyph name="Delta" xMin="28" yMin="0" xMax="1249" yMax="1352">
      <contour>
        <pt x="1249" y="0" on="1"/>
        <pt x="28" y="0" on="1"/>
        <pt x="28" y="97" on="1"/>
        <pt x="488" y="1352" on="1"/>
        <pt x="778" y="1352" on="1"/>
        <pt x="1249" y="97" on="1"/>
      </contour>
      <contour>
        <pt x="164" y="119" on="1"/>
        <pt x="917" y="119" on="1"/>
        <pt x="533" y="1148" on="1"/>
      </contour>
    </TTGlyph>
    <TTGlyph name="E" xMin="35" yMin="0" xMax="1261" yMax="1341">
      <contour>
        <pt x="35" y="73" on="1"/>
        <pt x="207" y="100" on="1"/>
        <pt x="207" y="1242" on="1"/>
        <pt x="35" y="1268" on="1"/>
        <pt x="35" y="1341" on="1"/>
        <pt x="1177" y="1341" on="1"/>
        <pt x="1177" y="1000" on="1"/>
        <pt x="1086" y="1000" on="1"/>
        <pt x="1054" y="1217" on="1"/>
        <pt x="942" y="1231" on="0"/>
        <pt x="730" y="1231" on="1"/>
        <pt x="522" y="1231" on="1"/>
        <pt x="522" y="739" on="1"/>
        <pt x="873" y="739" on="1"/>
        <pt x="904" y="887" on="1"/>
        <pt x="993" y="887" on="1"/>
        <pt x="993" y="475" on="1"/>
        <pt x="904" y="475" on="1"/>
        <pt x="873" y="627" on="1"/>
        <pt x="522" y="627" on="1"/>
        <pt x="522" y="110" on="1"/>
        <pt x="775" y="110" on="1"/>
        <pt x="1033" y="110" on="0"/>
        <pt x="1113" y="126" on="1"/>
        <pt x="1170" y="374" on="1"/>
        <pt x="1261" y="374" on="1"/>
        <pt x="1242" y="0" on="1"/>
        <pt x="35" y="0" on="1"/>
      </contour>
    </TTGlyph>
    <TTGlyph name="Eacute" xMin="35" yMin="0" xMax="1261" yMax="1757">
      <component glyphName="E" x="0" y="0" flags="0x204"/>
      <component glyphName="acute" x="393" y="334" flags="0x4"/>
    </TTGlyph>
    <TTGlyph name="Ebreve" xMin="35" yMin="0" xMax="1261" yMax="1777">
      <component glyphName="E" x="0" y="0" flags="0x204"/>
      <component glyphName="breve" x="343" y="334" flags="0x4"/>
    </TTGlyph>
    <TTGlyph name="Ecaron" xMin="35" yMin="0" xMax="1261" yMax="1778">
      <component glyphName="E" x="0" y="0" flags="0x204"/>
      <component glyphName="caron" x="321" y="334" flags="0x4"/>
    </TTGlyph>
    <TTGlyph name="Ecircumflex" xMin="35" yMin="0" xMax="1261" yMax="1778">
      <component glyphName="E" x="0" y="0" flags="0x204"/>
      <component glyphName="circumflex" x="340" y="334" flags="0x4"/>
    </TTGlyph>
    <TTGlyph name="Edieresis" xMin="35" yMin="0" xMax="1261" yMax="1704">
      <component glyphName="E" x="0" y="0" flags="0x204"/>
      <component glyphName="dieresis" x="342" y="334" flags="0x4"/>
    </TTGlyph>
    <TTGlyph name="Egrave" xMin="35" yMin="0" xMax="1261" yMax="1757">
      <component glyphName="E" x="0" y="0" flags="0x204"/>
      <component glyphName="grave" x="342" y="334" flags="0x4"/>
    </TTGlyph>
    <TTGlyph name="Emacron" xMin="35" yMin="0" xMax="1261" yMax="1605">
      <component glyphName="E" x="0" y="0" flags="0x204"/>
      <component glyphName="uni02C9" x="335" y="334" flags="0x4"/>
    </TTGlyph>
    <TTGlyph name="Eng" xMin="40" yMin="-20" xMax="1401" yMax="1351">
      <contour>
        <pt x="1085" y="985" on="1"/>
        <pt x="1085" y="1097" on="0"/>
        <pt x="979" y="1218" on="0"/>
        <pt x="877" y="1218" on="1"/>
        <pt x="729" y="1218" on="0"/>
        <pt x="527" y="1114" on="1"/>
        <pt x="527" y="100" on="1"/>
        <pt x="628" y="85" on="1"/>
        <pt x="628" y="0" on="1"/>
        <pt x="40" y="0" on="1"/>
        <pt x="40" y="74" on="1"/>
        <pt x="211" y="100" on="1"/>
        <pt x="211" y="1241" on="1"/>
        <pt x="40" y="1268" on="1"/>
        <pt x="40" y="1341" on="1"/>
        <pt x="513" y="1341" on="1"/>
        <pt x="527" y="1219" on="1"/>
        <pt x="645" y="1286" on="0"/>
        <pt x="856" y="1351" on="0"/>
        <pt x="962" y="1351" on="1"/>
        <pt x="1401" y="1351" on="0"/>
        <pt x="1401" y="968" on="1"/>
        <pt x="1401" y="432" on="1"/>
        <pt x="1401" y="211" on="0"/>
        <pt x="1184" y="-20" on="0"/>
        <pt x="961" y="-20" on="1"/>
        <pt x="828" y="-20" on="0"/>
        <pt x="738" y="10" on="1"/>
        <pt x="738" y="284" on="1"/>
        <pt x="827" y="284" on="1"/>
        <pt x="860" y="127" on="1"/>
        <pt x="901" y="86" on="0"/>
        <pt x="965" y="86" on="1"/>
        <pt x="1085" y="86" on="0"/>
        <pt x="1085" y="282" on="1"/>
      </contour>
    </TTGlyph>
    <TTGlyph name="Eng.alt1" xMin="36" yMin="-444" xMax="1379" yMax="1351">
      <contour>
        <pt x="1379" y="8" on="1"/>
        <pt x="1379" y="-209" on="0"/>
        <pt x="1139" y="-444" on="0"/>
        <pt x="917" y="-444" on="1"/>
        <pt x="842" y="-444" on="0"/>
        <pt x="697" y="-427" on="0"/>
        <pt x="654" y="-414" on="1"/>
        <pt x="654" y="-110" on="1"/>
        <pt x="743" y="-110" on="1"/>
        <pt x="773" y="-289" on="1"/>
        <pt x="792" y="-312" on="0"/>
        <pt x="862" y="-338" on="0"/>
        <pt x="904" y="-338" on="1"/>
        <pt x="973" y="-338" on="0"/>
        <pt x="1064" y="-242" on="0"/>
        <pt x="1064" y="-148" on="1"/>
        <pt x="1064" y="940" on="1"/>
        <pt x="1064" y="1074" on="0"/>
        <pt x="967" y="1206" on="0"/>
        <pt x="858" y="1206" on="1"/>
        <pt x="798" y="1206" on="0"/>
        <pt x="641" y="1160" on="0"/>
        <pt x="522" y="1099" on="1"/>
        <pt x="522" y="100" on="1"/>
        <pt x="694" y="73" on="1"/>
        <pt x="694" y="0" on="1"/>
        <pt x="36" y="0" on="1"/>
        <pt x="36" y="73" on="1"/>
        <pt x="208" y="100" on="1"/>
        <pt x="208" y="1242" on="1"/>
        <pt x="36" y="1268" on="1"/>
        <pt x="36" y="1341" on="1"/>
        <pt x="520" y="1341" on="1"/>
        <pt x="522" y="1216" on="1"/>
        <pt x="786" y="1351" on="0"/>
        <pt x="1001" y="1351" on="1"/>
        <pt x="1200" y="1351" on="0"/>
        <pt x="1379" y="1167" on="0"/>
        <pt x="1379" y="959" on="1"/>
      </contour>
    </TTGlyph>
    <TTGlyph name="Eng.alt2" xMin="39" yMin="-442" xMax="1452" yMax="1341">
      <contour>
        <pt x="905" y="-442" on="1"/>
        <pt x="860" y="-442" on="0"/>
        <pt x="724" y="-423" on="0"/>
        <pt x="695" y="-413" on="1"/>
        <pt x="695" y="-153" on="1"/>
        <pt x="770" y="-153" on="1"/>
        <pt x="805" y="-306" on="1"/>
        <pt x="828" y="-321" on="0"/>
        <pt x="898" y="-337" on="0"/>
        <pt x="926" y="-337" on="1"/>
        <pt x="1037" y="-337" on="0"/>
        <pt x="1155" y="-215" on="0"/>
        <pt x="1155" y="-110" on="1"/>
        <pt x="1155" y="10" on="1"/>
        <pt x="336" y="1078" on="1"/>
        <pt x="336" y="100" on="1"/>
        <pt x="516" y="73" on="1"/>
        <pt x="516" y="0" on="1"/>
        <pt x="39" y="0" on="1"/>
        <pt x="39" y="73" on="1"/>
        <pt x="211" y="100" on="1"/>
        <pt x="211" y="1242" on="1"/>
        <pt x="39" y="1268" on="1"/>
        <pt x="39" y="1341" on="1"/>
        <pt x="498" y="1341" on="1"/>
        <pt x="1155" y="484" on="1"/>
        <pt x="1155" y="1242" on="1"/>
        <pt x="975" y="1268" on="1"/>
        <pt x="975" y="1341" on="1"/>
        <pt x="1452" y="1341" on="1"/>
        <pt x="1452" y="1268" on="1"/>
        <pt x="1280" y="1242" on="1"/>
        <pt x="1280" y="-89" on="1"/>
        <pt x="1280" y="-261" on="0"/>
        <pt x="1094" y="-442" on="0"/>
      </contour>
    </TTGlyph>
    <TTGlyph name="Eng.alt3" xMin="55" yMin="-20" xMax="1349" yMax="1351">
      <contour>
        <pt x="1060" y="943" on="1"/>
        <pt x="1060" y="1214" on="0"/>
        <pt x="827" y="1214" on="1"/>
        <pt x="754" y="1214" on="0"/>
        <pt x="551" y="1155" on="0"/>
        <pt x="436" y="1097" on="1"/>
        <pt x="436" y="695" on="1"/>
        <pt x="608" y="670" on="1"/>
        <pt x="608" y="605" on="1"/>
        <pt x="55" y="605" on="1"/>
        <pt x="55" y="670" on="1"/>
        <pt x="148" y="695" on="1"/>
        <pt x="148" y="1251" on="1"/>
        <pt x="55" y="1276" on="1"/>
        <pt x="55" y="1341" on="1"/>
        <pt x="422" y="1341" on="1"/>
        <pt x="436" y="1206" on="1"/>
        <pt x="558" y="1273" on="0"/>
        <pt x="824" y="1351" on="0"/>
        <pt x="929" y="1351" on="1"/>
        <pt x="1145" y="1351" on="0"/>
        <pt x="1349" y="1163" on="0"/>
        <pt x="1349" y="959" on="1"/>
        <pt x="1349" y="550" on="1"/>
        <pt x="1349" y="262" on="0"/>
        <pt x="1017" y="-20" on="0"/>
        <pt x="671" y="-20" on="1"/>
        <pt x="463" y="-20" on="0"/>
        <pt x="313" y="20" on="1"/>
        <pt x="309" y="293" on="1"/>
        <pt x="380" y="293" on="1"/>
        <pt x="420" y="140" on="1"/>
        <pt x="465" y="108" on="0"/>
        <pt x="564" y="83" on="0"/>
        <pt x="645" y="83" on="1"/>
        <pt x="859" y="83" on="0"/>
        <pt x="1060" y="309" on="0"/>
        <pt x="1060" y="548" on="1"/>
      </contour>
    </TTGlyph>
    <TTGlyph name="Eogonek" xMin="35" yMin="-430" xMax="1261" yMax="1341">
      <component glyphName="E" x="0" y="0" flags="0x204"/>
      <component glyphName="ogonek" x="686" y="0" flags="0x4"/>
    </TTGlyph>
    <TTGlyph name="Epsilon" xMin="35" yMin="0" xMax="1261" yMax="1341">
      <component glyphName="E" x="0" y="0" flags="0x204"/>
    </TTGlyph>
    <TTGlyph name="Epsilontonos" xMin="-83" yMin="0" xMax="1531" yMax="1342">
      <component glyphName="E" x="270" y="0" flags="0x4"/>
      <component glyphName="tonos" x="-331" y="-180" flags="0x4"/>
    </TTGlyph>
    <TTGlyph name="Eta" xMin="35" yMin="0" xMax="1559" yMax="1341">
      <component glyphName="H" x="0" y="0" flags="0x204"/>
    </TTGlyph>
    <TTGlyph name="Etatonos" xMin="-83" yMin="0" xMax="1828" yMax="1342">
      <component glyphName="H" x="269" y="0" flags="0x4"/>
      <component glyphName="tonos" x="-331" y="-180" flags="0x4"/>
    </TTGlyph>
    <TTGlyph name="Eth" xMin="51" yMin="-4" xMax="1401" yMax="1341">
      <contour>
        <pt x="695" y="1341" on="1"/>
        <pt x="1056" y="1341" on="0"/>
        <pt x="1401" y="1014" on="0"/>
        <pt x="1401" y="678" on="1"/>
        <pt x="1401" y="333" on="0"/>
        <pt x="1071" y="-4" on="0"/>
        <pt x="737" y="-4" on="1"/>
        <pt x="288" y="0" on="1"/>
        <pt x="80" y="0" on="1"/>
        <pt x="80" y="73" on="1"/>
        <pt x="230" y="100" on="1"/>
        <pt x="230" y="609" on="1"/>
        <pt x="51" y="609" on="1"/>
        <pt x="51" y="731" on="1"/>
        <pt x="230" y="731" on="1"/>
        <pt x="230" y="1242" on="1"/>
        <pt x="58" y="1268" on="1"/>
        <pt x="58" y="1341" on="1"/>
      </contour>
      <contour>
        <pt x="1069" y="670" on="1"/>
        <pt x="1069" y="960" on="0"/>
        <pt x="857" y="1231" on="0"/>
        <pt x="618" y="1231" on="1"/>
        <pt x="544" y="1231" on="1"/>
        <pt x="544" y="731" on="1"/>
        <pt x="800" y="731" on="1"/>
        <pt x="800" y="609" on="1"/>
        <pt x="544" y="609" on="1"/>
        <pt x="544" y="114" on="1"/>
        <pt x="640" y="106" on="0"/>
        <pt x="718" y="106" on="1"/>
        <pt x="848" y="106" on="0"/>
        <pt x="999" y="218" on="0"/>
        <pt x="1069" y="457" on="0"/>
      </contour>
    </TTGlyph>
    <TTGlyph name="Euro" xMin="26" yMin="-20" xMax="1001" yMax="1356">
      <contour>
        <pt x="26" y="594" on="1"/>
        <pt x="136" y="594" on="1"/>
        <pt x="134" y="661" on="1"/>
        <pt x="134" y="699" on="1"/>
        <pt x="136" y="738" on="1"/>
        <pt x="26" y="738" on="1"/>
        <pt x="26" y="839" on="1"/>
        <pt x="144" y="839" on="1"/>
        <pt x="204" y="1356" on="0"/>
        <pt x="653" y="1356" on="1"/>
        <pt x="754" y="1356" on="0"/>
        <pt x="894" y="1340" on="0"/>
        <pt x="979" y="1323" on="1"/>
        <pt x="983" y="1038" on="1"/>
        <pt x="894" y="1038" on="1"/>
        <pt x="866" y="1188" on="1"/>
        <pt x="782" y="1253" on="0"/>
        <pt x="678" y="1253" on="1"/>
        <pt x="459" y="1253" on="0"/>
        <pt x="430" y="839" on="1"/>
        <pt x="714" y="839" on="1"/>
        <pt x="714" y="738" on="1"/>
        <pt x="427" y="738" on="1"/>
        <pt x="424" y="667" on="1"/>
        <pt x="424" y="612" on="0"/>
        <pt x="427" y="594" on="1"/>
        <pt x="714" y="594" on="1"/>
        <pt x="714" y="493" on="1"/>
        <pt x="430" y="493" on="1"/>
        <pt x="447" y="285" on="0"/>
        <pt x="584" y="83" on="0"/>
        <pt x="686" y="83" on="1"/>
        <pt x="812" y="83" on="0"/>
        <pt x="884" y="163" on="1"/>
        <pt x="912" y="328" on="1"/>
        <pt x="1001" y="328" on="1"/>
        <pt x="997" y="30" on="1"/>
        <pt x="835" y="-20" on="0"/>
        <pt x="661" y="-20" on="1"/>
        <pt x="441" y="-20" on="0"/>
        <pt x="175" y="245" on="0"/>
        <pt x="144" y="493" on="1"/>
        <pt x="26" y="493" on="1"/>
      </contour>
    </TTGlyph>
    <TTGlyph name="F" xMin="35" yMin="0" xMax="1153" yMax="1341">
      <contour>
        <pt x="522" y="572" on="1"/>
        <pt x="522" y="100" on="1"/>
        <pt x="745" y="73" on="1"/>
        <pt x="745" y="0" on="1"/>
        <pt x="48" y="0" on="1"/>
        <pt x="48" y="73" on="1"/>
        <pt x="207" y="100" on="1"/>
        <pt x="207" y="1242" on="1"/>
        <pt x="35" y="1268" on="1"/>
        <pt x="35" y="1341" on="1"/>
        <pt x="1153" y="1341" on="1"/>
        <pt x="1153" y="980" on="1"/>
        <pt x="1059" y="980" on="1"/>
        <pt x="1027" y="1217" on="1"/>
        <pt x="978" y="1224" on="0"/>
        <pt x="752" y="1231" on="0"/>
        <pt x="687" y="1231" on="1"/>
        <pt x="522" y="1231" on="1"/>
        <pt x="522" y="682" on="1"/>
        <pt x="849" y="682" on="1"/>
        <pt x="880" y="852" on="1"/>
        <pt x="969" y="852" on="1"/>
        <pt x="969" y="400" on="1"/>
        <pt x="880" y="400" on="1"/>
        <pt x="849" y="572" on="1"/>
      </contour>
    </TTGlyph>
    <TTGlyph name="G" xMin="100" yMin="-20" xMax="1537" yMax="1356">
      <contour>
        <pt x="1406" y="70" on="1"/>
        <pt x="1282" y="29" on="0"/>
        <pt x="954" y="-20" on="0"/>
        <pt x="823" y="-20" on="1"/>
        <pt x="604" y="-20" on="0"/>
        <pt x="277" y="140" on="0"/>
        <pt x="100" y="446" on="0"/>
        <pt x="100" y="655" on="1"/>
        <pt x="100" y="992" on="0"/>
        <pt x="485" y="1356" on="0"/>
        <pt x="842" y="1356" on="1"/>
        <pt x="929" y="1356" on="0"/>
        <pt x="1072" y="1342" on="0"/>
        <pt x="1196" y="1318" on="0"/>
        <pt x="1362" y="1271" on="1"/>
        <pt x="1362" y="963" on="1"/>
        <pt x="1272" y="963" on="1"/>
        <pt x="1248" y="1137" on="1"/>
        <pt x="1169" y="1191" on="0"/>
        <pt x="979" y="1251" on="0"/>
        <pt x="878" y="1251" on="1"/>
        <pt x="645" y="1251" on="0"/>
        <pt x="432" y="961" on="0"/>
        <pt x="432" y="657" on="1"/>
        <pt x="432" y="374" on="0"/>
        <pt x="657" y="83" on="0"/>
        <pt x="870" y="83" on="1"/>
        <pt x="986" y="83" on="0"/>
        <pt x="1091" y="118" on="1"/>
        <pt x="1091" y="506" on="1"/>
        <pt x="919" y="532" on="1"/>
        <pt x="919" y="606" on="1"/>
        <pt x="1537" y="606" on="1"/>
        <pt x="1537" y="532" on="1"/>
        <pt x="1406" y="506" on="1"/>
      </contour>
    </TTGlyph>
    <TTGlyph name="Gamma" xMin="37" yMin="0" xMax="1192" yMax="1341">
      <contour>
        <pt x="731" y="0" on="1"/>
        <pt x="38" y="0" on="1"/>
        <pt x="38" y="73" on="1"/>
        <pt x="209" y="99" on="1"/>
        <pt x="209" y="1241" on="1"/>
        <pt x="37" y="1268" on="1"/>
        <pt x="37" y="1341" on="1"/>
        <pt x="1174" y="1341" on="1"/>
        <pt x="1192" y="936" on="1"/>
        <pt x="1102" y="936" on="1"/>
        <pt x="1040" y="1215" on="1"/>
        <pt x="940" y="1235" on="0"/>
        <pt x="727" y="1235" on="1"/>
        <pt x="524" y="1235" on="1"/>
        <pt x="524" y="99" on="1"/>
        <pt x="731" y="73" on="1"/>
      </contour>
    </TTGlyph>
    <TTGlyph name="Gbreve" xMin="100" yMin="-20" xMax="1537" yMax="1777">
      <component glyphName="G" x="0" y="0" flags="0x204"/>
      <component glyphName="breve" x="508" y="334" flags="0x4"/>
    </TTGlyph>
    <TTGlyph name="Gcircumflex" xMin="100" yMin="-20" xMax="1537" yMax="1845">
      <component glyphName="G" x="0" y="0" flags="0x204"/>
      <component glyphName="circumflex" x="493" y="401" flags="0x4"/>
    </TTGlyph>
    <TTGlyph name="H" xMin="35" yMin="0" xMax="1559" yMax="1341">
      <contour>
        <pt x="35" y="0" on="1"/>
        <pt x="35" y="74" on="1"/>
        <pt x="207" y="100" on="1"/>
        <pt x="207" y="1241" on="1"/>
        <pt x="35" y="1268" on="1"/>
        <pt x="35" y="1341" on="1"/>
        <pt x="694" y="1341" on="1"/>
        <pt x="694" y="1268" on="1"/>
        <pt x="522" y="1241" on="1"/>
        <pt x="522" y="745" on="1"/>
        <pt x="1070" y="745" on="1"/>
        <pt x="1070" y="1241" on="1"/>
        <pt x="898" y="1268" on="1"/>
        <pt x="898" y="1341" on="1"/>
        <pt x="1559" y="1341" on="1"/>
        <pt x="1559" y="1268" on="1"/>
        <pt x="1386" y="1241" on="1"/>
        <pt x="1386" y="100" on="1"/>
        <pt x="1559" y="74" on="1"/>
        <pt x="1559" y="0" on="1"/>
        <pt x="898" y="0" on="1"/>
        <pt x="898" y="74" on="1"/>
        <pt x="1070" y="100" on="1"/>
        <pt x="1070" y="635" on="1"/>
        <pt x="522" y="635" on="1"/>
        <pt x="522" y="100" on="1"/>
        <pt x="694" y="74" on="1"/>
        <pt x="694" y="0" on="1"/>
      </contour>
    </TTGlyph>
    <TTGlyph name="Hbar" xMin="35" yMin="0" xMax="1559" yMax="1341">
      <contour>
        <pt x="35" y="0" on="1"/>
        <pt x="35" y="74" on="1"/>
        <pt x="207" y="100" on="1"/>
        <pt x="207" y="952" on="1"/>
        <pt x="35" y="952" on="1"/>
        <pt x="35" y="1062" on="1"/>
        <pt x="207" y="1062" on="1"/>
        <pt x="207" y="1241" on="1"/>
        <pt x="35" y="1268" on="1"/>
        <pt x="35" y="1341" on="1"/>
        <pt x="694" y="1341" on="1"/>
        <pt x="694" y="1268" on="1"/>
        <pt x="522" y="1241" on="1"/>
        <pt x="522" y="1062" on="1"/>
        <pt x="1070" y="1062" on="1"/>
        <pt x="1070" y="1241" on="1"/>
        <pt x="898" y="1268" on="1"/>
        <pt x="898" y="1341" on="1"/>
        <pt x="1559" y="1341" on="1"/>
        <pt x="1559" y="1268" on="1"/>
        <pt x="1386" y="1241" on="1"/>
        <pt x="1386" y="1062" on="1"/>
        <pt x="1559" y="1062" on="1"/>
        <pt x="1559" y="952" on="1"/>
        <pt x="1386" y="952" on="1"/>
        <pt x="1386" y="100" on="1"/>
        <pt x="1559" y="74" on="1"/>
        <pt x="1559" y="0" on="1"/>
        <pt x="898" y="0" on="1"/>
        <pt x="898" y="74" on="1"/>
        <pt x="1070" y="100" on="1"/>
        <pt x="1070" y="635" on="1"/>
        <pt x="522" y="635" on="1"/>
        <pt x="522" y="100" on="1"/>
        <pt x="694" y="74" on="1"/>
        <pt x="694" y="0" on="1"/>
      </contour>
      <contour>
        <pt x="1070" y="745" on="1"/>
        <pt x="1070" y="952" on="1"/>
        <pt x="522" y="952" on="1"/>
        <pt x="522" y="745" on="1"/>
      </contour>
    </TTGlyph>
    <TTGlyph name="Hcircumflex" xMin="35" yMin="0" xMax="1559" yMax="1778">
      <component glyphName="H" x="0" y="0" flags="0x204"/>
      <component glyphName="circumflex" x="454" y="334" flags="0x4"/>
    </TTGlyph>
    <TTGlyph name="I" xMin="69" yMin="0" xMax="728" yMax="1341">
      <contour>
        <pt x="556" y="100" on="1"/>
        <pt x="728" y="74" on="1"/>
        <pt x="728" y="0" on="1"/>
        <pt x="69" y="0" on="1"/>
        <pt x="69" y="74" on="1"/>
        <pt x="241" y="100" on="1"/>
        <pt x="241" y="1241" on="1"/>
        <pt x="69" y="1268" on="1"/>
        <pt x="69" y="1341" on="1"/>
        <pt x="728" y="1341" on="1"/>
        <pt x="728" y="1268" on="1"/>
        <pt x="556" y="1241" on="1"/>
      </contour>
    </TTGlyph>
    <TTGlyph name="IJ" xMin="69" yMin="-20" xMax="1639" yMax="1341">
      <component glyphName="I" x="0" y="0" flags="0x4"/>
      <component glyphName="J" x="671" y="0" flags="0x4"/>
    </TTGlyph>
    <TTGlyph name="Iacute" xMin="69" yMin="0" xMax="728" yMax="1757">
      <component glyphName="I" x="0" y="0" flags="0x204"/>
      <component glyphName="acute" x="93" y="334" flags="0x4"/>
    </TTGlyph>
    <TTGlyph name="Ibreve" xMin="69" yMin="0" xMax="728" yMax="1777">
      <component glyphName="I" x="0" y="0" flags="0x204"/>
      <component glyphName="breve" x="58" y="334" flags="0x4"/>
    </TTGlyph>
    <TTGlyph name="Icircumflex" xMin="69" yMin="0" xMax="728" yMax="1778">
      <component glyphName="I" x="0" y="0" flags="0x204"/>
      <component glyphName="circumflex" x="53" y="334" flags="0x4"/>
    </TTGlyph>
    <TTGlyph name="Idieresis" xMin="69" yMin="0" xMax="728" yMax="1704">
      <component glyphName="I" x="0" y="0" flags="0x204"/>
      <component glyphName="dieresis" x="55" y="334" flags="0x4"/>
    </TTGlyph>
    <TTGlyph name="Idotaccent" xMin="69" yMin="0" xMax="728" yMax="1755">
      <component glyphName="I" x="0" y="0" flags="0x204"/>
      <component glyphName="dotaccent" x="56" y="334" flags="0x4"/>
    </TTGlyph>
    <TTGlyph name="Igrave" xMin="69" yMin="0" xMax="728" yMax="1757">
      <component glyphName="I" x="0" y="0" flags="0x204"/>
      <component glyphName="grave" x="51" y="334" flags="0x4"/>
    </TTGlyph>
    <TTGlyph name="Imacron" xMin="69" yMin="0" xMax="728" yMax="1605">
      <component glyphName="I" x="0" y="0" flags="0x204"/>
      <component glyphName="uni02C9" x="57" y="334" flags="0x4"/>
    </TTGlyph>
    <TTGlyph name="Iogonek" xMin="69" yMin="-430" xMax="728" yMax="1341">
      <component glyphName="I" x="0" y="0" flags="0x204"/>
      <component glyphName="ogonek" x="118" y="0" flags="0x4"/>
    </TTGlyph>
    <TTGlyph name="Iota" xMin="69" yMin="0" xMax="728" yMax="1341">
      <component glyphName="I" x="0" y="0" flags="0x204"/>
    </TTGlyph>
    <TTGlyph name="Iotadieresis" xMin="69" yMin="0" xMax="728" yMax="1704">
      <component glyphName="I" x="0" y="0" flags="0x204"/>
      <component glyphName="dieresis" x="55" y="334" flags="0x4"/>
    </TTGlyph>
    <TTGlyph name="Iotatonos" xMin="-73" yMin="0" xMax="1000" yMax="1342">
      <component glyphName="I" x="272" y="0" flags="0x4"/>
      <component glyphName="tonos" x="-321" y="-180" flags="0x4"/>
    </TTGlyph>
    <TTGlyph name="Itilde" xMin="60" yMin="0" xMax="736" yMax="1759">
      <component glyphName="I" x="0" y="0" flags="0x204"/>
      <component glyphName="tilde" x="56" y="334" flags="0x4"/>
    </TTGlyph>
    <TTGlyph name="J" xMin="91" yMin="-20" xMax="968" yMax="1341">
      <contour>
        <pt x="501" y="1242" on="1"/>
        <pt x="329" y="1268" on="1"/>
        <pt x="329" y="1341" on="1"/>
        <pt x="968" y="1341" on="1"/>
        <pt x="968" y="1268" on="1"/>
        <pt x="816" y="1242" on="1"/>
        <pt x="816" y="432" on="1"/>
        <pt x="816" y="215" on="0"/>
        <pt x="576" y="-20" on="0"/>
        <pt x="354" y="-20" on="1"/>
        <pt x="279" y="-20" on="0"/>
        <pt x="134" y="-3" on="0"/>
        <pt x="91" y="10" on="1"/>
        <pt x="91" y="314" on="1"/>
        <pt x="180" y="314" on="1"/>
        <pt x="210" y="135" on="1"/>
        <pt x="229" y="112" on="0"/>
        <pt x="299" y="86" on="0"/>
        <pt x="341" y="86" on="1"/>
        <pt x="410" y="86" on="0"/>
        <pt x="501" y="182" on="0"/>
        <pt x="501" y="276" on="1"/>
      </contour>
    </TTGlyph>
    <TTGlyph name="Jcircumflex" xMin="91" yMin="-20" xMax="976" yMax="1778">
      <component glyphName="J" x="0" y="0" flags="0x204"/>
      <component glyphName="circumflex" x="310" y="334" flags="0x4"/>
    </TTGlyph>
    <TTGlyph name="K" xMin="35" yMin="0" xMax="1577" yMax="1341">
      <contour>
        <pt x="1469" y="1341" on="1"/>
        <pt x="1469" y="1268" on="1"/>
        <pt x="1305" y="1242" on="1"/>
        <pt x="862" y="851" on="1"/>
        <pt x="1452" y="100" on="1"/>
        <pt x="1577" y="73" on="1"/>
        <pt x="1577" y="0" on="1"/>
        <pt x="1139" y="0" on="1"/>
        <pt x="638" y="646" on="1"/>
        <pt x="522" y="546" on="1"/>
        <pt x="522" y="100" on="1"/>
        <pt x="715" y="73" on="1"/>
        <pt x="715" y="0" on="1"/>
        <pt x="35" y="0" on="1"/>
        <pt x="35" y="73" on="1"/>
        <pt x="207" y="100" on="1"/>
        <pt x="207" y="1242" on="1"/>
        <pt x="35" y="1268" on="1"/>
        <pt x="35" y="1341" on="1"/>
        <pt x="695" y="1341" on="1"/>
        <pt x="695" y="1268" on="1"/>
        <pt x="522" y="1242" on="1"/>
        <pt x="522" y="696" on="1"/>
        <pt x="1133" y="1242" on="1"/>
        <pt x="1010" y="1268" on="1"/>
        <pt x="1010" y="1341" on="1"/>
      </contour>
    </TTGlyph>
    <TTGlyph name="Kappa" xMin="35" yMin="0" xMax="1577" yMax="1341">
      <component glyphName="K" x="0" y="0" flags="0x204"/>
    </TTGlyph>
    <TTGlyph name="L" xMin="35" yMin="0" xMax="1280" yMax="1341">
      <contour>
        <pt x="729" y="1268" on="1"/>
        <pt x="522" y="1242" on="1"/>
        <pt x="522" y="106" on="1"/>
        <pt x="795" y="106" on="1"/>
        <pt x="1008" y="106" on="0"/>
        <pt x="1108" y="126" on="1"/>
        <pt x="1190" y="405" on="1"/>
        <pt x="1280" y="405" on="1"/>
        <pt x="1242" y="0" on="1"/>
        <pt x="35" y="0" on="1"/>
        <pt x="35" y="73" on="1"/>
        <pt x="207" y="100" on="1"/>
        <pt x="207" y="1242" on="1"/>
        <pt x="36" y="1268" on="1"/>
        <pt x="36" y="1341" on="1"/>
        <pt x="729" y="1341" on="1"/>
      </contour>
    </TTGlyph>
    <TTGlyph name="Lacute" xMin="35" yMin="0" xMax="1280" yMax="1757">
      <component glyphName="L" x="0" y="0" flags="0x204"/>
      <component glyphName="acute" x="172" y="334" flags="0x4"/>
    </TTGlyph>
    <TTGlyph name="Lambda" xMin="12" yMin="0" xMax="1456" yMax="1352">
      <contour>
        <pt x="420" y="73" on="1"/>
        <pt x="420" y="0" on="1"/>
        <pt x="12" y="0" on="1"/>
        <pt x="12" y="73" on="1"/>
        <pt x="110" y="100" on="1"/>
        <pt x="587" y="1352" on="1"/>
        <pt x="879" y="1352" on="1"/>
        <pt x="1354" y="100" on="1"/>
        <pt x="1456" y="73" on="1"/>
        <pt x="1456" y="0" on="1"/>
        <pt x="859" y="0" on="1"/>
        <pt x="859" y="73" on="1"/>
        <pt x="1014" y="90" on="1"/>
        <pt x="637" y="1139" on="1"/>
        <pt x="256" y="100" on="1"/>
      </contour>
    </TTGlyph>
    <TTGlyph name="Lcaron" xMin="35" yMin="0" xMax="1280" yMax="1362">
      <component glyphName="L" x="0" y="0" flags="0x4"/>
      <component glyphName="caroncommaaccent" x="691" y="0" flags="0x4"/>
    </TTGlyph>
    <TTGlyph name="Ldot" xMin="35" yMin="0" xMax="1280" yMax="1341">
      <component glyphName="L" x="0" y="0" flags="0x204"/>
      <component glyphName="dotaccent" x="566" y="-514" flags="0x4"/>
    </TTGlyph>
    <TTGlyph name="Lslash" xMin="35" yMin="0" xMax="1280" yMax="1341">
      <contour>
        <pt x="207" y="632" on="1"/>
        <pt x="207" y="1241" on="1"/>
        <pt x="37" y="1268" on="1"/>
        <pt x="37" y="1341" on="1"/>
        <pt x="729" y="1341" on="1"/>
        <pt x="729" y="1268" on="1"/>
        <pt x="522" y="1241" on="1"/>
        <pt x="522" y="813" on="1"/>
        <pt x="761" y="951" on="1"/>
        <pt x="761" y="817" on="1"/>
        <pt x="522" y="679" on="1"/>
        <pt x="522" y="106" on="1"/>
        <pt x="795" y="106" on="1"/>
        <pt x="1000" y="106" on="0"/>
        <pt x="1108" y="127" on="1"/>
        <pt x="1190" y="406" on="1"/>
        <pt x="1280" y="406" on="1"/>
        <pt x="1241" y="0" on="1"/>
        <pt x="35" y="0" on="1"/>
        <pt x="35" y="74" on="1"/>
        <pt x="207" y="100" on="1"/>
        <pt x="207" y="497" on="1"/>
        <pt x="43" y="402" on="1"/>
        <pt x="43" y="538" on="1"/>
      </contour>
    </TTGlyph>
    <TTGlyph name="M" xMin="35" yMin="0" xMax="1874" yMax="1341">
      <contour>
        <pt x="882" y="0" on="1"/>
        <pt x="827" y="0" on="1"/>
        <pt x="332" y="1133" on="1"/>
        <pt x="332" y="100" on="1"/>
        <pt x="512" y="73" on="1"/>
        <pt x="512" y="0" on="1"/>
        <pt x="35" y="0" on="1"/>
        <pt x="35" y="73" on="1"/>
        <pt x="207" y="100" on="1"/>
        <pt x="207" y="1242" on="1"/>
        <pt x="35" y="1268" on="1"/>
        <pt x="35" y="1341" on="1"/>
        <pt x="562" y="1341" on="1"/>
        <pt x="945" y="459" on="1"/>
        <pt x="1336" y="1341" on="1"/>
        <pt x="1874" y="1341" on="1"/>
        <pt x="1874" y="1268" on="1"/>
        <pt x="1702" y="1242" on="1"/>
        <pt x="1702" y="100" on="1"/>
        <pt x="1874" y="73" on="1"/>
        <pt x="1874" y="0" on="1"/>
        <pt x="1207" y="0" on="1"/>
        <pt x="1207" y="73" on="1"/>
        <pt x="1387" y="100" on="1"/>
        <pt x="1387" y="1133" on="1"/>
      </contour>
    </TTGlyph>
    <TTGlyph name="Mu" xMin="35" yMin="0" xMax="1874" yMax="1341">
      <component glyphName="M" x="0" y="0" flags="0x204"/>
    </TTGlyph>
    <TTGlyph name="N" xMin="39" yMin="0" xMax="1452" yMax="1341">
      <contour>
        <pt x="1155" y="1242" on="1"/>
        <pt x="975" y="1268" on="1"/>
        <pt x="975" y="1341" on="1"/>
        <pt x="1452" y="1341" on="1"/>
        <pt x="1452" y="1268" on="1"/>
        <pt x="1280" y="1242" on="1"/>
        <pt x="1280" y="0" on="1"/>
        <pt x="1163" y="0" on="1"/>
        <pt x="336" y="1078" on="1"/>
        <pt x="336" y="100" on="1"/>
        <pt x="516" y="73" on="1"/>
        <pt x="516" y="0" on="1"/>
        <pt x="39" y="0" on="1"/>
        <pt x="39" y="73" on="1"/>
        <pt x="211" y="100" on="1"/>
        <pt x="211" y="1242" on="1"/>
        <pt x="39" y="1268" on="1"/>
        <pt x="39" y="1341" on="1"/>
        <pt x="498" y="1341" on="1"/>
        <pt x="1155" y="484" on="1"/>
      </contour>
    </TTGlyph>
    <TTGlyph name="Nacute" xMin="39" yMin="0" xMax="1452" yMax="1757">
      <component glyphName="N" x="0" y="0" flags="0x204"/>
      <component glyphName="acute" x="489" y="334" flags="0x4"/>
    </TTGlyph>
    <TTGlyph name="Ncaron" xMin="39" yMin="0" xMax="1452" yMax="1778">
      <component glyphName="N" x="0" y="0" flags="0x204"/>
      <component glyphName="caron" x="397" y="334" flags="0x4"/>
    </TTGlyph>
    <TTGlyph name="Ntilde" xMin="39" yMin="0" xMax="1452" yMax="1759">
      <component glyphName="N" x="0" y="0" flags="0x204"/>
      <component glyphName="tilde" x="409" y="334" flags="0x4"/>
    </TTGlyph>
    <TTGlyph name="Nu" xMin="39" yMin="0" xMax="1452" yMax="1341">
      <component glyphName="N" x="0" y="0" flags="0x204"/>
    </TTGlyph>
    <TTGlyph name="O" xMin="100" yMin="-20" xMax="1493" yMax="1356">
      <contour>
        <pt x="432" y="672" on="1"/>
        <pt x="432" y="353" on="0"/>
        <pt x="607" y="80" on="0"/>
        <pt x="797" y="80" on="1"/>
        <pt x="986" y="80" on="0"/>
        <pt x="1161" y="354" on="0"/>
        <pt x="1161" y="672" on="1"/>
        <pt x="1161" y="989" on="0"/>
        <pt x="986" y="1255" on="0"/>
        <pt x="797" y="1255" on="1"/>
        <pt x="607" y="1255" on="0"/>
        <pt x="432" y="989" on="0"/>
      </contour>
      <contour>
        <pt x="100" y="672" on="1"/>
        <pt x="100" y="1356" on="0"/>
        <pt x="797" y="1356" on="1"/>
        <pt x="1141" y="1356" on="0"/>
        <pt x="1493" y="1009" on="0"/>
        <pt x="1493" y="672" on="1"/>
        <pt x="1493" y="331" on="0"/>
        <pt x="1137" y="-20" on="0"/>
        <pt x="797" y="-20" on="1"/>
        <pt x="458" y="-20" on="0"/>
        <pt x="100" y="330" on="0"/>
      </contour>
    </TTGlyph>
    <TTGlyph name="OE" xMin="113" yMin="-7" xMax="1943" yMax="1349">
      <contour>
        <pt x="113" y="675" on="1"/>
        <pt x="113" y="1015" on="0"/>
        <pt x="458" y="1349" on="0"/>
        <pt x="810" y="1349" on="1"/>
        <pt x="894" y="1349" on="0"/>
        <pt x="1006" y="1341" on="1"/>
        <pt x="1859" y="1341" on="1"/>
        <pt x="1859" y="1000" on="1"/>
        <pt x="1768" y="1000" on="1"/>
        <pt x="1736" y="1217" on="1"/>
        <pt x="1624" y="1231" on="0"/>
        <pt x="1400" y="1231" on="1"/>
        <pt x="1292" y="1231" on="1"/>
        <pt x="1292" y="739" on="1"/>
        <pt x="1555" y="739" on="1"/>
        <pt x="1586" y="887" on="1"/>
        <pt x="1675" y="887" on="1"/>
        <pt x="1675" y="475" on="1"/>
        <pt x="1586" y="475" on="1"/>
        <pt x="1555" y="627" on="1"/>
        <pt x="1292" y="627" on="1"/>
        <pt x="1292" y="110" on="1"/>
        <pt x="1445" y="110" on="1"/>
        <pt x="1542" y="110" on="0"/>
        <pt x="1758" y="119" on="0"/>
        <pt x="1795" y="126" on="1"/>
        <pt x="1852" y="374" on="1"/>
        <pt x="1943" y="374" on="1"/>
        <pt x="1924" y="0" on="1"/>
        <pt x="989" y="0" on="1"/>
        <pt x="870" y="-7" on="0"/>
        <pt x="810" y="-7" on="1"/>
        <pt x="468" y="-7" on="0"/>
        <pt x="113" y="336" on="0"/>
      </contour>
      <contour>
        <pt x="445" y="675" on="1"/>
        <pt x="445" y="359" on="0"/>
        <pt x="619" y="93" on="0"/>
        <pt x="810" y="93" on="1"/>
        <pt x="920" y="93" on="0"/>
        <pt x="977" y="112" on="1"/>
        <pt x="977" y="1229" on="1"/>
        <pt x="916" y="1248" on="0"/>
        <pt x="810" y="1248" on="1"/>
        <pt x="617" y="1248" on="0"/>
        <pt x="445" y="986" on="0"/>
      </contour>
    </TTGlyph>
    <TTGlyph name="Oacute" xMin="100" yMin="-20" xMax="1493" yMax="1757">
      <component glyphName="O" x="0" y="0" flags="0x204"/>
      <component glyphName="acute" x="550" y="334" flags="0x4"/>
    </TTGlyph>
    <TTGlyph name="Obreve" xMin="100" yMin="-20" xMax="1493" yMax="1777">
      <component glyphName="O" x="0" y="0" flags="0x204"/>
      <component glyphName="breve" x="456" y="334" flags="0x4"/>
    </TTGlyph>
    <TTGlyph name="Ocircumflex" xMin="100" yMin="-20" xMax="1493" yMax="1778">
      <component glyphName="O" x="0" y="0" flags="0x204"/>
      <component glyphName="circumflex" x="455" y="334" flags="0x4"/>
    </TTGlyph>
    <TTGlyph name="Odieresis" xMin="100" yMin="-20" xMax="1493" yMax="1704">
      <component glyphName="O" x="0" y="0" flags="0x204"/>
      <component glyphName="dieresis" x="461" y="334" flags="0x4"/>
    </TTGlyph>
    <TTGlyph name="Ograve" xMin="100" yMin="-20" xMax="1493" yMax="1757">
      <component glyphName="O" x="0" y="0" flags="0x204"/>
      <component glyphName="grave" x="403" y="334" flags="0x4"/>
    </TTGlyph>
    <TTGlyph name="Ohm" xMin="59" yMin="0" xMax="1515" yMax="1356">
      <contour>
        <pt x="787" y="1255" on="1"/>
        <pt x="597" y="1255" on="0"/>
        <pt x="392" y="1039" on="0"/>
        <pt x="392" y="837" on="1"/>
        <pt x="392" y="660" on="0"/>
        <pt x="542" y="454" on="0"/>
        <pt x="684" y="432" on="1"/>
        <pt x="707" y="0" on="1"/>
        <pt x="82" y="0" on="1"/>
        <pt x="59" y="384" on="1"/>
        <pt x="145" y="384" on="1"/>
        <pt x="206" y="256" on="1"/>
        <pt x="286" y="240" on="0"/>
        <pt x="464" y="240" on="1"/>
        <pt x="573" y="240" on="1"/>
        <pt x="568" y="345" on="1"/>
        <pt x="328" y="379" on="0"/>
        <pt x="60" y="635" on="0"/>
        <pt x="60" y="837" on="1"/>
        <pt x="60" y="1085" on="0"/>
        <pt x="438" y="1356" on="0"/>
        <pt x="787" y="1356" on="1"/>
        <pt x="1135" y="1356" on="0"/>
        <pt x="1514" y="1086" on="0"/>
        <pt x="1514" y="837" on="1"/>
        <pt x="1514" y="635" on="0"/>
        <pt x="1246" y="379" on="0"/>
        <pt x="1006" y="345" on="1"/>
        <pt x="1001" y="240" on="1"/>
        <pt x="1110" y="240" on="1"/>
        <pt x="1288" y="240" on="0"/>
        <pt x="1368" y="256" on="1"/>
        <pt x="1429" y="384" on="1"/>
        <pt x="1515" y="384" on="1"/>
        <pt x="1492" y="0" on="1"/>
        <pt x="867" y="0" on="1"/>
        <pt x="890" y="432" on="1"/>
        <pt x="1033" y="454" on="0"/>
        <pt x="1182" y="661" on="0"/>
        <pt x="1182" y="837" on="1"/>
        <pt x="1182" y="1038" on="0"/>
        <pt x="978" y="1255" on="0"/>
      </contour>
    </TTGlyph>
    <TTGlyph name="Ohorn" xMin="100" yMin="-20" xMax="1626" yMax="1483">
      <contour>
        <pt x="100" y="672" on="1"/>
        <pt x="100" y="1356" on="0"/>
        <pt x="797" y="1356" on="1"/>
        <pt x="1225" y="1356" on="0"/>
        <pt x="1392" y="1088" on="1"/>
        <pt x="1466" y="1133" on="0"/>
        <pt x="1466" y="1187" on="1"/>
        <pt x="1466" y="1205" on="0"/>
        <pt x="1437" y="1233" on="0"/>
        <pt x="1399" y="1254" on="1"/>
        <pt x="1331" y="1290" on="0"/>
        <pt x="1331" y="1357" on="1"/>
        <pt x="1331" y="1413" on="0"/>
        <pt x="1407" y="1483" on="0"/>
        <pt x="1467" y="1483" on="1"/>
        <pt x="1538" y="1483" on="0"/>
        <pt x="1626" y="1384" on="0"/>
        <pt x="1626" y="1306" on="1"/>
        <pt x="1626" y="1215" on="0"/>
        <pt x="1531" y="1059" on="0"/>
        <pt x="1435" y="1003" on="1"/>
        <pt x="1493" y="865" on="0"/>
        <pt x="1493" y="672" on="1"/>
        <pt x="1493" y="331" on="0"/>
        <pt x="1137" y="-20" on="0"/>
        <pt x="797" y="-20" on="1"/>
        <pt x="458" y="-20" on="0"/>
        <pt x="100" y="330" on="0"/>
      </contour>
      <contour>
        <pt x="432" y="672" on="1"/>
        <pt x="432" y="353" on="0"/>
        <pt x="607" y="80" on="0"/>
        <pt x="797" y="80" on="1"/>
        <pt x="986" y="80" on="0"/>
        <pt x="1161" y="354" on="0"/>
        <pt x="1161" y="672" on="1"/>
        <pt x="1161" y="989" on="0"/>
        <pt x="986" y="1255" on="0"/>
        <pt x="797" y="1255" on="1"/>
        <pt x="607" y="1255" on="0"/>
        <pt x="432" y="989" on="0"/>
      </contour>
    </TTGlyph>
    <TTGlyph name="Omacron" xMin="100" yMin="-20" xMax="1493" yMax="1605">
      <component glyphName="O" x="0" y="0" flags="0x204"/>
      <component glyphName="uni02C9" x="455" y="334" flags="0x4"/>
    </TTGlyph>
    <TTGlyph name="Omega" xMin="93" yMin="0" xMax="1549" yMax="1356">
      <contour>
        <pt x="821" y="1255" on="1"/>
        <pt x="631" y="1255" on="0"/>
        <pt x="426" y="1039" on="0"/>
        <pt x="426" y="837" on="1"/>
        <pt x="426" y="660" on="0"/>
        <pt x="576" y="454" on="0"/>
        <pt x="718" y="432" on="1"/>
        <pt x="741" y="0" on="1"/>
        <pt x="116" y="0" on="1"/>
        <pt x="93" y="384" on="1"/>
        <pt x="179" y="384" on="1"/>
        <pt x="240" y="256" on="1"/>
        <pt x="320" y="240" on="0"/>
        <pt x="498" y="240" on="1"/>
        <pt x="607" y="240" on="1"/>
        <pt x="602" y="345" on="1"/>
        <pt x="362" y="379" on="0"/>
        <pt x="94" y="635" on="0"/>
        <pt x="94" y="837" on="1"/>
        <pt x="94" y="1085" on="0"/>
        <pt x="472" y="1356" on="0"/>
        <pt x="821" y="1356" on="1"/>
        <pt x="1169" y="1356" on="0"/>
        <pt x="1548" y="1086" on="0"/>
        <pt x="1548" y="837" on="1"/>
        <pt x="1548" y="635" on="0"/>
        <pt x="1280" y="379" on="0"/>
        <pt x="1040" y="345" on="1"/>
        <pt x="1035" y="240" on="1"/>
        <pt x="1144" y="240" on="1"/>
        <pt x="1322" y="240" on="0"/>
        <pt x="1402" y="256" on="1"/>
        <pt x="1463" y="384" on="1"/>
        <pt x="1549" y="384" on="1"/>
        <pt x="1526" y="0" on="1"/>
        <pt x="901" y="0" on="1"/>
        <pt x="924" y="432" on="1"/>
        <pt x="1067" y="454" on="0"/>
        <pt x="1216" y="661" on="0"/>
        <pt x="1216" y="837" on="1"/>
        <pt x="1216" y="1038" on="0"/>
        <pt x="1012" y="1255" on="0"/>
      </contour>
    </TTGlyph>
    <TTGlyph name="Omegatonos" xMin="-164" yMin="0" xMax="1549" yMax="1356">
      <component glyphName="Omega" x="0" y="0" flags="0x4"/>
      <component glyphName="tonos" x="-412" y="-180" flags="0x4"/>
    </TTGlyph>
    <TTGlyph name="Omicron" xMin="100" yMin="-20" xMax="1493" yMax="1356">
      <component glyphName="O" x="0" y="0" flags="0x204"/>
    </TTGlyph>
    <TTGlyph name="Omicrontonos" xMin="-133" yMin="-20" xMax="1493" yMax="1356">
      <component glyphName="O" x="0" y="0" flags="0x4"/>
      <component glyphName="tonos" x="-381" y="-180" flags="0x4"/>
    </TTGlyph>
    <TTGlyph name="Oslash" xMin="100" yMin="-55" xMax="1493" yMax="1391">
      <contour>
        <pt x="291" y="144" on="1"/>
        <pt x="100" y="319" on="0"/>
        <pt x="100" y="672" on="1"/>
        <pt x="100" y="1356" on="0"/>
        <pt x="797" y="1356" on="1"/>
        <pt x="1049" y="1356" on="0"/>
        <pt x="1213" y="1261" on="1"/>
        <pt x="1321" y="1391" on="1"/>
        <pt x="1466" y="1391" on="1"/>
        <pt x="1304" y="1194" on="1"/>
        <pt x="1493" y="1021" on="0"/>
        <pt x="1493" y="672" on="1"/>
        <pt x="1493" y="331" on="0"/>
        <pt x="1137" y="-20" on="0"/>
        <pt x="797" y="-20" on="1"/>
        <pt x="549" y="-20" on="0"/>
        <pt x="383" y="75" on="1"/>
        <pt x="276" y="-55" on="1"/>
        <pt x="127" y="-55" on="1"/>
      </contour>
      <contour>
        <pt x="432" y="672" on="1"/>
        <pt x="432" y="473" on="0"/>
        <pt x="463" y="353" on="1"/>
        <pt x="1084" y="1104" on="1"/>
        <pt x="998" y="1255" on="0"/>
        <pt x="797" y="1255" on="1"/>
        <pt x="607" y="1255" on="0"/>
        <pt x="432" y="989" on="0"/>
      </contour>
      <contour>
        <pt x="1161" y="672" on="1"/>
        <pt x="1161" y="866" on="0"/>
        <pt x="1130" y="983" on="1"/>
        <pt x="511" y="231" on="1"/>
        <pt x="597" y="80" on="0"/>
        <pt x="797" y="80" on="1"/>
        <pt x="986" y="80" on="0"/>
        <pt x="1161" y="354" on="0"/>
      </contour>
    </TTGlyph>
    <TTGlyph name="Oslashacute" xMin="100" yMin="-55" xMax="1493" yMax="1757">
      <component glyphName="Oslash" x="0" y="0" flags="0x204"/>
      <component glyphName="acute" x="550" y="334" flags="0x4"/>
    </TTGlyph>
    <TTGlyph name="Otilde" xMin="100" yMin="-20" xMax="1493" yMax="1759">
      <component glyphName="O" x="0" y="0" flags="0x204"/>
      <component glyphName="tilde" x="453" y="334" flags="0x4"/>
    </TTGlyph>
    <TTGlyph name="P" xMin="35" yMin="0" xMax="1193" yMax="1341">
      <contour>
        <pt x="871" y="944" on="1"/>
        <pt x="871" y="1104" on="0"/>
        <pt x="752" y="1231" on="0"/>
        <pt x="602" y="1231" on="1"/>
        <pt x="523" y="1231" on="1"/>
        <pt x="523" y="636" on="1"/>
        <pt x="606" y="636" on="1"/>
        <pt x="745" y="636" on="0"/>
        <pt x="871" y="776" on="0"/>
      </contour>
      <contour>
        <pt x="523" y="526" on="1"/>
        <pt x="523" y="100" on="1"/>
        <pt x="746" y="73" on="1"/>
        <pt x="746" y="0" on="1"/>
        <pt x="48" y="0" on="1"/>
        <pt x="48" y="73" on="1"/>
        <pt x="207" y="100" on="1"/>
        <pt x="207" y="1242" on="1"/>
        <pt x="35" y="1268" on="1"/>
        <pt x="35" y="1341" on="1"/>
        <pt x="626" y="1341" on="1"/>
        <pt x="911" y="1341" on="0"/>
        <pt x="1193" y="1150" on="0"/>
        <pt x="1193" y="946" on="1"/>
        <pt x="1193" y="526" on="0"/>
        <pt x="703" y="526" on="1"/>
      </contour>
    </TTGlyph>
    <TTGlyph name="Phi" xMin="79" yMin="0" xMax="1618" yMax="1341">
      <contour>
        <pt x="711" y="324" on="1"/>
        <pt x="711" y="1034" on="1"/>
        <pt x="646" y="1034" on="1"/>
        <pt x="526" y="1034" on="0"/>
        <pt x="383" y="850" on="0"/>
        <pt x="383" y="690" on="1"/>
        <pt x="383" y="528" on="0"/>
        <pt x="526" y="324" on="0"/>
        <pt x="637" y="324" on="1"/>
      </contour>
      <contour>
        <pt x="1060" y="324" on="1"/>
        <pt x="1171" y="324" on="0"/>
        <pt x="1314" y="528" on="0"/>
        <pt x="1314" y="690" on="1"/>
        <pt x="1314" y="851" on="0"/>
        <pt x="1171" y="1034" on="0"/>
        <pt x="1051" y="1034" on="1"/>
        <pt x="986" y="1034" on="1"/>
        <pt x="986" y="324" on="1"/>
      </contour>
      <contour>
        <pt x="539" y="0" on="1"/>
        <pt x="539" y="74" on="1"/>
        <pt x="711" y="100" on="1"/>
        <pt x="711" y="221" on="1"/>
        <pt x="602" y="221" on="1"/>
        <pt x="441" y="221" on="0"/>
        <pt x="208" y="333" on="0"/>
        <pt x="79" y="552" on="0"/>
        <pt x="79" y="692" on="1"/>
        <pt x="79" y="828" on="0"/>
        <pt x="200" y="1027" on="0"/>
        <pt x="436" y="1137" on="0"/>
        <pt x="607" y="1137" on="1"/>
        <pt x="711" y="1137" on="1"/>
        <pt x="711" y="1241" on="1"/>
        <pt x="539" y="1268" on="1"/>
        <pt x="539" y="1341" on="1"/>
        <pt x="1158" y="1341" on="1"/>
        <pt x="1158" y="1268" on="1"/>
        <pt x="986" y="1241" on="1"/>
        <pt x="986" y="1137" on="1"/>
        <pt x="1090" y="1137" on="1"/>
        <pt x="1260" y="1137" on="0"/>
        <pt x="1497" y="1027" on="0"/>
        <pt x="1618" y="827" on="0"/>
        <pt x="1618" y="692" on="1"/>
        <pt x="1618" y="551" on="0"/>
        <pt x="1488" y="332" on="0"/>
        <pt x="1255" y="221" on="0"/>
        <pt x="1095" y="221" on="1"/>
        <pt x="986" y="221" on="1"/>
        <pt x="986" y="100" on="1"/>
        <pt x="1158" y="74" on="1"/>
        <pt x="1158" y="0" on="1"/>
      </contour>
    </TTGlyph>
    <TTGlyph name="Pi" xMin="40" yMin="0" xMax="1553" yMax="1341">
      <contour>
        <pt x="40" y="0" on="1"/>
        <pt x="40" y="74" on="1"/>
        <pt x="212" y="100" on="1"/>
        <pt x="212" y="1241" on="1"/>
        <pt x="40" y="1268" on="1"/>
        <pt x="40" y="1341" on="1"/>
        <pt x="1553" y="1341" on="1"/>
        <pt x="1553" y="1268" on="1"/>
        <pt x="1380" y="1241" on="1"/>
        <pt x="1380" y="100" on="1"/>
        <pt x="1553" y="74" on="1"/>
        <pt x="1553" y="0" on="1"/>
        <pt x="892" y="0" on="1"/>
        <pt x="892" y="74" on="1"/>
        <pt x="1064" y="100" on="1"/>
        <pt x="1064" y="1231" on="1"/>
        <pt x="527" y="1231" on="1"/>
        <pt x="527" y="100" on="1"/>
        <pt x="699" y="74" on="1"/>
        <pt x="699" y="0" on="1"/>
      </contour>
    </TTGlyph>
    <TTGlyph name="Psi" xMin="7" yMin="0" xMax="1590" yMax="1341">
      <contour>
        <pt x="489" y="0" on="1"/>
        <pt x="489" y="74" on="1"/>
        <pt x="661" y="100" on="1"/>
        <pt x="661" y="493" on="1"/>
        <pt x="394" y="493" on="0"/>
        <pt x="104" y="746" on="0"/>
        <pt x="104" y="984" on="1"/>
        <pt x="104" y="1241" on="1"/>
        <pt x="7" y="1268" on="1"/>
        <pt x="7" y="1341" on="1"/>
        <pt x="398" y="1341" on="1"/>
        <pt x="398" y="972" on="1"/>
        <pt x="398" y="801" on="0"/>
        <pt x="537" y="598" on="0"/>
        <pt x="661" y="596" on="1"/>
        <pt x="661" y="1241" on="1"/>
        <pt x="539" y="1268" on="1"/>
        <pt x="539" y="1341" on="1"/>
        <pt x="1058" y="1341" on="1"/>
        <pt x="1058" y="1268" on="1"/>
        <pt x="936" y="1241" on="1"/>
        <pt x="936" y="596" on="1"/>
        <pt x="1060" y="598" on="0"/>
        <pt x="1199" y="801" on="0"/>
        <pt x="1199" y="972" on="1"/>
        <pt x="1199" y="1341" on="1"/>
        <pt x="1590" y="1341" on="1"/>
        <pt x="1590" y="1268" on="1"/>
        <pt x="1493" y="1241" on="1"/>
        <pt x="1493" y="984" on="1"/>
        <pt x="1493" y="747" on="0"/>
        <pt x="1204" y="493" on="0"/>
        <pt x="936" y="493" on="1"/>
        <pt x="936" y="100" on="1"/>
        <pt x="1108" y="74" on="1"/>
        <pt x="1108" y="0" on="1"/>
      </contour>
    </TTGlyph>
    <TTGlyph name="Q" xMin="100" yMin="-332" xMax="1503" yMax="1356">
      <contour>
        <pt x="100" y="672" on="1"/>
        <pt x="100" y="1356" on="0"/>
        <pt x="797" y="1356" on="1"/>
        <pt x="1141" y="1356" on="0"/>
        <pt x="1493" y="1009" on="0"/>
        <pt x="1493" y="672" on="1"/>
        <pt x="1493" y="175" on="0"/>
        <pt x="1119" y="32" on="1"/>
        <pt x="1169" y="-29" on="1"/>
        <pt x="1316" y="-213" on="0"/>
        <pt x="1421" y="-213" on="1"/>
        <pt x="1473" y="-213" on="0"/>
        <pt x="1503" y="-205" on="1"/>
        <pt x="1503" y="-291" on="1"/>
        <pt x="1482" y="-301" on="0"/>
        <pt x="1329" y="-332" on="0"/>
        <pt x="1267" y="-332" on="1"/>
        <pt x="1194" y="-332" on="0"/>
        <pt x="1081" y="-305" on="0"/>
        <pt x="984" y="-248" on="0"/>
        <pt x="891" y="-155" on="0"/>
        <pt x="785" y="-20" on="1"/>
        <pt x="452" y="-18" on="0"/>
        <pt x="100" y="335" on="0"/>
      </contour>
      <contour>
        <pt x="432" y="672" on="1"/>
        <pt x="432" y="353" on="0"/>
        <pt x="607" y="80" on="0"/>
        <pt x="797" y="80" on="1"/>
        <pt x="986" y="80" on="0"/>
        <pt x="1161" y="354" on="0"/>
        <pt x="1161" y="672" on="1"/>
        <pt x="1161" y="989" on="0"/>
        <pt x="986" y="1255" on="0"/>
        <pt x="797" y="1255" on="1"/>
        <pt x="607" y="1255" on="0"/>
        <pt x="432" y="989" on="0"/>
      </contour>
    </TTGlyph>
    <TTGlyph name="R" xMin="35" yMin="0" xMax="1497" yMax="1341">
      <contour>
        <pt x="523" y="568" on="1"/>
        <pt x="523" y="100" on="1"/>
        <pt x="695" y="73" on="1"/>
        <pt x="695" y="0" on="1"/>
        <pt x="48" y="0" on="1"/>
        <pt x="48" y="73" on="1"/>
        <pt x="207" y="100" on="1"/>
        <pt x="207" y="1242" on="1"/>
        <pt x="35" y="1268" on="1"/>
        <pt x="35" y="1341" on="1"/>
        <pt x="676" y="1341" on="1"/>
        <pt x="972" y="1341" on="0"/>
        <pt x="1264" y="1159" on="0"/>
        <pt x="1264" y="966" on="1"/>
        <pt x="1264" y="678" on="0"/>
        <pt x="994" y="596" on="1"/>
        <pt x="1352" y="100" on="1"/>
        <pt x="1497" y="73" on="1"/>
        <pt x="1497" y="0" on="1"/>
        <pt x="1063" y="0" on="1"/>
        <pt x="689" y="568" on="1"/>
      </contour>
      <contour>
        <pt x="952" y="964" on="1"/>
        <pt x="952" y="1114" on="0"/>
        <pt x="828" y="1231" on="0"/>
        <pt x="663" y="1231" on="1"/>
        <pt x="523" y="1231" on="1"/>
        <pt x="523" y="678" on="1"/>
        <pt x="668" y="678" on="1"/>
        <pt x="822" y="678" on="0"/>
        <pt x="952" y="806" on="0"/>
      </contour>
    </TTGlyph>
    <TTGlyph name="Racute" xMin="35" yMin="0" xMax="1497" yMax="1757">
      <component glyphName="R" x="0" y="0" flags="0x204"/>
      <component glyphName="acute" x="411" y="334" flags="0x4"/>
    </TTGlyph>
    <TTGlyph name="Rcaron" xMin="35" yMin="0" xMax="1497" yMax="1778">
      <component glyphName="R" x="0" y="0" flags="0x204"/>
      <component glyphName="caron" x="372" y="334" flags="0x4"/>
    </TTGlyph>
    <TTGlyph name="Rho" xMin="35" yMin="0" xMax="1193" yMax="1341">
      <component glyphName="P" x="0" y="0" flags="0x204"/>
    </TTGlyph>
    <TTGlyph name="S" xMin="109" yMin="-20" xMax="1052" yMax="1356">
      <contour>
        <pt x="109" y="411" on="1"/>
        <pt x="197" y="411" on="1"/>
        <pt x="242" y="196" on="1"/>
        <pt x="284" y="147" on="0"/>
        <pt x="454" y="81" on="0"/>
        <pt x="545" y="81" on="1"/>
        <pt x="832" y="81" on="0"/>
        <pt x="832" y="317" on="1"/>
        <pt x="832" y="391" on="0"/>
        <pt x="723" y="493" on="0"/>
        <pt x="606" y="533" on="1"/>
        <pt x="434" y="590" on="0"/>
        <pt x="283" y="661" on="0"/>
        <pt x="179" y="757" on="0"/>
        <pt x="117" y="894" on="0"/>
        <pt x="117" y="994" on="1"/>
        <pt x="117" y="1171" on="0"/>
        <pt x="358" y="1356" on="0"/>
        <pt x="590" y="1356" on="1"/>
        <pt x="758" y="1356" on="0"/>
        <pt x="962" y="1313" on="1"/>
        <pt x="962" y="994" on="1"/>
        <pt x="873" y="994" on="1"/>
        <pt x="828" y="1178" on="1"/>
        <pt x="726" y="1252" on="0"/>
        <pt x="590" y="1252" on="1"/>
        <pt x="467" y="1252" on="0"/>
        <pt x="335" y="1161" on="0"/>
        <pt x="335" y="1067" on="1"/>
        <pt x="335" y="1000" on="0"/>
        <pt x="445" y="905" on="0"/>
        <pt x="562" y="868" on="1"/>
        <pt x="791" y="793" on="0"/>
        <pt x="962" y="682" on="0"/>
        <pt x="1052" y="518" on="0"/>
        <pt x="1052" y="407" on="1"/>
        <pt x="1052" y="-20" on="0"/>
        <pt x="549" y="-20" on="1"/>
        <pt x="434" y="-20" on="0"/>
        <pt x="195" y="19" on="0"/>
        <pt x="109" y="51" on="1"/>
      </contour>
    </TTGlyph>
    <TTGlyph name="Sacute" xMin="109" yMin="-20" xMax="1052" yMax="1757">
      <component glyphName="S" x="0" y="0" flags="0x204"/>
      <component glyphName="acute" x="335" y="334" flags="0x4"/>
    </TTGlyph>
    <TTGlyph name="Scaron" xMin="109" yMin="-20" xMax="1052" yMax="1778">
      <component glyphName="S" x="0" y="0" flags="0x204"/>
      <component glyphName="caron" x="243" y="334" flags="0x4"/>
    </TTGlyph>
    <TTGlyph name="Scedilla" xMin="109" yMin="-422" xMax="1052" yMax="1356">
      <component glyphName="S" x="0" y="0" flags="0x204"/>
      <component glyphName="cedilla" x="236" y="0" flags="0x4"/>
    </TTGlyph>
    <TTGlyph name="Scircumflex" xMin="109" yMin="-20" xMax="1052" yMax="1778">
      <component glyphName="S" x="0" y="0" flags="0x204"/>
      <component glyphName="circumflex" x="227" y="334" flags="0x4"/>
    </TTGlyph>
    <TTGlyph name="Scommaaccent" xMin="109" yMin="-523" xMax="1052" yMax="1356">
      <component glyphName="S" x="0" y="0" flags="0x204"/>
      <component glyphName="uniF004" x="200" y="0" flags="0x4"/>
    </TTGlyph>
    <TTGlyph name="Sigma" xMin="67" yMin="0" xMax="1243" yMax="1341">
      <contour>
        <pt x="775" y="817" on="1"/>
        <pt x="775" y="717" on="1"/>
        <pt x="366" y="263" on="1"/>
        <pt x="651" y="263" on="1"/>
        <pt x="763" y="263" on="0"/>
        <pt x="1085" y="272" on="0"/>
        <pt x="1124" y="279" on="1"/>
        <pt x="1160" y="464" on="1"/>
        <pt x="1243" y="464" on="1"/>
        <pt x="1224" y="0" on="1"/>
        <pt x="67" y="0" on="1"/>
        <pt x="67" y="102" on="1"/>
        <pt x="547" y="632" on="1"/>
        <pt x="75" y="1234" on="1"/>
        <pt x="75" y="1341" on="1"/>
        <pt x="1160" y="1341" on="1"/>
        <pt x="1160" y="1000" on="1"/>
        <pt x="1069" y="1000" on="1"/>
        <pt x="1027" y="1217" on="1"/>
        <pt x="912" y="1231" on="0"/>
        <pt x="699" y="1231" on="1"/>
        <pt x="460" y="1231" on="1"/>
      </contour>
    </TTGlyph>
    <TTGlyph name="T" xMin="32" yMin="0" xMax="1335" yMax="1341">
      <contour>
        <pt x="310" y="0" on="1"/>
        <pt x="310" y="73" on="1"/>
        <pt x="523" y="100" on="1"/>
        <pt x="523" y="1235" on="1"/>
        <pt x="472" y="1235" on="1"/>
        <pt x="243" y="1235" on="0"/>
        <pt x="150" y="1215" on="1"/>
        <pt x="123" y="966" on="1"/>
        <pt x="32" y="966" on="1"/>
        <pt x="32" y="1341" on="1"/>
        <pt x="1335" y="1341" on="1"/>
        <pt x="1335" y="966" on="1"/>
        <pt x="1243" y="966" on="1"/>
        <pt x="1216" y="1215" on="1"/>
        <pt x="1133" y="1233" on="0"/>
        <pt x="888" y="1233" on="1"/>
        <pt x="839" y="1233" on="1"/>
        <pt x="839" y="100" on="1"/>
        <pt x="1052" y="73" on="1"/>
        <pt x="1052" y="0" on="1"/>
      </contour>
    </TTGlyph>
    <TTGlyph name="Tau" xMin="32" yMin="0" xMax="1335" yMax="1341">
      <component glyphName="T" x="0" y="0" flags="0x204"/>
    </TTGlyph>
    <TTGlyph name="Tbar" xMin="32" yMin="0" xMax="1335" yMax="1341">
      <contour>
        <pt x="310" y="0" on="1"/>
        <pt x="310" y="73" on="1"/>
        <pt x="523" y="100" on="1"/>
        <pt x="523" y="609" on="1"/>
        <pt x="242" y="609" on="1"/>
        <pt x="242" y="731" on="1"/>
        <pt x="523" y="731" on="1"/>
        <pt x="523" y="1235" on="1"/>
        <pt x="472" y="1235" on="1"/>
        <pt x="243" y="1235" on="0"/>
        <pt x="150" y="1215" on="1"/>
        <pt x="123" y="966" on="1"/>
        <pt x="32" y="966" on="1"/>
        <pt x="32" y="1341" on="1"/>
        <pt x="1335" y="1341" on="1"/>
        <pt x="1335" y="966" on="1"/>
        <pt x="1243" y="966" on="1"/>
        <pt x="1216" y="1215" on="1"/>
        <pt x="1133" y="1233" on="0"/>
        <pt x="888" y="1233" on="1"/>
        <pt x="839" y="1233" on="1"/>
        <pt x="839" y="731" on="1"/>
        <pt x="1120" y="731" on="1"/>
        <pt x="1120" y="609" on="1"/>
        <pt x="839" y="609" on="1"/>
        <pt x="839" y="100" on="1"/>
        <pt x="1052" y="73" on="1"/>
        <pt x="1052" y="0" on="1"/>
      </contour>
    </TTGlyph>
    <TTGlyph name="Tcaron" xMin="32" yMin="0" xMax="1335" yMax="1778">
      <component glyphName="T" x="0" y="0" flags="0x204"/>
      <component glyphName="caron" x="341" y="334" flags="0x4"/>
    </TTGlyph>
    <TTGlyph name="Theta" xMin="100" yMin="-20" xMax="1493" yMax="1356">
      <contour>
        <pt x="432" y="672" on="1"/>
        <pt x="432" y="353" on="0"/>
        <pt x="607" y="80" on="0"/>
        <pt x="797" y="80" on="1"/>
        <pt x="986" y="80" on="0"/>
        <pt x="1161" y="354" on="0"/>
        <pt x="1161" y="672" on="1"/>
        <pt x="1161" y="989" on="0"/>
        <pt x="986" y="1255" on="0"/>
        <pt x="797" y="1255" on="1"/>
        <pt x="607" y="1255" on="0"/>
        <pt x="432" y="989" on="0"/>
      </contour>
      <contour>
        <pt x="100" y="672" on="1"/>
        <pt x="100" y="1356" on="0"/>
        <pt x="797" y="1356" on="1"/>
        <pt x="1141" y="1356" on="0"/>
        <pt x="1493" y="1009" on="0"/>
        <pt x="1493" y="672" on="1"/>
        <pt x="1493" y="331" on="0"/>
        <pt x="1137" y="-20" on="0"/>
        <pt x="797" y="-20" on="1"/>
        <pt x="458" y="-20" on="0"/>
        <pt x="100" y="330" on="0"/>
      </contour>
      <contour>
        <pt x="943" y="790" on="1"/>
        <pt x="969" y="892" on="1"/>
        <pt x="1037" y="892" on="1"/>
        <pt x="1037" y="460" on="1"/>
        <pt x="969" y="460" on="1"/>
        <pt x="943" y="560" on="1"/>
        <pt x="650" y="560" on="1"/>
        <pt x="624" y="460" on="1"/>
        <pt x="556" y="460" on="1"/>
        <pt x="556" y="892" on="1"/>
        <pt x="624" y="892" on="1"/>
        <pt x="650" y="790" on="1"/>
      </contour>
    </TTGlyph>
    <TTGlyph name="Thorn" xMin="43" yMin="0" xMax="1153" yMax="1341">
      <contour>
        <pt x="530" y="100" on="1"/>
        <pt x="702" y="74" on="1"/>
        <pt x="702" y="0" on="1"/>
        <pt x="43" y="0" on="1"/>
        <pt x="43" y="74" on="1"/>
        <pt x="215" y="100" on="1"/>
        <pt x="215" y="1241" on="1"/>
        <pt x="43" y="1268" on="1"/>
        <pt x="43" y="1341" on="1"/>
        <pt x="702" y="1341" on="1"/>
        <pt x="702" y="1268" on="1"/>
        <pt x="530" y="1241" on="1"/>
        <pt x="530" y="1083" on="1"/>
        <pt x="586" y="1083" on="1"/>
        <pt x="871" y="1083" on="0"/>
        <pt x="1153" y="892" on="0"/>
        <pt x="1153" y="688" on="1"/>
        <pt x="1153" y="268" on="0"/>
        <pt x="663" y="268" on="1"/>
        <pt x="530" y="268" on="1"/>
      </contour>
      <contour>
        <pt x="831" y="686" on="1"/>
        <pt x="831" y="846" on="0"/>
        <pt x="712" y="973" on="0"/>
        <pt x="562" y="973" on="1"/>
        <pt x="530" y="973" on="1"/>
        <pt x="530" y="378" on="1"/>
        <pt x="566" y="378" on="1"/>
        <pt x="705" y="378" on="0"/>
        <pt x="831" y="518" on="0"/>
      </contour>
    </TTGlyph>
    <TTGlyph name="U" xMin="51" yMin="-19" xMax="1428" yMax="1341">
      <contour>
        <pt x="838" y="122" on="1"/>
        <pt x="988" y="122" on="0"/>
        <pt x="1152" y="290" on="0"/>
        <pt x="1152" y="453" on="1"/>
        <pt x="1152" y="1242" on="1"/>
        <pt x="972" y="1268" on="1"/>
        <pt x="972" y="1341" on="1"/>
        <pt x="1428" y="1341" on="1"/>
        <pt x="1428" y="1268" on="1"/>
        <pt x="1276" y="1242" on="1"/>
        <pt x="1276" y="461" on="1"/>
        <pt x="1276" y="229" on="0"/>
        <pt x="1008" y="-19" on="0"/>
        <pt x="759" y="-19" on="1"/>
        <pt x="490" y="-19" on="0"/>
        <pt x="203" y="232" on="0"/>
        <pt x="203" y="469" on="1"/>
        <pt x="203" y="1242" on="1"/>
        <pt x="51" y="1268" on="1"/>
        <pt x="51" y="1341" on="1"/>
        <pt x="690" y="1341" on="1"/>
        <pt x="690" y="1268" on="1"/>
        <pt x="518" y="1242" on="1"/>
        <pt x="518" y="455" on="1"/>
        <pt x="518" y="294" on="0"/>
        <pt x="681" y="122" on="0"/>
      </contour>
    </TTGlyph>
    <TTGlyph name="UNI2206" xMin="16" yMin="0" xMax="1237" yMax="1352">
      <contour>
        <pt x="1237" y="0" on="1"/>
        <pt x="16" y="0" on="1"/>
        <pt x="16" y="97" on="1"/>
        <pt x="476" y="1352" on="1"/>
        <pt x="766" y="1352" on="1"/>
        <pt x="1237" y="97" on="1"/>
      </contour>
      <contour>
        <pt x="152" y="119" on="1"/>
        <pt x="905" y="119" on="1"/>
        <pt x="521" y="1148" on="1"/>
      </contour>
    </TTGlyph>
    <TTGlyph name="Uacute" xMin="51" yMin="-19" xMax="1428" yMax="1757">
      <component glyphName="U" x="0" y="0" flags="0x204"/>
      <component glyphName="acute" x="561" y="334" flags="0x4"/>
    </TTGlyph>
    <TTGlyph name="Ubreve" xMin="51" yMin="-19" xMax="1428" yMax="1777">
      <component glyphName="U" x="0" y="0" flags="0x204"/>
      <component glyphName="breve" x="423" y="334" flags="0x4"/>
    </TTGlyph>
    <TTGlyph name="Ucircumflex" xMin="51" yMin="-19" xMax="1428" yMax="1778">
      <component glyphName="U" x="0" y="0" flags="0x204"/>
      <component glyphName="circumflex" x="460" y="334" flags="0x4"/>
    </TTGlyph>
    <TTGlyph name="Udieresis" xMin="51" yMin="-19" xMax="1428" yMax="1704">
      <component glyphName="U" x="0" y="0" flags="0x204"/>
      <component glyphName="dieresis" x="455" y="334" flags="0x4"/>
    </TTGlyph>
    <TTGlyph name="Ugrave" xMin="51" yMin="-19" xMax="1428" yMax="1757">
      <component glyphName="U" x="0" y="0" flags="0x204"/>
      <component glyphName="grave" x="397" y="334" flags="0x4"/>
    </TTGlyph>
    <TTGlyph name="Uhorn" xMin="51" yMin="-19" xMax="1612" yMax="1483">
      <contour>
        <pt x="1612" y="1306" on="1"/>
        <pt x="1612" y="1179" on="0"/>
        <pt x="1436" y="988" on="0"/>
        <pt x="1276" y="943" on="1"/>
        <pt x="1276" y="461" on="1"/>
        <pt x="1276" y="229" on="0"/>
        <pt x="1008" y="-19" on="0"/>
        <pt x="759" y="-19" on="1"/>
        <pt x="490" y="-19" on="0"/>
        <pt x="203" y="232" on="0"/>
        <pt x="203" y="469" on="1"/>
        <pt x="203" y="1242" on="1"/>
        <pt x="51" y="1268" on="1"/>
        <pt x="51" y="1341" on="1"/>
        <pt x="690" y="1341" on="1"/>
        <pt x="690" y="1268" on="1"/>
        <pt x="518" y="1242" on="1"/>
        <pt x="518" y="455" on="1"/>
        <pt x="518" y="294" on="0"/>
        <pt x="681" y="122" on="0"/>
        <pt x="838" y="122" on="1"/>
        <pt x="988" y="122" on="0"/>
        <pt x="1152" y="290" on="0"/>
        <pt x="1152" y="453" on="1"/>
        <pt x="1152" y="1242" on="1"/>
        <pt x="972" y="1268" on="1"/>
        <pt x="972" y="1341" on="1"/>
        <pt x="1276" y="1341" on="1"/>
        <pt x="1276" y="1042" on="1"/>
        <pt x="1369" y="1073" on="0"/>
        <pt x="1452" y="1149" on="0"/>
        <pt x="1452" y="1187" on="1"/>
        <pt x="1452" y="1205" on="0"/>
        <pt x="1423" y="1233" on="0"/>
        <pt x="1385" y="1254" on="1"/>
        <pt x="1317" y="1290" on="0"/>
        <pt x="1317" y="1357" on="1"/>
        <pt x="1317" y="1413" on="0"/>
        <pt x="1393" y="1483" on="0"/>
        <pt x="1453" y="1483" on="1"/>
        <pt x="1524" y="1483" on="0"/>
        <pt x="1612" y="1384" on="0"/>
      </contour>
    </TTGlyph>
    <TTGlyph name="Umacron" xMin="51" yMin="-19" xMax="1428" yMax="1605">
      <component glyphName="U" x="0" y="0" flags="0x204"/>
      <component glyphName="uni02C9" x="449" y="334" flags="0x4"/>
    </TTGlyph>
    <TTGlyph name="Uogonek" xMin="51" yMin="-430" xMax="1428" yMax="1341">
      <component glyphName="U" x="0" y="0" flags="0x204"/>
      <component glyphName="ogonek" x="560" y="0" flags="0x4"/>
    </TTGlyph>
    <TTGlyph name="Upsilon" xMin="36" yMin="0" xMax="1440" yMax="1341">
      <component glyphName="Y" x="0" y="0" flags="0x204"/>
    </TTGlyph>
    <TTGlyph name="Upsilondieresis" xMin="36" yMin="0" xMax="1440" yMax="1704">
      <component glyphName="Y" x="0" y="0" flags="0x204"/>
      <component glyphName="dieresis" x="466" y="334" flags="0x4"/>
    </TTGlyph>
    <TTGlyph name="Upsilontonos" xMin="-61" yMin="0" xMax="1732" yMax="1342">
      <component glyphName="Y" x="292" y="0" flags="0x4"/>
      <component glyphName="tonos" x="-309" y="-180" flags="0x4"/>
    </TTGlyph>
    <TTGlyph name="Uring" xMin="51" yMin="-19" xMax="1428" yMax="1817">
      <component glyphName="U" x="0" y="0" flags="0x204"/>
      <component glyphName="ring" x="463" y="334" flags="0x4"/>
    </TTGlyph>
    <TTGlyph name="Utilde" xMin="51" yMin="-19" xMax="1428" yMax="1759">
      <component glyphName="U" x="0" y="0" flags="0x204"/>
      <component glyphName="tilde" x="440" y="334" flags="0x4"/>
    </TTGlyph>
    <TTGlyph name="V" xMin="23" yMin="-31" xMax="1456" yMax="1341">
      <contour>
        <pt x="1456" y="1341" on="1"/>
        <pt x="1456" y="1268" on="1"/>
        <pt x="1329" y="1241" on="1"/>
        <pt x="811" y="-31" on="1"/>
        <pt x="678" y="-31" on="1"/>
        <pt x="133" y="1241" on="1"/>
        <pt x="23" y="1268" on="1"/>
        <pt x="23" y="1341" on="1"/>
        <pt x="606" y="1341" on="1"/>
        <pt x="606" y="1268" on="1"/>
        <pt x="467" y="1241" on="1"/>
        <pt x="844" y="362" on="1"/>
        <pt x="1196" y="1241" on="1"/>
        <pt x="1061" y="1268" on="1"/>
        <pt x="1061" y="1341" on="1"/>
      </contour>
    </TTGlyph>
    <TTGlyph name="W" xMin="29" yMin="-31" xMax="2016" yMax="1341">
      <contour>
        <pt x="1501" y="-31" on="1"/>
        <pt x="1378" y="-31" on="1"/>
        <pt x="1044" y="796" on="1"/>
        <pt x="713" y="-31" on="1"/>
        <pt x="590" y="-31" on="1"/>
        <pt x="146" y="1242" on="1"/>
        <pt x="29" y="1268" on="1"/>
        <pt x="29" y="1341" on="1"/>
        <pt x="631" y="1341" on="1"/>
        <pt x="631" y="1268" on="1"/>
        <pt x="474" y="1242" on="1"/>
        <pt x="760" y="443" on="1"/>
        <pt x="1074" y="1227" on="1"/>
        <pt x="1199" y="1227" on="1"/>
        <pt x="1514" y="445" on="1"/>
        <pt x="1751" y="1242" on="1"/>
        <pt x="1582" y="1268" on="1"/>
        <pt x="1582" y="1341" on="1"/>
        <pt x="2016" y="1341" on="1"/>
        <pt x="2016" y="1268" on="1"/>
        <pt x="1899" y="1242" on="1"/>
      </contour>
    </TTGlyph>
    <TTGlyph name="Wacute" xMin="29" yMin="-31" xMax="2016" yMax="1757">
      <component glyphName="W" x="0" y="0" flags="0x204"/>
      <component glyphName="acute" x="847" y="334" flags="0x4"/>
    </TTGlyph>
    <TTGlyph name="Wcircumflex" xMin="29" yMin="-31" xMax="2016" yMax="1778">
      <component glyphName="W" x="0" y="0" flags="0x204"/>
      <component glyphName="circumflex" x="763" y="334" flags="0x4"/>
    </TTGlyph>
    <TTGlyph name="Wdieresis" xMin="29" yMin="-31" xMax="2016" yMax="1704">
      <component glyphName="W" x="0" y="0" flags="0x204"/>
      <component glyphName="dieresis" x="759" y="334" flags="0x4"/>
    </TTGlyph>
    <TTGlyph name="Wgrave" xMin="29" yMin="-31" xMax="2016" yMax="1757">
      <component glyphName="W" x="0" y="0" flags="0x204"/>
      <component glyphName="grave" x="683" y="334" flags="0x4"/>
    </TTGlyph>
    <TTGlyph name="X" xMin="38" yMin="0" xMax="1455" yMax="1341">
      <contour>
        <pt x="330" y="100" on="1"/>
        <pt x="496" y="73" on="1"/>
        <pt x="496" y="0" on="1"/>
        <pt x="38" y="0" on="1"/>
        <pt x="38" y="73" on="1"/>
        <pt x="186" y="100" on="1"/>
        <pt x="617" y="648" on="1"/>
        <pt x="233" y="1242" on="1"/>
        <pt x="82" y="1268" on="1"/>
        <pt x="82" y="1341" on="1"/>
        <pt x="735" y="1341" on="1"/>
        <pt x="735" y="1268" on="1"/>
        <pt x="565" y="1242" on="1"/>
        <pt x="799" y="880" on="1"/>
        <pt x="1084" y="1242" on="1"/>
        <pt x="918" y="1268" on="1"/>
        <pt x="918" y="1341" on="1"/>
        <pt x="1377" y="1341" on="1"/>
        <pt x="1377" y="1268" on="1"/>
        <pt x="1229" y="1242" on="1"/>
        <pt x="864" y="779" on="1"/>
        <pt x="1303" y="100" on="1"/>
        <pt x="1455" y="73" on="1"/>
        <pt x="1455" y="0" on="1"/>
        <pt x="802" y="0" on="1"/>
        <pt x="802" y="73" on="1"/>
        <pt x="972" y="100" on="1"/>
        <pt x="682" y="547" on="1"/>
      </contour>
    </TTGlyph>
    <TTGlyph name="Xi" xMin="97" yMin="0" xMax="1290" yMax="1341">
      <contour>
        <pt x="912" y="790" on="1"/>
        <pt x="938" y="892" on="1"/>
        <pt x="1006" y="892" on="1"/>
        <pt x="1006" y="460" on="1"/>
        <pt x="938" y="460" on="1"/>
        <pt x="912" y="560" on="1"/>
        <pt x="475" y="560" on="1"/>
        <pt x="449" y="460" on="1"/>
        <pt x="381" y="460" on="1"/>
        <pt x="381" y="892" on="1"/>
        <pt x="449" y="892" on="1"/>
        <pt x="475" y="790" on="1"/>
      </contour>
      <contour>
        <pt x="549" y="1098" on="1"/>
        <pt x="374" y="1098" on="0"/>
        <pt x="265" y="1084" on="1"/>
        <pt x="229" y="920" on="1"/>
        <pt x="146" y="920" on="1"/>
        <pt x="166" y="1341" on="1"/>
        <pt x="1221" y="1341" on="1"/>
        <pt x="1241" y="920" on="1"/>
        <pt x="1158" y="920" on="1"/>
        <pt x="1122" y="1084" on="1"/>
        <pt x="1010" y="1098" on="0"/>
        <pt x="838" y="1098" on="1"/>
      </contour>
      <contour>
        <pt x="853" y="263" on="1"/>
        <pt x="1088" y="263" on="0"/>
        <pt x="1171" y="279" on="1"/>
        <pt x="1207" y="464" on="1"/>
        <pt x="1290" y="464" on="1"/>
        <pt x="1271" y="0" on="1"/>
        <pt x="116" y="0" on="1"/>
        <pt x="97" y="464" on="1"/>
        <pt x="180" y="464" on="1"/>
        <pt x="216" y="279" on="1"/>
        <pt x="299" y="263" on="0"/>
        <pt x="524" y="263" on="1"/>
      </contour>
    </TTGlyph>
    <TTGlyph name="Y" xMin="36" yMin="0" xMax="1440" yMax="1341">
      <contour>
        <pt x="911" y="528" on="1"/>
        <pt x="911" y="100" on="1"/>
        <pt x="1124" y="73" on="1"/>
        <pt x="1124" y="0" on="1"/>
        <pt x="382" y="0" on="1"/>
        <pt x="382" y="73" on="1"/>
        <pt x="595" y="100" on="1"/>
        <pt x="595" y="522" on="1"/>
        <pt x="187" y="1242" on="1"/>
        <pt x="36" y="1268" on="1"/>
        <pt x="36" y="1341" on="1"/>
        <pt x="726" y="1341" on="1"/>
        <pt x="726" y="1268" on="1"/>
        <pt x="546" y="1242" on="1"/>
        <pt x="852" y="680" on="1"/>
        <pt x="1148" y="1242" on="1"/>
        <pt x="984" y="1268" on="1"/>
        <pt x="984" y="1341" on="1"/>
        <pt x="1440" y="1341" on="1"/>
        <pt x="1440" y="1268" on="1"/>
        <pt x="1298" y="1242" on="1"/>
      </contour>
    </TTGlyph>
    <TTGlyph name="Yacute" xMin="36" yMin="0" xMax="1440" yMax="1757">
      <component glyphName="Y" x="0" y="0" flags="0x204"/>
      <component glyphName="acute" x="498" y="334" flags="0x4"/>
    </TTGlyph>
    <TTGlyph name="Ycircumflex" xMin="36" yMin="0" xMax="1440" yMax="1778">
      <component glyphName="Y" x="0" y="0" flags="0x204"/>
      <component glyphName="circumflex" x="409" y="334" flags="0x4"/>
    </TTGlyph>
    <TTGlyph name="Ydieresis" xMin="36" yMin="0" xMax="1440" yMax="1704">
      <component glyphName="Y" x="0" y="0" flags="0x204"/>
      <component glyphName="dieresis" x="440" y="334" flags="0x4"/>
    </TTGlyph>
    <TTGlyph name="Ygrave" xMin="36" yMin="0" xMax="1440" yMax="1757">
      <component glyphName="Y" x="0" y="0" flags="0x204"/>
      <component glyphName="grave" x="366" y="334" flags="0x4"/>
    </TTGlyph>
    <TTGlyph name="Z" xMin="98" yMin="0" xMax="1262" yMax="1341">
      <contour>
        <pt x="98" y="114" on="1"/>
        <pt x="840" y="1235" on="1"/>
        <pt x="600" y="1235" on="1"/>
        <pt x="373" y="1235" on="0"/>
        <pt x="280" y="1215" on="1"/>
        <pt x="249" y="1004" on="1"/>
        <pt x="160" y="1004" on="1"/>
        <pt x="160" y="1341" on="1"/>
        <pt x="1196" y="1341" on="1"/>
        <pt x="1196" y="1235" on="1"/>
        <pt x="449" y="104" on="1"/>
        <pt x="729" y="104" on="1"/>
        <pt x="843" y="104" on="0"/>
        <pt x="1064" y="126" on="0"/>
        <pt x="1113" y="137" on="1"/>
        <pt x="1172" y="393" on="1"/>
        <pt x="1262" y="393" on="1"/>
        <pt x="1235" y="0" on="1"/>
        <pt x="98" y="0" on="1"/>
      </contour>
    </TTGlyph>
    <TTGlyph name="Zacute" xMin="98" yMin="0" xMax="1262" yMax="1757">
      <component glyphName="Z" x="0" y="0" flags="0x204"/>
      <component glyphName="acute" x="388" y="334" flags="0x4"/>
    </TTGlyph>
    <TTGlyph name="Zcaron" xMin="98" yMin="0" xMax="1262" yMax="1778">
      <component glyphName="Z" x="0" y="0" flags="0x204"/>
      <component glyphName="caron" x="349" y="334" flags="0x4"/>
    </TTGlyph>
    <TTGlyph name="Zeta" xMin="98" yMin="0" xMax="1262" yMax="1341">
      <component glyphName="Z" x="0" y="0" flags="0x204"/>
    </TTGlyph>
    <TTGlyph name="a" xMin="66" yMin="-20" xMax="993" yMax="961">
      <contour>
        <pt x="546" y="961" on="1"/>
        <pt x="899" y="961" on="0"/>
        <pt x="899" y="701" on="1"/>
        <pt x="899" y="90" on="1"/>
        <pt x="993" y="66" on="1"/>
        <pt x="993" y="0" on="1"/>
        <pt x="647" y="0" on="1"/>
        <pt x="625" y="72" on="1"/>
        <pt x="547" y="19" on="0"/>
        <pt x="421" y="-20" on="0"/>
        <pt x="357" y="-20" on="1"/>
        <pt x="66" y="-20" on="0"/>
        <pt x="66" y="260" on="1"/>
        <pt x="66" y="366" on="0"/>
        <pt x="152" y="493" on="0"/>
        <pt x="314" y="554" on="0"/>
        <pt x="488" y="558" on="1"/>
        <pt x="610" y="561" on="1"/>
        <pt x="610" y="698" on="1"/>
        <pt x="610" y="868" on="0"/>
        <pt x="471" y="868" on="1"/>
        <pt x="387" y="868" on="0"/>
        <pt x="283" y="816" on="1"/>
        <pt x="245" y="699" on="1"/>
        <pt x="179" y="699" on="1"/>
        <pt x="179" y="926" on="1"/>
        <pt x="330" y="949" on="0"/>
        <pt x="472" y="961" on="0"/>
      </contour>
      <contour>
        <pt x="610" y="472" on="1"/>
        <pt x="526" y="469" on="1"/>
        <pt x="429" y="465" on="0"/>
        <pt x="354" y="371" on="0"/>
        <pt x="354" y="266" on="1"/>
        <pt x="354" y="181" on="0"/>
        <pt x="414" y="101" on="0"/>
        <pt x="462" y="101" on="1"/>
        <pt x="530" y="101" on="0"/>
        <pt x="610" y="136" on="1"/>
      </contour>
    </TTGlyph>
    <TTGlyph name="aacute" xMin="66" yMin="-20" xMax="993" yMax="1423">
      <component glyphName="a" x="0" y="0" flags="0x204"/>
      <component glyphName="acute" x="218" y="0" flags="0x4"/>
    </TTGlyph>
    <TTGlyph name="abreve" xMin="66" yMin="-20" xMax="993" yMax="1443">
      <component glyphName="a" x="0" y="0" flags="0x204"/>
      <component glyphName="breve" x="172" y="0" flags="0x4"/>
    </TTGlyph>
    <TTGlyph name="acircumflex" xMin="66" yMin="-20" xMax="993" yMax="1444">
      <component glyphName="a" x="0" y="0" flags="0x204"/>
      <component glyphName="circumflex" x="168" y="0" flags="0x4"/>
    </TTGlyph>
    <TTGlyph name="acute" xMin="145" yMin="1118" xMax="596" yMax="1423">
      <contour>
        <pt x="145" y="1118" on="1"/>
        <pt x="145" y="1151" on="1"/>
        <pt x="311" y="1423" on="1"/>
        <pt x="596" y="1423" on="1"/>
        <pt x="596" y="1386" on="1"/>
        <pt x="231" y="1118" on="1"/>
      </contour>
    </TTGlyph>
    <TTGlyph name="acute.alt1" xMin="145" yMin="1118" xMax="596" yMax="1423">
      <component glyphName="acute" x="0" y="0" flags="0x4"/>
    </TTGlyph>
    <TTGlyph name="acute.alt2" xMin="145" yMin="1118" xMax="596" yMax="1423">
      <component glyphName="acute" x="0" y="0" flags="0x4"/>
    </TTGlyph>
    <TTGlyph name="acute.alt3" xMin="145" yMin="1118" xMax="596" yMax="1423">
      <component glyphName="acute" x="0" y="0" flags="0x4"/>
    </TTGlyph>
    <TTGlyph name="acute.alt4" xMin="145" yMin="1118" xMax="596" yMax="1423">
      <component glyphName="acute" x="0" y="0" flags="0x4"/>
    </TTGlyph>
    <TTGlyph name="acute.alt5" xMin="145" yMin="1118" xMax="596" yMax="1423">
      <component glyphName="acute" x="0" y="0" flags="0x4"/>
    </TTGlyph>
    <TTGlyph name="acutecomb" xMin="-461" yMin="1520" xMax="-10" yMax="1825">
      <contour>
        <pt x="-461" y="1520" on="1"/>
        <pt x="-461" y="1553" on="1"/>
        <pt x="-295" y="1825" on="1"/>
        <pt x="-10" y="1825" on="1"/>
        <pt x="-10" y="1788" on="1"/>
        <pt x="-375" y="1520" on="1"/>
      </contour>
    </TTGlyph>
    <TTGlyph name="adieresis" xMin="66" yMin="-20" xMax="993" yMax="1370">
      <component glyphName="a" x="0" y="0" flags="0x204"/>
      <component glyphName="dieresis" x="172" y="0" flags="0x4"/>
    </TTGlyph>
    <TTGlyph name="ae" xMin="66" yMin="-20" xMax="1401" yMax="965">
      <contour>
        <pt x="988" y="965" on="1"/>
        <pt x="1193" y="965" on="0"/>
        <pt x="1401" y="752" on="0"/>
        <pt x="1401" y="544" on="1"/>
        <pt x="1401" y="462" on="1"/>
        <pt x="878" y="462" on="1"/>
        <pt x="878" y="409" on="1"/>
        <pt x="880" y="293" on="0"/>
        <pt x="936" y="171" on="0"/>
        <pt x="1052" y="105" on="0"/>
        <pt x="1149" y="105" on="1"/>
        <pt x="1195" y="105" on="0"/>
        <pt x="1320" y="123" on="0"/>
        <pt x="1360" y="134" on="1"/>
        <pt x="1360" y="57" on="1"/>
        <pt x="1308" y="23" on="0"/>
        <pt x="1148" y="-19" on="0"/>
        <pt x="1070" y="-19" on="1"/>
        <pt x="934" y="-19" on="0"/>
        <pt x="763" y="44" on="0"/>
        <pt x="710" y="105" on="1"/>
        <pt x="552" y="-20" on="0"/>
        <pt x="355" y="-20" on="1"/>
        <pt x="211" y="-20" on="0"/>
        <pt x="66" y="117" on="0"/>
        <pt x="66" y="260" on="1"/>
        <pt x="66" y="335" on="0"/>
        <pt x="114" y="443" on="0"/>
        <pt x="207" y="514" on="0"/>
        <pt x="361" y="553" on="0"/>
        <pt x="503" y="558" on="1"/>
        <pt x="602" y="561" on="1"/>
        <pt x="602" y="696" on="1"/>
        <pt x="602" y="785" on="0"/>
        <pt x="534" y="868" on="0"/>
        <pt x="463" y="868" on="1"/>
        <pt x="371" y="868" on="0"/>
        <pt x="283" y="817" on="1"/>
        <pt x="244" y="699" on="1"/>
        <pt x="179" y="699" on="1"/>
        <pt x="179" y="925" on="1"/>
        <pt x="354" y="961" on="0"/>
        <pt x="514" y="961" on="1"/>
        <pt x="672" y="961" on="0"/>
        <pt x="746" y="891" on="1"/>
        <pt x="839" y="965" on="0"/>
      </contour>
      <contour>
        <pt x="466" y="101" on="1"/>
        <pt x="522" y="101" on="0"/>
        <pt x="616" y="138" on="0"/>
        <pt x="661" y="164" on="1"/>
        <pt x="635" y="196" on="0"/>
        <pt x="602" y="337" on="0"/>
        <pt x="602" y="420" on="1"/>
        <pt x="602" y="472" on="1"/>
        <pt x="528" y="469" on="1"/>
        <pt x="457" y="465" on="0"/>
        <pt x="388" y="425" on="0"/>
        <pt x="354" y="339" on="0"/>
        <pt x="354" y="266" on="1"/>
        <pt x="354" y="181" on="0"/>
        <pt x="418" y="101" on="0"/>
      </contour>
      <contour>
        <pt x="1004" y="862" on="1"/>
        <pt x="940" y="862" on="0"/>
        <pt x="879" y="731" on="0"/>
        <pt x="879" y="567" on="1"/>
        <pt x="1107" y="567" on="1"/>
        <pt x="1107" y="734" on="0"/>
        <pt x="1060" y="862" on="0"/>
      </contour>
    </TTGlyph>
    <TTGlyph name="aeacute" xMin="66" yMin="-20" xMax="1401" yMax="1423">
      <component glyphName="ae" x="0" y="0" flags="0x204"/>
      <component glyphName="acute" x="458" y="0" flags="0x4"/>
    </TTGlyph>
    <TTGlyph name="agrave" xMin="66" yMin="-20" xMax="993" yMax="1423">
      <component glyphName="a" x="0" y="0" flags="0x204"/>
      <component glyphName="grave" x="170" y="0" flags="0x4"/>
    </TTGlyph>
    <TTGlyph name="alef" xMin="94" yMin="-27" xMax="1251" yMax="1212">
      <contour>
        <pt x="1251" y="1008" on="1"/>
        <pt x="1251" y="973" on="0"/>
        <pt x="1236" y="883" on="0"/>
        <pt x="1225" y="868" on="1"/>
        <pt x="1205" y="888" on="0"/>
        <pt x="1181" y="901" on="0"/>
        <pt x="1167" y="901" on="1"/>
        <pt x="1121" y="901" on="0"/>
        <pt x="899" y="728" on="0"/>
        <pt x="846" y="602" on="1"/>
        <pt x="1116" y="348" on="1"/>
        <pt x="1182" y="284" on="0"/>
        <pt x="1219" y="220" on="0"/>
        <pt x="1219" y="186" on="1"/>
        <pt x="1219" y="157" on="0"/>
        <pt x="1153" y="48" on="0"/>
        <pt x="1077" y="-27" on="0"/>
        <pt x="1055" y="-27" on="1"/>
        <pt x="1034" y="-27" on="0"/>
        <pt x="1022" y="-6" on="1"/>
        <pt x="1012" y="19" on="0"/>
        <pt x="949" y="107" on="0"/>
        <pt x="909" y="147" on="1"/>
        <pt x="393" y="700" on="1"/>
        <pt x="336" y="654" on="0"/>
        <pt x="289" y="580" on="0"/>
        <pt x="289" y="526" on="1"/>
        <pt x="289" y="475" on="0"/>
        <pt x="344" y="371" on="0"/>
        <pt x="408" y="302" on="1"/>
        <pt x="472" y="232" on="0"/>
        <pt x="526" y="136" on="0"/>
        <pt x="526" y="92" on="1"/>
        <pt x="526" y="41" on="0"/>
        <pt x="496" y="0" on="1"/>
        <pt x="94" y="0" on="1"/>
        <pt x="94" y="84" on="1"/>
        <pt x="201" y="84" on="1"/>
        <pt x="242" y="84" on="0"/>
        <pt x="242" y="131" on="1"/>
        <pt x="242" y="156" on="0"/>
        <pt x="205" y="218" on="0"/>
        <pt x="160" y="298" on="0"/>
        <pt x="123" y="400" on="0"/>
        <pt x="123" y="465" on="1"/>
        <pt x="123" y="545" on="0"/>
        <pt x="213" y="679" on="0"/>
        <pt x="305" y="743" on="1"/>
        <pt x="334" y="764" on="1"/>
        <pt x="205" y="893" on="1"/>
        <pt x="173" y="925" on="0"/>
        <pt x="141" y="975" on="0"/>
        <pt x="141" y="1004" on="1"/>
        <pt x="141" y="1039" on="0"/>
        <pt x="198" y="1134" on="0"/>
        <pt x="281" y="1212" on="0"/>
        <pt x="301" y="1212" on="1"/>
        <pt x="319" y="1212" on="0"/>
        <pt x="334" y="1192" on="1"/>
        <pt x="362" y="1147" on="0"/>
        <pt x="455" y="1029" on="0"/>
        <pt x="496" y="985" on="1"/>
        <pt x="764" y="694" on="1"/>
        <pt x="861" y="828" on="0"/>
        <pt x="1006" y="905" on="1"/>
        <pt x="954" y="906" on="0"/>
        <pt x="897" y="994" on="0"/>
        <pt x="897" y="1077" on="1"/>
        <pt x="897" y="1128" on="0"/>
        <pt x="946" y="1204" on="0"/>
        <pt x="975" y="1204" on="1"/>
        <pt x="981" y="1204" on="0"/>
        <pt x="983" y="1193" on="0"/>
        <pt x="983" y="1176" on="1"/>
        <pt x="983" y="1130" on="0"/>
        <pt x="1044" y="1130" on="1"/>
        <pt x="1137" y="1133" on="1"/>
        <pt x="1191" y="1133" on="0"/>
        <pt x="1251" y="1065" on="0"/>
      </contour>
    </TTGlyph>
    <TTGlyph name="alefdagesh" xMin="94" yMin="-27" xMax="1251" yMax="1212">
      <component glyphName="alef" x="0" y="0" flags="0x204"/>
      <component glyphName="dagesh" x="680" y="-552" flags="0x4"/>
    </TTGlyph>
    <TTGlyph name="aleflamed" xMin="-20" yMin="-27" xMax="1251" yMax="1681">
      <contour>
        <pt x="33" y="1153" on="1"/>
        <pt x="33" y="1236" on="0"/>
        <pt x="70" y="1316" on="1"/>
        <pt x="80" y="1337" on="0"/>
        <pt x="80" y="1362" on="1"/>
        <pt x="80" y="1393" on="0"/>
        <pt x="33" y="1411" on="1"/>
        <pt x="5" y="1421" on="0"/>
        <pt x="-20" y="1480" on="0"/>
        <pt x="-20" y="1546" on="1"/>
        <pt x="-20" y="1579" on="0"/>
        <pt x="6" y="1638" on="0"/>
        <pt x="50" y="1681" on="0"/>
        <pt x="63" y="1681" on="1"/>
        <pt x="86" y="1681" on="0"/>
        <pt x="86" y="1661" on="1"/>
        <pt x="86" y="1649" on="0"/>
        <pt x="104" y="1628" on="0"/>
        <pt x="141" y="1620" on="1"/>
        <pt x="228" y="1600" on="0"/>
        <pt x="270" y="1572" on="0"/>
        <pt x="270" y="1544" on="1"/>
        <pt x="270" y="1524" on="0"/>
        <pt x="229" y="1463" on="0"/>
        <pt x="180" y="1382" on="0"/>
        <pt x="139" y="1284" on="0"/>
        <pt x="139" y="1227" on="1"/>
        <pt x="139" y="1170" on="0"/>
        <pt x="178" y="1135" on="0"/>
        <pt x="231" y="1135" on="1"/>
        <pt x="356" y="1135" on="1"/>
        <pt x="391" y="1135" on="0"/>
        <pt x="422" y="1113" on="0"/>
        <pt x="432" y="1083" on="1"/>
        <pt x="476" y="980" on="0"/>
        <pt x="573" y="877" on="1"/>
        <pt x="754" y="684" on="1"/>
        <pt x="858" y="827" on="0"/>
        <pt x="1006" y="905" on="1"/>
        <pt x="954" y="906" on="0"/>
        <pt x="897" y="994" on="0"/>
        <pt x="897" y="1077" on="1"/>
        <pt x="897" y="1128" on="0"/>
        <pt x="946" y="1204" on="0"/>
        <pt x="975" y="1204" on="1"/>
        <pt x="981" y="1204" on="0"/>
        <pt x="983" y="1193" on="0"/>
        <pt x="983" y="1176" on="1"/>
        <pt x="983" y="1130" on="0"/>
        <pt x="1044" y="1130" on="1"/>
        <pt x="1137" y="1133" on="1"/>
        <pt x="1191" y="1133" on="0"/>
        <pt x="1251" y="1065" on="0"/>
        <pt x="1251" y="1008" on="1"/>
        <pt x="1251" y="973" on="0"/>
        <pt x="1236" y="883" on="0"/>
        <pt x="1225" y="868" on="1"/>
        <pt x="1205" y="888" on="0"/>
        <pt x="1181" y="901" on="0"/>
        <pt x="1167" y="901" on="1"/>
        <pt x="1133" y="901" on="0"/>
        <pt x="977" y="793" on="0"/>
        <pt x="871" y="674" on="0"/>
        <pt x="836" y="592" on="1"/>
        <pt x="1106" y="338" on="1"/>
        <pt x="1165" y="281" on="0"/>
        <pt x="1208" y="214" on="0"/>
        <pt x="1208" y="176" on="1"/>
        <pt x="1208" y="152" on="0"/>
        <pt x="1158" y="57" on="0"/>
        <pt x="1079" y="-27" on="0"/>
        <pt x="1055" y="-27" on="1"/>
        <pt x="1034" y="-27" on="0"/>
        <pt x="1022" y="-6" on="1"/>
        <pt x="1012" y="19" on="0"/>
        <pt x="949" y="107" on="0"/>
        <pt x="909" y="147" on="1"/>
        <pt x="264" y="829" on="1"/>
        <pt x="231" y="862" on="0"/>
        <pt x="188" y="879" on="0"/>
        <pt x="147" y="879" on="1"/>
        <pt x="94" y="879" on="0"/>
        <pt x="52" y="926" on="0"/>
        <pt x="33" y="1037" on="0"/>
      </contour>
    </TTGlyph>
    <TTGlyph name="aleflamedhatafsegol" xMin="-20" yMin="-449" xMax="1251" yMax="1681">
      <component glyphName="aleflamed" x="0" y="0" flags="0x204"/>
      <component glyphName="hatafsegol" x="602" y="0" flags="0x4"/>
    </TTGlyph>
    <TTGlyph name="aleflamedsegol" xMin="-20" yMin="-434" xMax="1251" yMax="1681">
      <component glyphName="aleflamed" x="0" y="0" flags="0x204"/>
      <component glyphName="segol" x="643" y="0" flags="0x4"/>
    </TTGlyph>
    <TTGlyph name="aleflamedtsere" xMin="-20" yMin="-350" xMax="1251" yMax="1681">
      <component glyphName="aleflamed" x="0" y="0" flags="0x204"/>
      <component glyphName="tsere" x="643" y="12" flags="0x4"/>
    </TTGlyph>
    <TTGlyph name="alefmapiq" xMin="94" yMin="-27" xMax="1251" yMax="1212">
      <component glyphName="alef" x="0" y="0" flags="0x204"/>
      <component glyphName="dagesh" x="680" y="-552" flags="0x4"/>
    </TTGlyph>
    <TTGlyph name="alefpatah" xMin="94" yMin="-264" xMax="1251" yMax="1212">
      <component glyphName="alef" x="0" y="0" flags="0x204"/>
      <component glyphName="patah" x="696" y="0" flags="0x4"/>
    </TTGlyph>
    <TTGlyph name="alefqamats" xMin="94" yMin="-381" xMax="1251" yMax="1212">
      <component glyphName="alef" x="0" y="0" flags="0x204"/>
      <component glyphName="qamats" x="696" y="0" flags="0x4"/>
    </TTGlyph>
    <TTGlyph name="alefwide" xMin="94" yMin="-27" xMax="1251" yMax="1212">
      <component glyphName="alef" x="0" y="0" flags="0x204"/>
    </TTGlyph>
    <TTGlyph name="alpha" xMin="75" yMin="-20" xMax="1122" yMax="965">
      <contour>
        <pt x="428" y="-20" on="1"/>
        <pt x="263" y="-20" on="0"/>
        <pt x="75" y="231" on="0"/>
        <pt x="75" y="453" on="1"/>
        <pt x="75" y="695" on="0"/>
        <pt x="303" y="965" on="0"/>
        <pt x="494" y="965" on="1"/>
        <pt x="700" y="965" on="0"/>
        <pt x="787" y="745" on="1"/>
        <pt x="793" y="745" on="1"/>
        <pt x="839" y="940" on="1"/>
        <pt x="1122" y="940" on="1"/>
        <pt x="1122" y="900" on="1"/>
        <pt x="1050" y="784" on="0"/>
        <pt x="964" y="483" on="1"/>
        <pt x="991" y="331" on="0"/>
        <pt x="1038" y="164" on="0"/>
        <pt x="1071" y="90" on="1"/>
        <pt x="1119" y="75" on="1"/>
        <pt x="1119" y="0" on="1"/>
        <pt x="801" y="0" on="1"/>
        <pt x="770" y="82" on="0"/>
        <pt x="747" y="219" on="1"/>
        <pt x="741" y="219" on="1"/>
        <pt x="670" y="90" on="0"/>
        <pt x="523" y="-20" on="0"/>
      </contour>
      <contour>
        <pt x="527" y="849" on="1"/>
        <pt x="446" y="849" on="0"/>
        <pt x="369" y="660" on="0"/>
        <pt x="369" y="460" on="1"/>
        <pt x="369" y="303" on="0"/>
        <pt x="434" y="124" on="0"/>
        <pt x="495" y="124" on="1"/>
        <pt x="563" y="124" on="0"/>
        <pt x="684" y="300" on="0"/>
        <pt x="729" y="474" on="1"/>
        <pt x="711" y="657" on="0"/>
        <pt x="608" y="849" on="0"/>
      </contour>
    </TTGlyph>
    <TTGlyph name="alphatonos" xMin="75" yMin="-20" xMax="1122" yMax="1522">
      <component glyphName="alpha" x="0" y="0" flags="0x204"/>
      <component glyphName="tonos" x="220" y="0" flags="0x4"/>
    </TTGlyph>
    <TTGlyph name="alt_plussign" xMin="90" yMin="498" xMax="1063" yMax="1128">
      <contour>
        <pt x="1063" y="498" on="1"/>
        <pt x="90" y="498" on="1"/>
        <pt x="90" y="717" on="1"/>
        <pt x="465" y="717" on="1"/>
        <pt x="465" y="1128" on="1"/>
        <pt x="684" y="1128" on="1"/>
        <pt x="684" y="717" on="1"/>
        <pt x="1063" y="717" on="1"/>
      </contour>
    </TTGlyph>
    <TTGlyph name="alternativeayin" xMin="51" yMin="0" xMax="1038" yMax="1206">
      <component glyphName="ayin" x="0" y="0" flags="0x204"/>
    </TTGlyph>
    <TTGlyph name="alternativelamed" xMin="-20" yMin="-29" xMax="854" yMax="1681">
      <component glyphName="lamed" x="0" y="0" flags="0x204"/>
    </TTGlyph>
    <TTGlyph name="amacron" xMin="66" yMin="-20" xMax="993" yMax="1271">
      <component glyphName="a" x="0" y="0" flags="0x204"/>
      <component glyphName="uni02C9" x="171" y="0" flags="0x4"/>
    </TTGlyph>
    <TTGlyph name="ampersand" xMin="118" yMin="-20" xMax="1606" yMax="1362">
      <contour>
        <pt x="1043" y="1073" on="1"/>
        <pt x="1043" y="997" on="0"/>
        <pt x="983" y="885" on="0"/>
        <pt x="870" y="800" on="0"/>
        <pt x="752" y="753" on="1"/>
        <pt x="1132" y="410" on="1"/>
        <pt x="1183" y="541" on="0"/>
        <pt x="1191" y="717" on="1"/>
        <pt x="1080" y="743" on="1"/>
        <pt x="1080" y="807" on="1"/>
        <pt x="1557" y="807" on="1"/>
        <pt x="1557" y="743" on="1"/>
        <pt x="1447" y="717" on="1"/>
        <pt x="1420" y="626" on="1"/>
        <pt x="1359" y="420" on="0"/>
        <pt x="1270" y="286" on="1"/>
        <pt x="1490" y="88" on="1"/>
        <pt x="1606" y="63" on="1"/>
        <pt x="1606" y="0" on="1"/>
        <pt x="1222" y="0" on="1"/>
        <pt x="1103" y="110" on="1"/>
        <pt x="927" y="-20" on="0"/>
        <pt x="660" y="-20" on="1"/>
        <pt x="385" y="-20" on="0"/>
        <pt x="118" y="168" on="0"/>
        <pt x="118" y="356" on="1"/>
        <pt x="118" y="452" on="0"/>
        <pt x="188" y="595" on="0"/>
        <pt x="311" y="698" on="0"/>
        <pt x="430" y="745" on="1"/>
        <pt x="304" y="890" on="0"/>
        <pt x="304" y="1067" on="1"/>
        <pt x="304" y="1206" on="0"/>
        <pt x="500" y="1362" on="0"/>
        <pt x="681" y="1362" on="1"/>
        <pt x="856" y="1362" on="0"/>
        <pt x="1043" y="1214" on="0"/>
      </contour>
      <contour>
        <pt x="660" y="86" on="1"/>
        <pt x="868" y="86" on="0"/>
        <pt x="999" y="206" on="1"/>
        <pt x="522" y="650" on="1"/>
        <pt x="454" y="604" on="0"/>
        <pt x="394" y="466" on="0"/>
        <pt x="394" y="367" on="1"/>
        <pt x="394" y="224" on="0"/>
        <pt x="536" y="86" on="0"/>
      </contour>
      <contour>
        <pt x="554" y="1089" on="1"/>
        <pt x="554" y="1025" on="0"/>
        <pt x="597" y="914" on="0"/>
        <pt x="661" y="844" on="1"/>
        <pt x="737" y="885" on="0"/>
        <pt x="793" y="995" on="0"/>
        <pt x="793" y="1089" on="1"/>
        <pt x="793" y="1262" on="0"/>
        <pt x="681" y="1262" on="1"/>
        <pt x="613" y="1262" on="0"/>
        <pt x="554" y="1175" on="0"/>
      </contour>
    </TTGlyph>
    <TTGlyph name="anoteleia" xMin="175" yMin="511" xMax="507" yMax="843">
      <contour>
        <pt x="341" y="511" on="1"/>
        <pt x="272" y="511" on="0"/>
        <pt x="175" y="607" on="0"/>
        <pt x="175" y="677" on="1"/>
        <pt x="175" y="746" on="0"/>
        <pt x="271" y="843" on="0"/>
        <pt x="341" y="843" on="1"/>
        <pt x="410" y="843" on="0"/>
        <pt x="507" y="747" on="0"/>
        <pt x="507" y="677" on="1"/>
        <pt x="507" y="608" on="0"/>
        <pt x="411" y="511" on="0"/>
      </contour>
    </TTGlyph>
    <TTGlyph name="aogonek" xMin="66" yMin="-430" xMax="993" yMax="961">
      <component glyphName="a" x="0" y="0" flags="0x204"/>
      <component glyphName="ogonek" x="423" y="0" flags="0x4"/>
    </TTGlyph>
    <TTGlyph name="approxequal" xMin="44" yMin="289" xMax="1080" yMax="1089">
      <component glyphName="asciitilde" x="28" y="223" flags="0x4"/>
      <component glyphName="asciitilde" x="28" y="-192" flags="0x4"/>
    </TTGlyph>
    <TTGlyph name="aring" xMin="66" yMin="-20" xMax="993" yMax="1483">
      <component glyphName="a" x="0" y="0" flags="0x204"/>
      <component glyphName="ring" x="176" y="0" flags="0x4"/>
    </TTGlyph>
    <TTGlyph name="aringacute" xMin="66" yMin="-20" xMax="993" yMax="1868">
      <component glyphName="a" x="0" y="0" flags="0x204"/>
      <component glyphName="ring" x="176" y="0" flags="0x4"/>
      <component glyphName="acute" x="268" y="445" flags="0x4"/>
    </TTGlyph>
    <TTGlyph name="arrowboth" xMin="418" yMin="100" xMax="1630" yMax="580">
      <contour>
        <pt x="641" y="297" on="1"/>
        <pt x="698" y="230" on="0"/>
        <pt x="760" y="100" on="1"/>
        <pt x="688" y="100" on="1"/>
        <pt x="561" y="249" on="0"/>
        <pt x="418" y="322" on="1"/>
        <pt x="418" y="358" on="1"/>
        <pt x="561" y="431" on="0"/>
        <pt x="688" y="580" on="1"/>
        <pt x="760" y="580" on="1"/>
        <pt x="698" y="450" on="0"/>
        <pt x="641" y="383" on="1"/>
        <pt x="1407" y="383" on="1"/>
        <pt x="1350" y="450" on="0"/>
        <pt x="1288" y="580" on="1"/>
        <pt x="1360" y="580" on="1"/>
        <pt x="1487" y="431" on="0"/>
        <pt x="1630" y="358" on="1"/>
        <pt x="1630" y="322" on="1"/>
        <pt x="1487" y="249" on="0"/>
        <pt x="1360" y="100" on="1"/>
        <pt x="1288" y="100" on="1"/>
        <pt x="1350" y="230" on="0"/>
        <pt x="1407" y="297" on="1"/>
      </contour>
    </TTGlyph>
    <TTGlyph name="arrowdown" xMin="272" yMin="-61" xMax="752" yMax="1151">
      <contour>
        <pt x="555" y="162" on="1"/>
        <pt x="622" y="219" on="0"/>
        <pt x="752" y="281" on="1"/>
        <pt x="752" y="209" on="1"/>
        <pt x="603" y="82" on="0"/>
        <pt x="530" y="-61" on="1"/>
        <pt x="494" y="-61" on="1"/>
        <pt x="421" y="82" on="0"/>
        <pt x="272" y="209" on="1"/>
        <pt x="272" y="281" on="1"/>
        <pt x="402" y="219" on="0"/>
        <pt x="469" y="162" on="1"/>
        <pt x="469" y="1151" on="1"/>
        <pt x="555" y="1151" on="1"/>
      </contour>
    </TTGlyph>
    <TTGlyph name="arrowleft" xMin="418" yMin="100" xMax="1630" yMax="580">
      <contour>
        <pt x="641" y="297" on="1"/>
        <pt x="698" y="230" on="0"/>
        <pt x="760" y="100" on="1"/>
        <pt x="688" y="100" on="1"/>
        <pt x="561" y="249" on="0"/>
        <pt x="418" y="322" on="1"/>
        <pt x="418" y="358" on="1"/>
        <pt x="561" y="431" on="0"/>
        <pt x="688" y="580" on="1"/>
        <pt x="760" y="580" on="1"/>
        <pt x="698" y="450" on="0"/>
        <pt x="641" y="383" on="1"/>
        <pt x="1630" y="383" on="1"/>
        <pt x="1630" y="297" on="1"/>
      </contour>
    </TTGlyph>
    <TTGlyph name="arrowright" xMin="418" yMin="100" xMax="1630" yMax="580">
      <contour>
        <pt x="1407" y="383" on="1"/>
        <pt x="1350" y="450" on="0"/>
        <pt x="1288" y="580" on="1"/>
        <pt x="1360" y="580" on="1"/>
        <pt x="1487" y="431" on="0"/>
        <pt x="1630" y="358" on="1"/>
        <pt x="1630" y="322" on="1"/>
        <pt x="1487" y="249" on="0"/>
        <pt x="1360" y="100" on="1"/>
        <pt x="1288" y="100" on="1"/>
        <pt x="1350" y="230" on="0"/>
        <pt x="1407" y="297" on="1"/>
        <pt x="418" y="297" on="1"/>
        <pt x="418" y="383" on="1"/>
      </contour>
    </TTGlyph>
    <TTGlyph name="arrowup" xMin="272" yMin="-61" xMax="752" yMax="1151">
      <contour>
        <pt x="469" y="928" on="1"/>
        <pt x="402" y="871" on="0"/>
        <pt x="272" y="809" on="1"/>
        <pt x="272" y="881" on="1"/>
        <pt x="421" y="1008" on="0"/>
        <pt x="494" y="1151" on="1"/>
        <pt x="530" y="1151" on="1"/>
        <pt x="603" y="1008" on="0"/>
        <pt x="752" y="881" on="1"/>
        <pt x="752" y="809" on="1"/>
        <pt x="622" y="871" on="0"/>
        <pt x="555" y="928" on="1"/>
        <pt x="555" y="-61" on="1"/>
        <pt x="469" y="-61" on="1"/>
      </contour>
    </TTGlyph>
    <TTGlyph name="arrowupdn" xMin="272" yMin="-61" xMax="752" yMax="1151">
      <contour>
        <pt x="469" y="928" on="1"/>
        <pt x="402" y="871" on="0"/>
        <pt x="272" y="809" on="1"/>
        <pt x="272" y="881" on="1"/>
        <pt x="421" y="1008" on="0"/>
        <pt x="494" y="1151" on="1"/>
        <pt x="530" y="1151" on="1"/>
        <pt x="603" y="1008" on="0"/>
        <pt x="752" y="881" on="1"/>
        <pt x="752" y="809" on="1"/>
        <pt x="622" y="871" on="0"/>
        <pt x="555" y="928" on="1"/>
        <pt x="555" y="162" on="1"/>
        <pt x="622" y="219" on="0"/>
        <pt x="752" y="281" on="1"/>
        <pt x="752" y="209" on="1"/>
        <pt x="603" y="82" on="0"/>
        <pt x="530" y="-61" on="1"/>
        <pt x="494" y="-61" on="1"/>
        <pt x="421" y="82" on="0"/>
        <pt x="272" y="209" on="1"/>
        <pt x="272" y="281" on="1"/>
        <pt x="402" y="219" on="0"/>
        <pt x="469" y="162" on="1"/>
      </contour>
    </TTGlyph>
    <TTGlyph name="arrowupdnbse" xMin="272" yMin="-184" xMax="752" yMax="1151">
      <contour>
        <pt x="272" y="-104" on="1"/>
        <pt x="752" y="-104" on="1"/>
        <pt x="752" y="-184" on="1"/>
        <pt x="272" y="-184" on="1"/>
      </contour>
      <contour>
        <pt x="469" y="928" on="1"/>
        <pt x="402" y="871" on="0"/>
        <pt x="272" y="809" on="1"/>
        <pt x="272" y="881" on="1"/>
        <pt x="421" y="1008" on="0"/>
        <pt x="494" y="1151" on="1"/>
        <pt x="530" y="1151" on="1"/>
        <pt x="603" y="1008" on="0"/>
        <pt x="752" y="881" on="1"/>
        <pt x="752" y="809" on="1"/>
        <pt x="622" y="871" on="0"/>
        <pt x="555" y="928" on="1"/>
        <pt x="555" y="162" on="1"/>
        <pt x="622" y="219" on="0"/>
        <pt x="752" y="281" on="1"/>
        <pt x="752" y="209" on="1"/>
        <pt x="603" y="82" on="0"/>
        <pt x="530" y="-61" on="1"/>
        <pt x="494" y="-61" on="1"/>
        <pt x="421" y="82" on="0"/>
        <pt x="272" y="209" on="1"/>
        <pt x="272" y="281" on="1"/>
        <pt x="402" y="219" on="0"/>
        <pt x="469" y="162" on="1"/>
      </contour>
    </TTGlyph>
    <TTGlyph name="asciicircum" xMin="122" yMin="389" xMax="1068" yMax="1341">
      <contour>
        <pt x="925" y="389" on="1"/>
        <pt x="595" y="1150" on="1"/>
        <pt x="265" y="389" on="1"/>
        <pt x="122" y="389" on="1"/>
        <pt x="550" y="1341" on="1"/>
        <pt x="640" y="1341" on="1"/>
        <pt x="1068" y="389" on="1"/>
      </contour>
    </TTGlyph>
    <TTGlyph name="asciitilde" xMin="16" yMin="481" xMax="1052" yMax="866">
      <contour>
        <pt x="761" y="481" on="1"/>
        <pt x="704" y="481" on="0"/>
        <pt x="582" y="540" on="0"/>
        <pt x="508" y="602" on="1"/>
        <pt x="422" y="674" on="0"/>
        <pt x="339" y="723" on="0"/>
        <pt x="306" y="723" on="1"/>
        <pt x="235" y="723" on="0"/>
        <pt x="170" y="612" on="0"/>
        <pt x="157" y="481" on="1"/>
        <pt x="16" y="481" on="1"/>
        <pt x="31" y="630" on="0"/>
        <pt x="97" y="782" on="0"/>
        <pt x="214" y="866" on="0"/>
        <pt x="306" y="866" on="1"/>
        <pt x="362" y="866" on="0"/>
        <pt x="481" y="812" on="0"/>
        <pt x="566" y="743" on="1"/>
        <pt x="644" y="674" on="0"/>
        <pt x="730" y="624" on="0"/>
        <pt x="761" y="624" on="1"/>
        <pt x="827" y="624" on="0"/>
        <pt x="893" y="739" on="0"/>
        <pt x="908" y="866" on="1"/>
        <pt x="1052" y="866" on="1"/>
        <pt x="1032" y="715" on="0"/>
        <pt x="964" y="564" on="0"/>
        <pt x="849" y="481" on="0"/>
      </contour>
    </TTGlyph>
    <TTGlyph name="asterisk" xMin="85" yMin="579" xMax="939" yMax="1351">
      <contour>
        <pt x="556" y="895" on="1"/>
        <pt x="629" y="579" on="1"/>
        <pt x="396" y="579" on="1"/>
        <pt x="466" y="899" on="1"/>
        <pt x="179" y="663" on="1"/>
        <pt x="85" y="876" on="1"/>
        <pt x="392" y="964" on="1"/>
        <pt x="85" y="1054" on="1"/>
        <pt x="179" y="1267" on="1"/>
        <pt x="466" y="1034" on="1"/>
        <pt x="396" y="1351" on="1"/>
        <pt x="629" y="1351" on="1"/>
        <pt x="556" y="1034" on="1"/>
        <pt x="844" y="1261" on="1"/>
        <pt x="939" y="1052" on="1"/>
        <pt x="627" y="964" on="1"/>
        <pt x="939" y="878" on="1"/>
        <pt x="844" y="667" on="1"/>
      </contour>
    </TTGlyph>
    <TTGlyph name="at" xMin="107" yMin="-389" xMax="1798" yMax="1364">
      <contour>
        <pt x="1798" y="752" on="1"/>
        <pt x="1798" y="564" on="0"/>
        <pt x="1604" y="229" on="0"/>
        <pt x="1270" y="25" on="0"/>
        <pt x="1085" y="25" on="1"/>
        <pt x="961" y="25" on="0"/>
        <pt x="957" y="150" on="1"/>
        <pt x="905" y="107" on="1"/>
        <pt x="805" y="25" on="0"/>
        <pt x="686" y="25" on="1"/>
        <pt x="600" y="25" on="0"/>
        <pt x="500" y="165" on="0"/>
        <pt x="500" y="283" on="1"/>
        <pt x="500" y="412" on="0"/>
        <pt x="602" y="657" on="0"/>
        <pt x="783" y="834" on="0"/>
        <pt x="1007" y="924" on="0"/>
        <pt x="1184" y="924" on="1"/>
        <pt x="1271" y="924" on="0"/>
        <pt x="1367" y="913" on="1"/>
        <pt x="1246" y="372" on="1"/>
        <pt x="1237" y="335" on="0"/>
        <pt x="1223" y="235" on="0"/>
        <pt x="1223" y="215" on="1"/>
        <pt x="1223" y="192" on="0"/>
        <pt x="1240" y="159" on="0"/>
        <pt x="1273" y="159" on="1"/>
        <pt x="1367" y="159" on="0"/>
        <pt x="1523" y="319" on="0"/>
        <pt x="1614" y="599" on="0"/>
        <pt x="1614" y="751" on="1"/>
        <pt x="1614" y="994" on="0"/>
        <pt x="1329" y="1263" on="0"/>
        <pt x="1079" y="1263" on="1"/>
        <pt x="853" y="1263" on="0"/>
        <pt x="496" y="1038" on="0"/>
        <pt x="291" y="621" on="0"/>
        <pt x="291" y="363" on="1"/>
        <pt x="291" y="174" on="0"/>
        <pt x="437" y="-121" on="0"/>
        <pt x="710" y="-284" on="0"/>
        <pt x="895" y="-284" on="1"/>
        <pt x="1042" y="-284" on="0"/>
        <pt x="1300" y="-204" on="0"/>
        <pt x="1436" y="-109" on="1"/>
        <pt x="1480" y="-173" on="1"/>
        <pt x="1338" y="-287" on="0"/>
        <pt x="1040" y="-389" on="0"/>
        <pt x="864" y="-389" on="1"/>
        <pt x="636" y="-389" on="0"/>
        <pt x="292" y="-201" on="0"/>
        <pt x="107" y="142" on="0"/>
        <pt x="107" y="362" on="1"/>
        <pt x="107" y="648" on="0"/>
        <pt x="365" y="1110" on="0"/>
        <pt x="811" y="1364" on="0"/>
        <pt x="1083" y="1364" on="1"/>
        <pt x="1424" y="1364" on="0"/>
        <pt x="1798" y="1043" on="0"/>
      </contour>
      <contour>
        <pt x="740" y="316" on="1"/>
        <pt x="740" y="244" on="0"/>
        <pt x="783" y="169" on="0"/>
        <pt x="811" y="169" on="1"/>
        <pt x="845" y="169" on="0"/>
        <pt x="934" y="209" on="0"/>
        <pt x="965" y="237" on="1"/>
        <pt x="1085" y="798" on="1"/>
        <pt x="1068" y="803" on="0"/>
        <pt x="1024" y="803" on="1"/>
        <pt x="922" y="803" on="0"/>
        <pt x="814" y="698" on="0"/>
        <pt x="740" y="444" on="0"/>
      </contour>
    </TTGlyph>
    <TTGlyph name="atilde" xMin="66" yMin="-20" xMax="993" yMax="1427">
      <component glyphName="a" x="0" y="0" flags="0x204"/>
      <component glyphName="tilde" x="166" y="2" flags="0x4"/>
    </TTGlyph>
    <TTGlyph name="ayin" xMin="51" yMin="0" xMax="1038" yMax="1206">
      <contour>
        <pt x="1038" y="1030" on="1"/>
        <pt x="1038" y="968" on="0"/>
        <pt x="1000" y="833" on="1"/>
        <pt x="946" y="639" on="0"/>
        <pt x="946" y="494" on="1"/>
        <pt x="946" y="449" on="0"/>
        <pt x="963" y="369" on="0"/>
        <pt x="984" y="305" on="0"/>
        <pt x="1001" y="255" on="0"/>
        <pt x="1001" y="240" on="1"/>
        <pt x="1001" y="188" on="0"/>
        <pt x="965" y="57" on="0"/>
        <pt x="940" y="0" on="1"/>
        <pt x="51" y="0" on="1"/>
        <pt x="125" y="285" on="1"/>
        <pt x="295" y="285" on="1"/>
        <pt x="300" y="296" on="0"/>
        <pt x="309" y="349" on="0"/>
        <pt x="309" y="375" on="1"/>
        <pt x="309" y="414" on="0"/>
        <pt x="275" y="498" on="0"/>
        <pt x="233" y="589" on="0"/>
        <pt x="199" y="691" on="0"/>
        <pt x="199" y="748" on="1"/>
        <pt x="199" y="788" on="0"/>
        <pt x="224" y="855" on="0"/>
        <pt x="252" y="901" on="1"/>
        <pt x="188" y="901" on="0"/>
        <pt x="135" y="931" on="0"/>
        <pt x="106" y="998" on="0"/>
        <pt x="106" y="1059" on="1"/>
        <pt x="106" y="1100" on="0"/>
        <pt x="129" y="1165" on="0"/>
        <pt x="166" y="1206" on="0"/>
        <pt x="180" y="1206" on="1"/>
        <pt x="203" y="1206" on="0"/>
        <pt x="203" y="1190" on="1"/>
        <pt x="203" y="1174" on="1"/>
        <pt x="203" y="1133" on="0"/>
        <pt x="258" y="1133" on="1"/>
        <pt x="328" y="1133" on="1"/>
        <pt x="387" y="1133" on="0"/>
        <pt x="433" y="1106" on="0"/>
        <pt x="457" y="1043" on="0"/>
        <pt x="457" y="985" on="1"/>
        <pt x="457" y="934" on="0"/>
        <pt x="441" y="881" on="0"/>
        <pt x="432" y="881" on="1"/>
        <pt x="423" y="881" on="0"/>
        <pt x="414" y="887" on="1"/>
        <pt x="410" y="892" on="0"/>
        <pt x="372" y="899" on="0"/>
        <pt x="356" y="899" on="1"/>
        <pt x="311" y="899" on="0"/>
        <pt x="311" y="838" on="1"/>
        <pt x="311" y="822" on="0"/>
        <pt x="334" y="763" on="0"/>
        <pt x="397" y="637" on="1"/>
        <pt x="459" y="522" on="0"/>
        <pt x="459" y="446" on="1"/>
        <pt x="459" y="426" on="0"/>
        <pt x="436" y="372" on="0"/>
        <pt x="381" y="285" on="1"/>
        <pt x="801" y="285" on="1"/>
        <pt x="825" y="285" on="0"/>
        <pt x="825" y="301" on="1"/>
        <pt x="825" y="326" on="0"/>
        <pt x="809" y="417" on="0"/>
        <pt x="809" y="471" on="1"/>
        <pt x="809" y="578" on="0"/>
        <pt x="887" y="777" on="1"/>
        <pt x="911" y="838" on="0"/>
        <pt x="911" y="852" on="1"/>
        <pt x="911" y="872" on="0"/>
        <pt x="879" y="901" on="0"/>
        <pt x="844" y="901" on="1"/>
        <pt x="807" y="901" on="1"/>
        <pt x="750" y="901" on="0"/>
        <pt x="698" y="969" on="0"/>
        <pt x="698" y="1040" on="1"/>
        <pt x="698" y="1103" on="0"/>
        <pt x="737" y="1206" on="0"/>
        <pt x="762" y="1206" on="1"/>
        <pt x="782" y="1206" on="0"/>
        <pt x="782" y="1186" on="1"/>
        <pt x="782" y="1163" on="1"/>
        <pt x="782" y="1133" on="0"/>
        <pt x="823" y="1133" on="1"/>
        <pt x="897" y="1133" on="1"/>
        <pt x="965" y="1133" on="0"/>
        <pt x="1038" y="1079" on="0"/>
      </contour>
    </TTGlyph>
    <TTGlyph name="b" xMin="26" yMin="-20" xMax="1056" yMax="1421">
      <contour>
        <pt x="763" y="497" on="1"/>
        <pt x="763" y="682" on="0"/>
        <pt x="672" y="854" on="0"/>
        <pt x="568" y="854" on="1"/>
        <pt x="530" y="854" on="0"/>
        <pt x="440" y="837" on="0"/>
        <pt x="411" y="820" on="1"/>
        <pt x="411" y="101" on="1"/>
        <pt x="475" y="85" on="0"/>
        <pt x="568" y="85" on="1"/>
        <pt x="667" y="85" on="0"/>
        <pt x="763" y="278" on="0"/>
      </contour>
      <contour>
        <pt x="122" y="1333" on="1"/>
        <pt x="26" y="1356" on="1"/>
        <pt x="26" y="1421" on="1"/>
        <pt x="411" y="1421" on="1"/>
        <pt x="411" y="1076" on="1"/>
        <pt x="411" y="983" on="0"/>
        <pt x="401" y="887" on="1"/>
        <pt x="441" y="920" on="0"/>
        <pt x="592" y="965" on="0"/>
        <pt x="664" y="965" on="1"/>
        <pt x="868" y="965" on="0"/>
        <pt x="1056" y="741" on="0"/>
        <pt x="1056" y="496" on="1"/>
        <pt x="1056" y="254" on="0"/>
        <pt x="815" y="-20" on="0"/>
        <pt x="596" y="-20" on="1"/>
        <pt x="434" y="-20" on="0"/>
        <pt x="122" y="48" on="1"/>
      </contour>
    </TTGlyph>
    <TTGlyph name="backslash" xMin="-20" yMin="-20" xMax="590" yMax="1349">
      <contour>
        <pt x="-20" y="1349" on="1"/>
        <pt x="120" y="1349" on="1"/>
        <pt x="590" y="-20" on="1"/>
        <pt x="449" y="-20" on="1"/>
      </contour>
    </TTGlyph>
    <TTGlyph name="bar" xMin="154" yMin="-442" xMax="297" yMax="1421">
      <contour>
        <pt x="154" y="-442" on="1"/>
        <pt x="154" y="1421" on="1"/>
        <pt x="297" y="1421" on="1"/>
        <pt x="297" y="-442" on="1"/>
      </contour>
    </TTGlyph>
    <TTGlyph name="bari.dotless" xMin="0" yMin="0" xMax="569" yMax="940">
      <contour>
        <pt x="436" y="419" on="1"/>
        <pt x="436" y="90" on="1"/>
        <pt x="539" y="66" on="1"/>
        <pt x="539" y="0" on="1"/>
        <pt x="45" y="0" on="1"/>
        <pt x="45" y="66" on="1"/>
        <pt x="147" y="90" on="1"/>
        <pt x="147" y="419" on="1"/>
        <pt x="0" y="419" on="1"/>
        <pt x="0" y="523" on="1"/>
        <pt x="147" y="523" on="1"/>
        <pt x="147" y="850" on="1"/>
        <pt x="51" y="874" on="1"/>
        <pt x="51" y="940" on="1"/>
        <pt x="436" y="940" on="1"/>
        <pt x="436" y="523" on="1"/>
        <pt x="569" y="523" on="1"/>
        <pt x="569" y="419" on="1"/>
      </contour>
    </TTGlyph>
    <TTGlyph name="bet" xMin="27" yMin="0" xMax="922" yMax="1204">
      <contour>
        <pt x="858" y="0" on="1"/>
        <pt x="27" y="0" on="1"/>
        <pt x="100" y="285" on="1"/>
        <pt x="659" y="285" on="1"/>
        <pt x="685" y="353" on="0"/>
        <pt x="700" y="476" on="0"/>
        <pt x="700" y="555" on="1"/>
        <pt x="700" y="640" on="0"/>
        <pt x="683" y="804" on="0"/>
        <pt x="639" y="850" on="0"/>
        <pt x="573" y="850" on="1"/>
        <pt x="150" y="850" on="1"/>
        <pt x="102" y="850" on="0"/>
        <pt x="45" y="958" on="0"/>
        <pt x="45" y="1040" on="1"/>
        <pt x="45" y="1107" on="0"/>
        <pt x="89" y="1204" on="0"/>
        <pt x="115" y="1204" on="1"/>
        <pt x="133" y="1204" on="0"/>
        <pt x="133" y="1186" on="1"/>
        <pt x="133" y="1167" on="1"/>
        <pt x="133" y="1133" on="0"/>
        <pt x="178" y="1133" on="1"/>
        <pt x="612" y="1133" on="1"/>
        <pt x="697" y="1133" on="0"/>
        <pt x="774" y="1105" on="0"/>
        <pt x="808" y="1035" on="0"/>
        <pt x="821" y="820" on="0"/>
        <pt x="821" y="694" on="1"/>
        <pt x="821" y="461" on="0"/>
        <pt x="803" y="393" on="1"/>
        <pt x="797" y="373" on="0"/>
        <pt x="752" y="305" on="0"/>
        <pt x="733" y="285" on="1"/>
        <pt x="922" y="285" on="1"/>
      </contour>
    </TTGlyph>
    <TTGlyph name="beta" xMin="116" yMin="-436" xMax="1008" yMax="1442">
      <contour>
        <pt x="405" y="-436" on="1"/>
        <pt x="116" y="-436" on="1"/>
        <pt x="116" y="978" on="1"/>
        <pt x="116" y="1215" on="0"/>
        <pt x="326" y="1442" on="0"/>
        <pt x="554" y="1442" on="1"/>
        <pt x="739" y="1442" on="0"/>
        <pt x="958" y="1256" on="0"/>
        <pt x="958" y="1096" on="1"/>
        <pt x="958" y="965" on="0"/>
        <pt x="818" y="785" on="0"/>
        <pt x="707" y="761" on="1"/>
        <pt x="707" y="751" on="1"/>
        <pt x="1008" y="688" on="0"/>
        <pt x="1008" y="382" on="1"/>
        <pt x="1008" y="-18" on="0"/>
        <pt x="538" y="-18" on="1"/>
        <pt x="454" y="-18" on="0"/>
        <pt x="405" y="-1" on="1"/>
      </contour>
      <contour>
        <pt x="663" y="1083" on="1"/>
        <pt x="663" y="1204" on="0"/>
        <pt x="603" y="1341" on="0"/>
        <pt x="541" y="1341" on="1"/>
        <pt x="486" y="1341" on="0"/>
        <pt x="432" y="1281" on="0"/>
        <pt x="405" y="1152" on="0"/>
        <pt x="405" y="1033" on="1"/>
        <pt x="405" y="99" on="1"/>
        <pt x="452" y="81" on="0"/>
        <pt x="517" y="81" on="1"/>
        <pt x="622" y="81" on="0"/>
        <pt x="714" y="225" on="0"/>
        <pt x="714" y="382" on="1"/>
        <pt x="714" y="535" on="0"/>
        <pt x="590" y="698" on="0"/>
        <pt x="473" y="703" on="1"/>
        <pt x="473" y="799" on="1"/>
        <pt x="575" y="801" on="0"/>
        <pt x="663" y="924" on="0"/>
      </contour>
    </TTGlyph>
    <TTGlyph name="betdagesh" xMin="27" yMin="0" xMax="922" yMax="1204">
      <component glyphName="bet" x="0" y="0" flags="0x204"/>
      <component glyphName="dagesh" x="406" y="-101" flags="0x4"/>
    </TTGlyph>
    <TTGlyph name="betrafe" xMin="27" yMin="0" xMax="922" yMax="1413">
      <component glyphName="bet" x="0" y="0" flags="0x204"/>
      <component glyphName="rafe" x="444" y="0" flags="0x4"/>
    </TTGlyph>
    <TTGlyph name="block" xMin="0" yMin="-621" xMax="1451" yMax="1864">
      <contour>
        <pt x="1451" y="-621" on="1"/>
        <pt x="0" y="-621" on="1"/>
        <pt x="0" y="1864" on="1"/>
        <pt x="1451" y="1864" on="1"/>
      </contour>
    </TTGlyph>
    <TTGlyph name="braceleft" xMin="66" yMin="-274" xMax="727" yMax="1421">
      <contour>
        <pt x="592" y="-274" on="1"/>
        <pt x="442" y="-274" on="0"/>
        <pt x="281" y="-120" on="0"/>
        <pt x="281" y="20" on="1"/>
        <pt x="281" y="315" on="1"/>
        <pt x="281" y="421" on="0"/>
        <pt x="178" y="529" on="0"/>
        <pt x="66" y="533" on="1"/>
        <pt x="66" y="618" on="1"/>
        <pt x="168" y="621" on="0"/>
        <pt x="281" y="720" on="0"/>
        <pt x="281" y="834" on="1"/>
        <pt x="281" y="1128" on="1"/>
        <pt x="281" y="1269" on="0"/>
        <pt x="437" y="1421" on="0"/>
        <pt x="592" y="1421" on="1"/>
        <pt x="727" y="1421" on="1"/>
        <pt x="727" y="1334" on="1"/>
        <pt x="665" y="1334" on="1"/>
        <pt x="596" y="1334" on="0"/>
        <pt x="537" y="1246" on="0"/>
        <pt x="537" y="1159" on="1"/>
        <pt x="537" y="829" on="1"/>
        <pt x="537" y="735" on="0"/>
        <pt x="427" y="597" on="0"/>
        <pt x="335" y="578" on="1"/>
        <pt x="335" y="575" on="1"/>
        <pt x="429" y="554" on="0"/>
        <pt x="537" y="420" on="0"/>
        <pt x="537" y="322" on="1"/>
        <pt x="537" y="-12" on="1"/>
        <pt x="537" y="-98" on="0"/>
        <pt x="596" y="-187" on="0"/>
        <pt x="665" y="-187" on="1"/>
        <pt x="727" y="-187" on="1"/>
        <pt x="727" y="-274" on="1"/>
      </contour>
    </TTGlyph>
    <TTGlyph name="braceright" xMin="80" yMin="-274" xMax="741" yMax="1421">
      <contour>
        <pt x="80" y="-274" on="1"/>
        <pt x="80" y="-187" on="1"/>
        <pt x="142" y="-187" on="1"/>
        <pt x="211" y="-187" on="0"/>
        <pt x="270" y="-98" on="0"/>
        <pt x="270" y="-12" on="1"/>
        <pt x="270" y="322" on="1"/>
        <pt x="270" y="420" on="0"/>
        <pt x="378" y="554" on="0"/>
        <pt x="472" y="575" on="1"/>
        <pt x="472" y="578" on="1"/>
        <pt x="380" y="597" on="0"/>
        <pt x="270" y="732" on="0"/>
        <pt x="270" y="829" on="1"/>
        <pt x="270" y="1159" on="1"/>
        <pt x="270" y="1246" on="0"/>
        <pt x="211" y="1334" on="0"/>
        <pt x="142" y="1334" on="1"/>
        <pt x="80" y="1334" on="1"/>
        <pt x="80" y="1421" on="1"/>
        <pt x="215" y="1421" on="1"/>
        <pt x="370" y="1421" on="0"/>
        <pt x="526" y="1269" on="0"/>
        <pt x="526" y="1128" on="1"/>
        <pt x="526" y="834" on="1"/>
        <pt x="526" y="720" on="0"/>
        <pt x="639" y="621" on="0"/>
        <pt x="741" y="618" on="1"/>
        <pt x="741" y="533" on="1"/>
        <pt x="628" y="529" on="0"/>
        <pt x="526" y="420" on="0"/>
        <pt x="526" y="315" on="1"/>
        <pt x="526" y="20" on="1"/>
        <pt x="526" y="-120" on="0"/>
        <pt x="364" y="-274" on="0"/>
        <pt x="215" y="-274" on="1"/>
      </contour>
    </TTGlyph>
    <TTGlyph name="bracketleft" xMin="152" yMin="-274" xMax="608" yMax="1421">
      <contour>
        <pt x="152" y="-274" on="1"/>
        <pt x="152" y="1421" on="1"/>
        <pt x="608" y="1421" on="1"/>
        <pt x="608" y="1354" on="1"/>
        <pt x="405" y="1313" on="1"/>
        <pt x="405" y="-166" on="1"/>
        <pt x="608" y="-207" on="1"/>
        <pt x="608" y="-274" on="1"/>
      </contour>
    </TTGlyph>
    <TTGlyph name="bracketright" xMin="74" yMin="-274" xMax="530" yMax="1421">
      <contour>
        <pt x="74" y="-274" on="1"/>
        <pt x="74" y="-207" on="1"/>
        <pt x="277" y="-166" on="1"/>
        <pt x="277" y="1313" on="1"/>
        <pt x="74" y="1354" on="1"/>
        <pt x="74" y="1421" on="1"/>
        <pt x="530" y="1421" on="1"/>
        <pt x="530" y="-274" on="1"/>
      </contour>
    </TTGlyph>
    <TTGlyph name="breve" xMin="39" yMin="1120" xMax="641" yMax="1443">
      <contour>
        <pt x="340" y="1120" on="1"/>
        <pt x="199" y="1120" on="0"/>
        <pt x="41" y="1290" on="0"/>
        <pt x="39" y="1443" on="1"/>
        <pt x="140" y="1443" on="1"/>
        <pt x="157" y="1360" on="0"/>
        <pt x="259" y="1292" on="0"/>
        <pt x="340" y="1292" on="1"/>
        <pt x="427" y="1292" on="0"/>
        <pt x="519" y="1362" on="0"/>
        <pt x="540" y="1443" on="1"/>
        <pt x="641" y="1443" on="1"/>
        <pt x="636" y="1285" on="0"/>
        <pt x="479" y="1120" on="0"/>
      </contour>
    </TTGlyph>
    <TTGlyph name="breve.alt1" xMin="39" yMin="1120" xMax="641" yMax="1443">
      <component glyphName="breve" x="0" y="0" flags="0x4"/>
    </TTGlyph>
    <TTGlyph name="breve.cyr" xMin="-47" yMin="1120" xMax="727" yMax="1410">
      <contour>
        <pt x="340" y="1120" on="1"/>
        <pt x="157" y="1120" on="0"/>
        <pt x="-42" y="1264" on="0"/>
        <pt x="-47" y="1410" on="1"/>
        <pt x="162" y="1410" on="1"/>
        <pt x="168" y="1308" on="0"/>
        <pt x="265" y="1211" on="0"/>
        <pt x="340" y="1211" on="1"/>
        <pt x="415" y="1211" on="0"/>
        <pt x="512" y="1308" on="0"/>
        <pt x="518" y="1410" on="1"/>
        <pt x="727" y="1410" on="1"/>
        <pt x="722" y="1264" on="0"/>
        <pt x="523" y="1120" on="0"/>
      </contour>
    </TTGlyph>
    <TTGlyph name="breveacute" xMin="-290" yMin="1093" xMax="290" yMax="1490">
      <contour>
        <pt x="-88" y="1284" on="1"/>
        <pt x="-88" y="1317" on="1"/>
        <pt x="12" y="1490" on="1"/>
        <pt x="207" y="1490" on="1"/>
        <pt x="207" y="1453" on="1"/>
        <pt x="-2" y="1284" on="1"/>
      </contour>
      <contour>
        <pt x="0" y="1093" on="1"/>
        <pt x="-86" y="1093" on="0"/>
        <pt x="-215" y="1154" on="0"/>
        <pt x="-288" y="1259" on="0"/>
        <pt x="-290" y="1322" on="1"/>
        <pt x="-191" y="1322" on="1"/>
        <pt x="-174" y="1280" on="0"/>
        <pt x="-78" y="1228" on="0"/>
        <pt x="0" y="1228" on="1"/>
        <pt x="148" y="1228" on="0"/>
        <pt x="192" y="1322" on="1"/>
        <pt x="290" y="1322" on="1"/>
        <pt x="285" y="1220" on="0"/>
        <pt x="124" y="1093" on="0"/>
      </contour>
    </TTGlyph>
    <TTGlyph name="brevegrave" xMin="-290" yMin="1093" xMax="290" yMax="1490">
      <contour>
        <pt x="3" y="1284" on="1"/>
        <pt x="-206" y="1453" on="1"/>
        <pt x="-206" y="1490" on="1"/>
        <pt x="-11" y="1490" on="1"/>
        <pt x="89" y="1317" on="1"/>
        <pt x="89" y="1284" on="1"/>
      </contour>
      <contour>
        <pt x="0" y="1093" on="1"/>
        <pt x="-86" y="1093" on="0"/>
        <pt x="-215" y="1154" on="0"/>
        <pt x="-288" y="1259" on="0"/>
        <pt x="-290" y="1322" on="1"/>
        <pt x="-191" y="1322" on="1"/>
        <pt x="-174" y="1280" on="0"/>
        <pt x="-78" y="1228" on="0"/>
        <pt x="0" y="1228" on="1"/>
        <pt x="148" y="1228" on="0"/>
        <pt x="192" y="1322" on="1"/>
        <pt x="290" y="1322" on="1"/>
        <pt x="285" y="1220" on="0"/>
        <pt x="124" y="1093" on="0"/>
      </contour>
    </TTGlyph>
    <TTGlyph name="brevehook" xMin="-290" yMin="1093" xMax="290" yMax="1490">
      <contour>
        <pt x="0" y="1093" on="1"/>
        <pt x="-86" y="1093" on="0"/>
        <pt x="-215" y="1154" on="0"/>
        <pt x="-288" y="1259" on="0"/>
        <pt x="-290" y="1322" on="1"/>
        <pt x="-191" y="1322" on="1"/>
        <pt x="-174" y="1280" on="0"/>
        <pt x="-78" y="1228" on="0"/>
        <pt x="0" y="1228" on="1"/>
        <pt x="148" y="1228" on="0"/>
        <pt x="192" y="1322" on="1"/>
        <pt x="290" y="1322" on="1"/>
        <pt x="285" y="1220" on="0"/>
        <pt x="124" y="1093" on="0"/>
      </contour>
      <contour>
        <pt x="-141" y="1470" on="1"/>
        <pt x="-90" y="1490" on="0"/>
        <pt x="-16" y="1490" on="1"/>
        <pt x="56" y="1490" on="0"/>
        <pt x="142" y="1439" on="0"/>
        <pt x="142" y="1393" on="1"/>
        <pt x="142" y="1308" on="0"/>
        <pt x="7" y="1298" on="1"/>
        <pt x="0" y="1266" on="1"/>
        <pt x="-70" y="1266" on="1"/>
        <pt x="-79" y="1344" on="1"/>
        <pt x="-51" y="1349" on="1"/>
        <pt x="-17" y="1354" on="0"/>
        <pt x="8" y="1374" on="0"/>
        <pt x="8" y="1392" on="1"/>
        <pt x="8" y="1426" on="0"/>
        <pt x="-40" y="1426" on="1"/>
        <pt x="-91" y="1426" on="0"/>
        <pt x="-128" y="1415" on="1"/>
      </contour>
    </TTGlyph>
    <TTGlyph name="brevetilde" xMin="-324" yMin="1093" xMax="322" yMax="1571">
      <contour>
        <pt x="123" y="1356" on="1"/>
        <pt x="78" y="1356" on="0"/>
        <pt x="3" y="1384" on="0"/>
        <pt x="-60" y="1417" on="0"/>
        <pt x="-114" y="1445" on="0"/>
        <pt x="-140" y="1445" on="1"/>
        <pt x="-179" y="1445" on="0"/>
        <pt x="-220" y="1407" on="0"/>
        <pt x="-229" y="1356" on="1"/>
        <pt x="-324" y="1356" on="1"/>
        <pt x="-314" y="1467" on="0"/>
        <pt x="-215" y="1571" on="0"/>
        <pt x="-126" y="1571" on="1"/>
        <pt x="-80" y="1571" on="0"/>
        <pt x="-6" y="1544" on="0"/>
        <pt x="57" y="1513" on="0"/>
        <pt x="111" y="1486" on="0"/>
        <pt x="137" y="1486" on="1"/>
        <pt x="175" y="1486" on="0"/>
        <pt x="218" y="1523" on="0"/>
        <pt x="227" y="1571" on="1"/>
        <pt x="322" y="1571" on="1"/>
        <pt x="302" y="1356" on="0"/>
      </contour>
      <contour>
        <pt x="0" y="1093" on="1"/>
        <pt x="-86" y="1093" on="0"/>
        <pt x="-215" y="1154" on="0"/>
        <pt x="-288" y="1259" on="0"/>
        <pt x="-290" y="1322" on="1"/>
        <pt x="-191" y="1322" on="1"/>
        <pt x="-174" y="1280" on="0"/>
        <pt x="-78" y="1228" on="0"/>
        <pt x="0" y="1228" on="1"/>
        <pt x="148" y="1228" on="0"/>
        <pt x="192" y="1322" on="1"/>
        <pt x="290" y="1322" on="1"/>
        <pt x="285" y="1220" on="0"/>
        <pt x="124" y="1093" on="0"/>
      </contour>
    </TTGlyph>
    <TTGlyph name="brokenbar" xMin="154" yMin="-442" xMax="296" yMax="1421">
      <contour>
        <pt x="154" y="801" on="1"/>
        <pt x="154" y="1421" on="1"/>
        <pt x="296" y="1421" on="1"/>
        <pt x="296" y="801" on="1"/>
      </contour>
      <contour>
        <pt x="154" y="-442" on="1"/>
        <pt x="154" y="180" on="1"/>
        <pt x="296" y="180" on="1"/>
        <pt x="296" y="-442" on="1"/>
      </contour>
    </TTGlyph>
    <TTGlyph name="bullet" xMin="81" yMin="401" xMax="635" yMax="955">
      <contour>
        <pt x="358" y="401" on="1"/>
        <pt x="244" y="401" on="0"/>
        <pt x="81" y="562" on="0"/>
        <pt x="81" y="678" on="1"/>
        <pt x="81" y="794" on="0"/>
        <pt x="244" y="955" on="0"/>
        <pt x="358" y="955" on="1"/>
        <pt x="472" y="955" on="0"/>
        <pt x="635" y="794" on="0"/>
        <pt x="635" y="678" on="1"/>
        <pt x="635" y="562" on="0"/>
        <pt x="472" y="401" on="0"/>
      </contour>
    </TTGlyph>
    <TTGlyph name="c" xMin="70" yMin="-19" xMax="858" yMax="965">
      <contour>
        <pt x="858" y="57" on="1"/>
        <pt x="813" y="21" on="0"/>
        <pt x="654" y="-19" on="0"/>
        <pt x="570" y="-19" on="1"/>
        <pt x="319" y="-19" on="0"/>
        <pt x="70" y="223" on="0"/>
        <pt x="70" y="472" on="1"/>
        <pt x="70" y="627" on="0"/>
        <pt x="183" y="848" on="0"/>
        <pt x="393" y="965" on="0"/>
        <pt x="532" y="965" on="1"/>
        <pt x="672" y="965" on="0"/>
        <pt x="837" y="930" on="1"/>
        <pt x="837" y="652" on="1"/>
        <pt x="765" y="652" on="1"/>
        <pt x="723" y="817" on="1"/>
        <pt x="689" y="842" on="0"/>
        <pt x="623" y="862" on="0"/>
        <pt x="569" y="862" on="1"/>
        <pt x="510" y="862" on="0"/>
        <pt x="414" y="768" on="0"/>
        <pt x="361" y="597" on="0"/>
        <pt x="361" y="478" on="1"/>
        <pt x="361" y="277" on="0"/>
        <pt x="486" y="105" on="0"/>
        <pt x="622" y="105" on="1"/>
        <pt x="760" y="105" on="0"/>
        <pt x="858" y="134" on="1"/>
      </contour>
    </TTGlyph>
    <TTGlyph name="cacute" xMin="70" yMin="-19" xMax="858" yMax="1423">
      <component glyphName="c" x="0" y="0" flags="0x204"/>
      <component glyphName="acute" x="235" y="0" flags="0x4"/>
    </TTGlyph>
    <TTGlyph name="caron" xMin="18" yMin="1118" xMax="666" yMax="1444">
      <contour>
        <pt x="666" y="1444" on="1"/>
        <pt x="666" y="1411" on="1"/>
        <pt x="448" y="1118" on="1"/>
        <pt x="235" y="1118" on="1"/>
        <pt x="18" y="1411" on="1"/>
        <pt x="18" y="1444" on="1"/>
        <pt x="94" y="1444" on="1"/>
        <pt x="342" y="1282" on="1"/>
        <pt x="590" y="1444" on="1"/>
      </contour>
    </TTGlyph>
    <TTGlyph name="caroncommaaccent" xMin="157" yMin="830" xMax="515" yMax="1362">
      <contour>
        <pt x="515" y="1194" on="1"/>
        <pt x="515" y="1062" on="0"/>
        <pt x="334" y="877" on="0"/>
        <pt x="157" y="830" on="1"/>
        <pt x="157" y="910" on="1"/>
        <pt x="237" y="934" on="0"/>
        <pt x="335" y="1025" on="0"/>
        <pt x="335" y="1073" on="1"/>
        <pt x="335" y="1093" on="0"/>
        <pt x="305" y="1123" on="0"/>
        <pt x="269" y="1141" on="1"/>
        <pt x="202" y="1175" on="0"/>
        <pt x="202" y="1248" on="1"/>
        <pt x="202" y="1304" on="0"/>
        <pt x="281" y="1362" on="0"/>
        <pt x="342" y="1362" on="1"/>
        <pt x="414" y="1362" on="0"/>
        <pt x="515" y="1270" on="0"/>
      </contour>
    </TTGlyph>
    <TTGlyph name="ccaron" xMin="70" yMin="-19" xMax="858" yMax="1444">
      <component glyphName="c" x="0" y="0" flags="0x204"/>
      <component glyphName="caron" x="190" y="0" flags="0x4"/>
    </TTGlyph>
    <TTGlyph name="ccedilla" xMin="70" yMin="-422" xMax="858" yMax="965">
      <component glyphName="c" x="0" y="0" flags="0x204"/>
      <component glyphName="cedilla" x="157" y="0" flags="0x4"/>
    </TTGlyph>
    <TTGlyph name="ccircumflex" xMin="70" yMin="-19" xMax="858" yMax="1444">
      <component glyphName="c" x="0" y="0" flags="0x204"/>
      <component glyphName="circumflex" x="179" y="0" flags="0x4"/>
    </TTGlyph>
    <TTGlyph name="cedilla" xMin="123" yMin="-422" xMax="543" yMax="57">
      <contour>
        <pt x="283" y="-422" on="1"/>
        <pt x="193" y="-422" on="0"/>
        <pt x="123" y="-391" on="1"/>
        <pt x="123" y="-301" on="1"/>
        <pt x="195" y="-320" on="0"/>
        <pt x="258" y="-320" on="1"/>
        <pt x="350" y="-320" on="0"/>
        <pt x="350" y="-234" on="1"/>
        <pt x="350" y="-190" on="0"/>
        <pt x="288" y="-143" on="0"/>
        <pt x="219" y="-138" on="1"/>
        <pt x="270" y="57" on="1"/>
        <pt x="381" y="57" on="1"/>
        <pt x="358" y="-53" on="1"/>
        <pt x="543" y="-80" on="0"/>
        <pt x="543" y="-221" on="1"/>
        <pt x="543" y="-315" on="0"/>
        <pt x="399" y="-422" on="0"/>
      </contour>
    </TTGlyph>
    <TTGlyph name="cent" xMin="89" yMin="0" xMax="927" yMax="1341">
      <contour>
        <pt x="927" y="262" on="1"/>
        <pt x="883" y="230" on="0"/>
        <pt x="743" y="192" on="0"/>
        <pt x="669" y="187" on="1"/>
        <pt x="669" y="0" on="1"/>
        <pt x="577" y="0" on="1"/>
        <pt x="577" y="187" on="1"/>
        <pt x="89" y="206" on="0"/>
        <pt x="89" y="677" on="1"/>
        <pt x="89" y="831" on="0"/>
        <pt x="207" y="1053" on="0"/>
        <pt x="426" y="1170" on="0"/>
        <pt x="575" y="1170" on="1"/>
        <pt x="577" y="1170" on="1"/>
        <pt x="577" y="1341" on="1"/>
        <pt x="669" y="1341" on="1"/>
        <pt x="669" y="1166" on="1"/>
        <pt x="799" y="1156" on="0"/>
        <pt x="906" y="1135" on="1"/>
        <pt x="906" y="857" on="1"/>
        <pt x="834" y="857" on="1"/>
        <pt x="780" y="1022" on="1"/>
        <pt x="729" y="1055" on="0"/>
        <pt x="669" y="1064" on="1"/>
        <pt x="669" y="310" on="1"/>
        <pt x="816" y="310" on="0"/>
        <pt x="927" y="339" on="1"/>
      </contour>
      <contour>
        <pt x="380" y="683" on="1"/>
        <pt x="380" y="518" on="0"/>
        <pt x="476" y="343" on="0"/>
        <pt x="577" y="320" on="1"/>
        <pt x="577" y="1063" on="1"/>
        <pt x="485" y="1044" on="0"/>
        <pt x="380" y="842" on="0"/>
      </contour>
    </TTGlyph>
    <TTGlyph name="chi" xMin="-7" yMin="-436" xMax="964" yMax="940">
      <contour>
        <pt x="-7" y="-383" on="1"/>
        <pt x="79" y="-219" on="0"/>
        <pt x="263" y="146" on="0"/>
        <pt x="367" y="354" on="1"/>
        <pt x="151" y="797" on="1"/>
        <pt x="122" y="856" on="0"/>
        <pt x="58" y="869" on="1"/>
        <pt x="23" y="875" on="1"/>
        <pt x="23" y="940" on="1"/>
        <pt x="225" y="940" on="1"/>
        <pt x="254" y="915" on="0"/>
        <pt x="297" y="819" on="1"/>
        <pt x="438" y="494" on="1"/>
        <pt x="576" y="789" on="0"/>
        <pt x="636" y="940" on="1"/>
        <pt x="935" y="940" on="1"/>
        <pt x="935" y="881" on="1"/>
        <pt x="802" y="630" on="0"/>
        <pt x="683" y="388" on="1"/>
        <pt x="605" y="230" on="1"/>
        <pt x="860" y="-293" on="1"/>
        <pt x="878" y="-330" on="0"/>
        <pt x="916" y="-362" on="0"/>
        <pt x="964" y="-371" on="1"/>
        <pt x="964" y="-436" on="1"/>
        <pt x="791" y="-436" on="1"/>
        <pt x="755" y="-407" on="0"/>
        <pt x="717" y="-318" on="1"/>
        <pt x="531" y="95" on="1"/>
        <pt x="447" y="-76" on="0"/>
        <pt x="298" y="-436" on="1"/>
        <pt x="-7" y="-436" on="1"/>
      </contour>
    </TTGlyph>
    <TTGlyph name="circle" xMin="167" yMin="162" xMax="1070" yMax="1065">
      <contour>
        <pt x="167" y="612" on="1"/>
        <pt x="167" y="734" on="0"/>
        <pt x="287" y="944" on="0"/>
        <pt x="496" y="1065" on="0"/>
        <pt x="617" y="1065" on="1"/>
        <pt x="739" y="1065" on="0"/>
        <pt x="949" y="944" on="0"/>
        <pt x="1070" y="733" on="0"/>
        <pt x="1070" y="612" on="1"/>
        <pt x="1070" y="491" on="0"/>
        <pt x="949" y="282" on="0"/>
        <pt x="740" y="162" on="0"/>
        <pt x="617" y="162" on="1"/>
        <pt x="495" y="162" on="0"/>
        <pt x="287" y="282" on="0"/>
        <pt x="167" y="490" on="0"/>
      </contour>
      <contour>
        <pt x="253" y="612" on="1"/>
        <pt x="253" y="514" on="0"/>
        <pt x="351" y="345" on="0"/>
        <pt x="518" y="248" on="0"/>
        <pt x="617" y="248" on="1"/>
        <pt x="715" y="248" on="0"/>
        <pt x="884" y="344" on="0"/>
        <pt x="984" y="514" on="0"/>
        <pt x="984" y="612" on="1"/>
        <pt x="984" y="710" on="0"/>
        <pt x="886" y="881" on="0"/>
        <pt x="715" y="979" on="0"/>
        <pt x="617" y="979" on="1"/>
        <pt x="520" y="979" on="0"/>
        <pt x="351" y="881" on="0"/>
        <pt x="253" y="712" on="0"/>
      </contour>
    </TTGlyph>
    <TTGlyph name="circumflex" xMin="18" yMin="1118" xMax="666" yMax="1444">
      <contour>
        <pt x="18" y="1118" on="1"/>
        <pt x="18" y="1151" on="1"/>
        <pt x="236" y="1444" on="1"/>
        <pt x="449" y="1444" on="1"/>
        <pt x="666" y="1151" on="1"/>
        <pt x="666" y="1118" on="1"/>
        <pt x="590" y="1118" on="1"/>
        <pt x="342" y="1280" on="1"/>
        <pt x="94" y="1118" on="1"/>
      </contour>
    </TTGlyph>
    <TTGlyph name="circumflex.alt1" xMin="18" yMin="1118" xMax="666" yMax="1444">
      <component glyphName="circumflex" x="0" y="0" flags="0x4"/>
    </TTGlyph>
    <TTGlyph name="circumflexacute" xMin="-324" yMin="1118" xMax="525" yMax="1490">
      <contour>
        <pt x="-324" y="1118" on="1"/>
        <pt x="-324" y="1151" on="1"/>
        <pt x="-106" y="1405" on="1"/>
        <pt x="107" y="1405" on="1"/>
        <pt x="324" y="1151" on="1"/>
        <pt x="324" y="1118" on="1"/>
        <pt x="248" y="1118" on="1"/>
        <pt x="0" y="1251" on="1"/>
        <pt x="-248" y="1118" on="1"/>
      </contour>
      <contour>
        <pt x="230" y="1284" on="1"/>
        <pt x="230" y="1317" on="1"/>
        <pt x="330" y="1490" on="1"/>
        <pt x="525" y="1490" on="1"/>
        <pt x="525" y="1453" on="1"/>
        <pt x="316" y="1284" on="1"/>
      </contour>
    </TTGlyph>
    <TTGlyph name="circumflexgrave" xMin="-525" yMin="1118" xMax="324" yMax="1490">
      <contour>
        <pt x="248" y="1118" on="1"/>
        <pt x="0" y="1251" on="1"/>
        <pt x="-248" y="1118" on="1"/>
        <pt x="-324" y="1118" on="1"/>
        <pt x="-324" y="1151" on="1"/>
        <pt x="-107" y="1405" on="1"/>
        <pt x="106" y="1405" on="1"/>
        <pt x="324" y="1151" on="1"/>
        <pt x="324" y="1118" on="1"/>
      </contour>
      <contour>
        <pt x="-316" y="1284" on="1"/>
        <pt x="-525" y="1453" on="1"/>
        <pt x="-525" y="1490" on="1"/>
        <pt x="-330" y="1490" on="1"/>
        <pt x="-230" y="1317" on="1"/>
        <pt x="-230" y="1284" on="1"/>
      </contour>
    </TTGlyph>
    <TTGlyph name="circumflexhook" xMin="-324" yMin="1118" xMax="467" yMax="1490">
      <contour>
        <pt x="-324" y="1118" on="1"/>
        <pt x="-324" y="1151" on="1"/>
        <pt x="-106" y="1405" on="1"/>
        <pt x="107" y="1405" on="1"/>
        <pt x="324" y="1151" on="1"/>
        <pt x="324" y="1118" on="1"/>
        <pt x="248" y="1118" on="1"/>
        <pt x="0" y="1251" on="1"/>
        <pt x="-248" y="1118" on="1"/>
      </contour>
      <contour>
        <pt x="184" y="1470" on="1"/>
        <pt x="235" y="1490" on="0"/>
        <pt x="309" y="1490" on="1"/>
        <pt x="381" y="1490" on="0"/>
        <pt x="467" y="1439" on="0"/>
        <pt x="467" y="1393" on="1"/>
        <pt x="467" y="1308" on="0"/>
        <pt x="332" y="1298" on="1"/>
        <pt x="325" y="1266" on="1"/>
        <pt x="255" y="1266" on="1"/>
        <pt x="246" y="1344" on="1"/>
        <pt x="274" y="1349" on="1"/>
        <pt x="308" y="1354" on="0"/>
        <pt x="333" y="1374" on="0"/>
        <pt x="333" y="1392" on="1"/>
        <pt x="333" y="1426" on="0"/>
        <pt x="285" y="1426" on="1"/>
        <pt x="234" y="1426" on="0"/>
        <pt x="197" y="1415" on="1"/>
      </contour>
    </TTGlyph>
    <TTGlyph name="circumflextilde" xMin="-324" yMin="1089" xMax="322" yMax="1561">
      <contour>
        <pt x="228" y="1089" on="1"/>
        <pt x="0" y="1198" on="1"/>
        <pt x="-228" y="1089" on="1"/>
        <pt x="-304" y="1089" on="1"/>
        <pt x="-304" y="1122" on="1"/>
        <pt x="-106" y="1315" on="1"/>
        <pt x="105" y="1315" on="1"/>
        <pt x="304" y="1122" on="1"/>
        <pt x="304" y="1089" on="1"/>
      </contour>
      <contour>
        <pt x="123" y="1346" on="1"/>
        <pt x="78" y="1346" on="0"/>
        <pt x="3" y="1374" on="0"/>
        <pt x="-60" y="1407" on="0"/>
        <pt x="-114" y="1435" on="0"/>
        <pt x="-140" y="1435" on="1"/>
        <pt x="-179" y="1435" on="0"/>
        <pt x="-220" y="1397" on="0"/>
        <pt x="-229" y="1346" on="1"/>
        <pt x="-324" y="1346" on="1"/>
        <pt x="-314" y="1457" on="0"/>
        <pt x="-215" y="1561" on="0"/>
        <pt x="-126" y="1561" on="1"/>
        <pt x="-80" y="1561" on="0"/>
        <pt x="-6" y="1534" on="0"/>
        <pt x="57" y="1503" on="0"/>
        <pt x="111" y="1476" on="0"/>
        <pt x="137" y="1476" on="1"/>
        <pt x="175" y="1476" on="0"/>
        <pt x="218" y="1513" on="0"/>
        <pt x="227" y="1561" on="1"/>
        <pt x="322" y="1561" on="1"/>
        <pt x="302" y="1346" on="0"/>
      </contour>
    </TTGlyph>
    <TTGlyph name="club" xMin="60" yMin="0" xMax="1284" yMax="1223">
      <contour>
        <pt x="1094" y="0" on="1"/>
        <pt x="252" y="0" on="1"/>
        <pt x="260" y="35" on="1"/>
        <pt x="395" y="62" on="0"/>
        <pt x="514" y="116" on="0"/>
        <pt x="609" y="236" on="0"/>
        <pt x="662" y="385" on="0"/>
        <pt x="662" y="461" on="1"/>
        <pt x="660" y="508" on="1"/>
        <pt x="603" y="388" on="0"/>
        <pt x="425" y="270" on="0"/>
        <pt x="336" y="270" on="1"/>
        <pt x="259" y="270" on="0"/>
        <pt x="130" y="346" on="0"/>
        <pt x="60" y="472" on="0"/>
        <pt x="60" y="549" on="1"/>
        <pt x="60" y="664" on="0"/>
        <pt x="206" y="822" on="0"/>
        <pt x="299" y="823" on="1"/>
        <pt x="361" y="823" on="0"/>
        <pt x="461" y="772" on="1"/>
        <pt x="423" y="837" on="0"/>
        <pt x="406" y="877" on="1"/>
        <pt x="395" y="914" on="0"/>
        <pt x="395" y="952" on="1"/>
        <pt x="395" y="1073" on="0"/>
        <pt x="557" y="1223" on="0"/>
        <pt x="670" y="1223" on="1"/>
        <pt x="786" y="1223" on="0"/>
        <pt x="946" y="1063" on="0"/>
        <pt x="946" y="956" on="1"/>
        <pt x="946" y="870" on="0"/>
        <pt x="877" y="772" on="1"/>
        <pt x="961" y="812" on="0"/>
        <pt x="977" y="815" on="1"/>
        <pt x="999" y="823" on="0"/>
        <pt x="1038" y="823" on="1"/>
        <pt x="1143" y="823" on="0"/>
        <pt x="1211" y="745" on="1"/>
        <pt x="1284" y="669" on="0"/>
        <pt x="1284" y="553" on="1"/>
        <pt x="1284" y="437" on="0"/>
        <pt x="1128" y="272" on="0"/>
        <pt x="1012" y="272" on="1"/>
        <pt x="956" y="272" on="0"/>
        <pt x="838" y="321" on="0"/>
        <pt x="743" y="403" on="0"/>
        <pt x="682" y="508" on="1"/>
        <pt x="687" y="382" on="0"/>
        <pt x="736" y="229" on="0"/>
        <pt x="845" y="109" on="0"/>
        <pt x="972" y="56" on="0"/>
        <pt x="1086" y="35" on="1"/>
      </contour>
    </TTGlyph>
    <TTGlyph name="colon" xMin="168" yMin="-29" xMax="499" yMax="960">
      <contour>
        <pt x="333" y="-29" on="1"/>
        <pt x="263" y="-29" on="0"/>
        <pt x="168" y="67" on="0"/>
        <pt x="168" y="137" on="1"/>
        <pt x="168" y="207" on="0"/>
        <pt x="263" y="303" on="0"/>
        <pt x="333" y="303" on="1"/>
        <pt x="402" y="303" on="0"/>
        <pt x="499" y="207" on="0"/>
        <pt x="499" y="137" on="1"/>
        <pt x="499" y="68" on="0"/>
        <pt x="403" y="-29" on="0"/>
      </contour>
      <contour>
        <pt x="333" y="628" on="1"/>
        <pt x="263" y="628" on="0"/>
        <pt x="168" y="724" on="0"/>
        <pt x="168" y="794" on="1"/>
        <pt x="168" y="864" on="0"/>
        <pt x="261" y="960" on="0"/>
        <pt x="333" y="960" on="1"/>
        <pt x="404" y="960" on="0"/>
        <pt x="499" y="863" on="0"/>
        <pt x="499" y="794" on="1"/>
        <pt x="499" y="725" on="0"/>
        <pt x="403" y="628" on="0"/>
      </contour>
    </TTGlyph>
    <TTGlyph name="comma" xMin="27" yMin="-317" xMax="434" yMax="301">
      <contour>
        <pt x="434" y="106" on="1"/>
        <pt x="434" y="-50" on="0"/>
        <pt x="226" y="-265" on="0"/>
        <pt x="27" y="-317" on="1"/>
        <pt x="27" y="-225" on="1"/>
        <pt x="90" y="-206" on="0"/>
        <pt x="180" y="-144" on="0"/>
        <pt x="229" y="-69" on="0"/>
        <pt x="229" y="-35" on="1"/>
        <pt x="229" y="-13" on="0"/>
        <pt x="199" y="19" on="0"/>
        <pt x="154" y="44" on="1"/>
        <pt x="78" y="84" on="0"/>
        <pt x="78" y="168" on="1"/>
        <pt x="78" y="233" on="0"/>
        <pt x="168" y="301" on="0"/>
        <pt x="237" y="301" on="1"/>
        <pt x="322" y="301" on="0"/>
        <pt x="434" y="192" on="0"/>
      </contour>
    </TTGlyph>
    <TTGlyph name="commaaccentrotate" xMin="176" yMin="1120" xMax="498" yMax="1571">
      <contour>
        <pt x="176" y="1286" on="1"/>
        <pt x="176" y="1399" on="0"/>
        <pt x="341" y="1542" on="0"/>
        <pt x="498" y="1571" on="1"/>
        <pt x="498" y="1502" on="1"/>
        <pt x="422" y="1482" on="0"/>
        <pt x="349" y="1428" on="0"/>
        <pt x="349" y="1384" on="1"/>
        <pt x="349" y="1359" on="0"/>
        <pt x="384" y="1327" on="0"/>
        <pt x="427" y="1297" on="0"/>
        <pt x="462" y="1258" on="0"/>
        <pt x="462" y="1225" on="1"/>
        <pt x="462" y="1178" on="0"/>
        <pt x="389" y="1120" on="0"/>
        <pt x="326" y="1120" on="1"/>
        <pt x="257" y="1120" on="0"/>
        <pt x="176" y="1208" on="0"/>
      </contour>
    </TTGlyph>
    <TTGlyph name="copyright" xMin="88" yMin="-20" xMax="1470" yMax="1362">
      <contour>
        <pt x="88" y="670" on="1"/>
        <pt x="88" y="859" on="0"/>
        <pt x="275" y="1180" on="0"/>
        <pt x="592" y="1362" on="0"/>
        <pt x="778" y="1362" on="1"/>
        <pt x="965" y="1362" on="0"/>
        <pt x="1285" y="1178" on="0"/>
        <pt x="1470" y="859" on="0"/>
        <pt x="1470" y="670" on="1"/>
        <pt x="1470" y="485" on="0"/>
        <pt x="1289" y="168" on="0"/>
        <pt x="968" y="-20" on="0"/>
        <pt x="778" y="-20" on="1"/>
        <pt x="592" y="-20" on="0"/>
        <pt x="272" y="164" on="0"/>
        <pt x="88" y="484" on="0"/>
      </contour>
      <contour>
        <pt x="813" y="254" on="1"/>
        <pt x="614" y="254" on="0"/>
        <pt x="387" y="476" on="0"/>
        <pt x="387" y="664" on="1"/>
        <pt x="387" y="872" on="0"/>
        <pt x="608" y="1089" on="0"/>
        <pt x="815" y="1089" on="1"/>
        <pt x="933" y="1089" on="0"/>
        <pt x="1083" y="1059" on="1"/>
        <pt x="1087" y="852" on="1"/>
        <pt x="1018" y="852" on="1"/>
        <pt x="999" y="957" on="1"/>
        <pt x="958" y="982" on="0"/>
        <pt x="876" y="1008" on="0"/>
        <pt x="819" y="1008" on="1"/>
        <pt x="689" y="1008" on="0"/>
        <pt x="577" y="856" on="0"/>
        <pt x="577" y="666" on="1"/>
        <pt x="577" y="501" on="0"/>
        <pt x="684" y="334" on="0"/>
        <pt x="813" y="334" on="1"/>
        <pt x="935" y="334" on="0"/>
        <pt x="1008" y="393" on="1"/>
        <pt x="1030" y="512" on="1"/>
        <pt x="1100" y="512" on="1"/>
        <pt x="1096" y="293" on="1"/>
        <pt x="969" y="254" on="0"/>
      </contour>
      <contour>
        <pt x="778" y="1278" on="1"/>
        <pt x="617" y="1278" on="0"/>
        <pt x="339" y="1116" on="0"/>
        <pt x="178" y="834" on="0"/>
        <pt x="178" y="670" on="1"/>
        <pt x="178" y="507" on="0"/>
        <pt x="339" y="224" on="0"/>
        <pt x="616" y="63" on="0"/>
        <pt x="778" y="63" on="1"/>
        <pt x="938" y="63" on="0"/>
        <pt x="1217" y="224" on="0"/>
        <pt x="1380" y="508" on="0"/>
        <pt x="1380" y="670" on="1"/>
        <pt x="1380" y="832" on="0"/>
        <pt x="1220" y="1113" on="0"/>
        <pt x="943" y="1278" on="0"/>
      </contour>
    </TTGlyph>
    <TTGlyph name="currency" xMin="84" yMin="248" xMax="942" yMax="1108">
      <contour>
        <pt x="735" y="352" on="1"/>
        <pt x="638" y="283" on="0"/>
        <pt x="512" y="283" on="1"/>
        <pt x="392" y="283" on="0"/>
        <pt x="289" y="352" on="1"/>
        <pt x="184" y="248" on="1"/>
        <pt x="84" y="350" on="1"/>
        <pt x="186" y="453" on="1"/>
        <pt x="119" y="554" on="0"/>
        <pt x="119" y="676" on="1"/>
        <pt x="119" y="799" on="0"/>
        <pt x="186" y="899" on="1"/>
        <pt x="84" y="1004" on="1"/>
        <pt x="188" y="1108" on="1"/>
        <pt x="289" y="1001" on="1"/>
        <pt x="394" y="1071" on="0"/>
        <pt x="512" y="1071" on="1"/>
        <pt x="630" y="1071" on="0"/>
        <pt x="735" y="1001" on="1"/>
        <pt x="840" y="1106" on="1"/>
        <pt x="942" y="1006" on="1"/>
        <pt x="838" y="899" on="1"/>
        <pt x="907" y="796" on="0"/>
        <pt x="907" y="676" on="1"/>
        <pt x="907" y="557" on="0"/>
        <pt x="838" y="453" on="1"/>
        <pt x="942" y="350" on="1"/>
        <pt x="842" y="248" on="1"/>
      </contour>
      <contour>
        <pt x="512" y="932" on="1"/>
        <pt x="406" y="932" on="0"/>
        <pt x="258" y="781" on="0"/>
        <pt x="258" y="676" on="1"/>
        <pt x="258" y="571" on="0"/>
        <pt x="407" y="422" on="0"/>
        <pt x="512" y="422" on="1"/>
        <pt x="617" y="422" on="0"/>
        <pt x="768" y="570" on="0"/>
        <pt x="768" y="676" on="1"/>
        <pt x="768" y="782" on="0"/>
        <pt x="618" y="932" on="0"/>
      </contour>
    </TTGlyph>
    <TTGlyph name="cyrillic_otmark" xMin="-465" yMin="1087" xMax="465" yMax="1341">
      <contour>
        <pt x="465" y="1304" on="1"/>
        <pt x="381" y="1087" on="1"/>
        <pt x="317" y="1087" on="1"/>
        <pt x="268" y="1187" on="1"/>
        <pt x="81" y="1187" on="1"/>
        <pt x="32" y="1087" on="1"/>
        <pt x="-32" y="1087" on="1"/>
        <pt x="-81" y="1187" on="1"/>
        <pt x="-268" y="1187" on="1"/>
        <pt x="-317" y="1087" on="1"/>
        <pt x="-381" y="1087" on="1"/>
        <pt x="-465" y="1304" on="1"/>
        <pt x="-465" y="1341" on="1"/>
        <pt x="465" y="1341" on="1"/>
      </contour>
    </TTGlyph>
    <TTGlyph name="cyrillicbreve" xMin="-47" yMin="1120" xMax="727" yMax="1410">
      <contour>
        <pt x="340" y="1120" on="1"/>
        <pt x="157" y="1120" on="0"/>
        <pt x="-42" y="1264" on="0"/>
        <pt x="-47" y="1410" on="1"/>
        <pt x="162" y="1410" on="1"/>
        <pt x="168" y="1308" on="0"/>
        <pt x="265" y="1211" on="0"/>
        <pt x="340" y="1211" on="1"/>
        <pt x="415" y="1211" on="0"/>
        <pt x="512" y="1308" on="0"/>
        <pt x="518" y="1410" on="1"/>
        <pt x="727" y="1410" on="1"/>
        <pt x="722" y="1264" on="0"/>
        <pt x="523" y="1120" on="0"/>
      </contour>
    </TTGlyph>
    <TTGlyph name="d" xMin="83" yMin="-20" xMax="1116" yMax="1421">
      <contour>
        <pt x="733" y="53" on="1"/>
        <pt x="677" y="17" on="0"/>
        <pt x="617" y="-6" on="0"/>
        <pt x="541" y="-20" on="0"/>
        <pt x="495" y="-20" on="1"/>
        <pt x="287" y="-20" on="0"/>
        <pt x="83" y="219" on="0"/>
        <pt x="83" y="467" on="1"/>
        <pt x="83" y="711" on="0"/>
        <pt x="302" y="965" on="0"/>
        <pt x="510" y="965" on="1"/>
        <pt x="619" y="965" on="0"/>
        <pt x="730" y="938" on="1"/>
        <pt x="724" y="971" on="0"/>
        <pt x="724" y="1093" on="1"/>
        <pt x="724" y="1331" on="1"/>
        <pt x="628" y="1355" on="1"/>
        <pt x="628" y="1421" on="1"/>
        <pt x="1013" y="1421" on="1"/>
        <pt x="1013" y="90" on="1"/>
        <pt x="1116" y="66" on="1"/>
        <pt x="1116" y="0" on="1"/>
        <pt x="754" y="0" on="1"/>
      </contour>
      <contour>
        <pt x="376" y="475" on="1"/>
        <pt x="376" y="288" on="0"/>
        <pt x="470" y="91" on="0"/>
        <pt x="558" y="91" on="1"/>
        <pt x="638" y="91" on="0"/>
        <pt x="724" y="134" on="1"/>
        <pt x="724" y="842" on="1"/>
        <pt x="646" y="863" on="0"/>
        <pt x="566" y="863" on="1"/>
        <pt x="476" y="863" on="0"/>
        <pt x="376" y="666" on="0"/>
      </contour>
    </TTGlyph>
    <TTGlyph name="dagesh" xMin="-96" yMin="608" xMax="96" yMax="799">
      <contour>
        <pt x="-96" y="702" on="1"/>
        <pt x="-96" y="743" on="0"/>
        <pt x="-40" y="799" on="0"/>
        <pt x="0" y="799" on="1"/>
        <pt x="39" y="799" on="0"/>
        <pt x="96" y="743" on="0"/>
        <pt x="96" y="702" on="1"/>
        <pt x="96" y="666" on="0"/>
        <pt x="40" y="608" on="0"/>
        <pt x="0" y="608" on="1"/>
        <pt x="-40" y="608" on="0"/>
        <pt x="-96" y="666" on="0"/>
      </contour>
    </TTGlyph>
    <TTGlyph name="dagger" xMin="53" yMin="-240" xMax="971" yMax="1421">
      <contour>
        <pt x="645" y="760" on="1"/>
        <pt x="545" y="-240" on="1"/>
        <pt x="479" y="-240" on="1"/>
        <pt x="379" y="760" on="1"/>
        <pt x="459" y="920" on="1"/>
        <pt x="53" y="854" on="1"/>
        <pt x="53" y="1090" on="1"/>
        <pt x="459" y="1026" on="1"/>
        <pt x="393" y="1421" on="1"/>
        <pt x="631" y="1421" on="1"/>
        <pt x="565" y="1026" on="1"/>
        <pt x="971" y="1090" on="1"/>
        <pt x="971" y="854" on="1"/>
        <pt x="565" y="920" on="1"/>
      </contour>
    </TTGlyph>
    <TTGlyph name="daggerdbl" xMin="53" yMin="-240" xMax="971" yMax="1421">
      <contour>
        <pt x="565" y="156" on="1"/>
        <pt x="633" y="-240" on="1"/>
        <pt x="395" y="-240" on="1"/>
        <pt x="459" y="156" on="1"/>
        <pt x="53" y="92" on="1"/>
        <pt x="53" y="330" on="1"/>
        <pt x="459" y="262" on="1"/>
        <pt x="377" y="412" on="1"/>
        <pt x="469" y="590" on="1"/>
        <pt x="377" y="770" on="1"/>
        <pt x="459" y="920" on="1"/>
        <pt x="53" y="854" on="1"/>
        <pt x="53" y="1090" on="1"/>
        <pt x="459" y="1026" on="1"/>
        <pt x="395" y="1421" on="1"/>
        <pt x="633" y="1421" on="1"/>
        <pt x="565" y="1026" on="1"/>
        <pt x="971" y="1090" on="1"/>
        <pt x="971" y="854" on="1"/>
        <pt x="565" y="920" on="1"/>
        <pt x="651" y="770" on="1"/>
        <pt x="555" y="590" on="1"/>
        <pt x="651" y="412" on="1"/>
        <pt x="565" y="262" on="1"/>
        <pt x="971" y="330" on="1"/>
        <pt x="971" y="92" on="1"/>
      </contour>
    </TTGlyph>
    <TTGlyph name="dalet" xMin="25" yMin="-25" xMax="889" yMax="1204">
      <contour>
        <pt x="889" y="920" on="1"/>
        <pt x="889" y="886" on="0"/>
        <pt x="879" y="861" on="0"/>
        <pt x="868" y="858" on="1"/>
        <pt x="813" y="846" on="0"/>
        <pt x="774" y="765" on="0"/>
        <pt x="774" y="680" on="1"/>
        <pt x="774" y="605" on="0"/>
        <pt x="789" y="433" on="1"/>
        <pt x="803" y="260" on="0"/>
        <pt x="803" y="133" on="1"/>
        <pt x="803" y="101" on="0"/>
        <pt x="786" y="65" on="0"/>
        <pt x="772" y="49" on="1"/>
        <pt x="763" y="42" on="0"/>
        <pt x="733" y="24" on="0"/>
        <pt x="701" y="7" on="0"/>
        <pt x="673" y="-8" on="0"/>
        <pt x="666" y="-12" on="1"/>
        <pt x="637" y="-25" on="0"/>
        <pt x="629" y="-25" on="1"/>
        <pt x="610" y="-25" on="0"/>
        <pt x="610" y="-6" on="1"/>
        <pt x="613" y="5" on="1"/>
        <pt x="639" y="63" on="0"/>
        <pt x="639" y="217" on="1"/>
        <pt x="636" y="427" on="1"/>
        <pt x="633" y="586" on="1"/>
        <pt x="633" y="673" on="0"/>
        <pt x="683" y="792" on="0"/>
        <pt x="739" y="850" on="1"/>
        <pt x="147" y="850" on="1"/>
        <pt x="85" y="850" on="0"/>
        <pt x="25" y="943" on="0"/>
        <pt x="25" y="1042" on="1"/>
        <pt x="25" y="1109" on="0"/>
        <pt x="68" y="1204" on="0"/>
        <pt x="94" y="1204" on="1"/>
        <pt x="113" y="1204" on="0"/>
        <pt x="113" y="1188" on="1"/>
        <pt x="111" y="1165" on="1"/>
        <pt x="111" y="1148" on="0"/>
        <pt x="129" y="1133" on="0"/>
        <pt x="152" y="1133" on="1"/>
        <pt x="815" y="1133" on="1"/>
        <pt x="848" y="1133" on="0"/>
        <pt x="889" y="1095" on="0"/>
        <pt x="889" y="1063" on="1"/>
      </contour>
    </TTGlyph>
    <TTGlyph name="daletdagesh" xMin="25" yMin="-25" xMax="889" yMax="1204">
      <component glyphName="dalet" x="0" y="0" flags="0x204"/>
      <component glyphName="dagesh" x="383" y="-167" flags="0x4"/>
    </TTGlyph>
    <TTGlyph name="daletwide" xMin="25" yMin="-25" xMax="889" yMax="1204">
      <component glyphName="dalet" x="0" y="0" flags="0x204"/>
    </TTGlyph>
    <TTGlyph name="dcaron" xMin="83" yMin="-20" xMax="1501" yMax="1422">
      <component glyphName="d" x="0" y="0" flags="0x4"/>
      <component glyphName="caroncommaaccent" x="986" y="60" flags="0x4"/>
    </TTGlyph>
    <TTGlyph name="degree" xMin="98" yMin="741" xMax="719" yMax="1362">
      <contour>
        <pt x="98" y="1051" on="1"/>
        <pt x="98" y="1134" on="0"/>
        <pt x="180" y="1278" on="0"/>
        <pt x="325" y="1362" on="0"/>
        <pt x="408" y="1362" on="1"/>
        <pt x="491" y="1362" on="0"/>
        <pt x="635" y="1279" on="0"/>
        <pt x="719" y="1135" on="0"/>
        <pt x="719" y="1051" on="1"/>
        <pt x="719" y="967" on="0"/>
        <pt x="634" y="822" on="0"/>
        <pt x="490" y="741" on="0"/>
        <pt x="408" y="741" on="1"/>
        <pt x="278" y="741" on="0"/>
        <pt x="98" y="921" on="0"/>
      </contour>
      <contour>
        <pt x="407" y="1250" on="1"/>
        <pt x="327" y="1250" on="0"/>
        <pt x="217" y="1135" on="0"/>
        <pt x="217" y="1049" on="1"/>
        <pt x="217" y="966" on="0"/>
        <pt x="328" y="850" on="0"/>
        <pt x="407" y="850" on="1"/>
        <pt x="488" y="850" on="0"/>
        <pt x="599" y="966" on="0"/>
        <pt x="599" y="1049" on="1"/>
        <pt x="599" y="1135" on="0"/>
        <pt x="489" y="1250" on="0"/>
      </contour>
    </TTGlyph>
    <TTGlyph name="delta" xMin="75" yMin="-30" xMax="988" yMax="1431">
      <contour>
        <pt x="880" y="1169" on="1"/>
        <pt x="814" y="1169" on="1"/>
        <pt x="779" y="1292" on="1"/>
        <pt x="722" y="1336" on="0"/>
        <pt x="642" y="1336" on="1"/>
        <pt x="579" y="1336" on="0"/>
        <pt x="511" y="1264" on="0"/>
        <pt x="511" y="1208" on="1"/>
        <pt x="511" y="1151" on="0"/>
        <pt x="580" y="1040" on="0"/>
        <pt x="659" y="972" on="1"/>
        <pt x="752" y="890" on="1"/>
        <pt x="885" y="774" on="0"/>
        <pt x="988" y="561" on="0"/>
        <pt x="988" y="424" on="1"/>
        <pt x="988" y="214" on="0"/>
        <pt x="739" y="-30" on="0"/>
        <pt x="526" y="-30" on="1"/>
        <pt x="317" y="-30" on="0"/>
        <pt x="75" y="201" on="0"/>
        <pt x="75" y="402" on="1"/>
        <pt x="75" y="546" on="0"/>
        <pt x="239" y="768" on="0"/>
        <pt x="399" y="839" on="1"/>
        <pt x="328" y="905" on="0"/>
        <pt x="244" y="1072" on="0"/>
        <pt x="244" y="1150" on="1"/>
        <pt x="244" y="1280" on="0"/>
        <pt x="439" y="1431" on="0"/>
        <pt x="608" y="1431" on="1"/>
        <pt x="717" y="1431" on="0"/>
        <pt x="880" y="1400" on="1"/>
      </contour>
      <contour>
        <pt x="357" y="392" on="1"/>
        <pt x="357" y="221" on="0"/>
        <pt x="450" y="59" on="0"/>
        <pt x="527" y="59" on="1"/>
        <pt x="606" y="59" on="0"/>
        <pt x="697" y="224" on="0"/>
        <pt x="697" y="366" on="1"/>
        <pt x="697" y="482" on="0"/>
        <pt x="601" y="680" on="0"/>
        <pt x="485" y="765" on="1"/>
        <pt x="428" y="715" on="0"/>
        <pt x="357" y="514" on="0"/>
      </contour>
    </TTGlyph>
    <TTGlyph name="diamond" xMin="66" yMin="-25" xMax="978" yMax="1223">
      <contour>
        <pt x="519" y="1223" on="1"/>
        <pt x="591" y="1098" on="0"/>
        <pt x="856" y="737" on="0"/>
        <pt x="978" y="600" on="1"/>
        <pt x="910" y="530" on="0"/>
        <pt x="604" y="123" on="0"/>
        <pt x="521" y="-25" on="1"/>
        <pt x="484" y="46" on="0"/>
        <pt x="299" y="307" on="0"/>
        <pt x="151" y="498" on="0"/>
        <pt x="66" y="600" on="1"/>
        <pt x="182" y="737" on="0"/>
        <pt x="441" y="1082" on="0"/>
      </contour>
    </TTGlyph>
    <TTGlyph name="dieresis" xMin="53" yMin="1130" xMax="629" yMax="1370">
      <contour>
        <pt x="510" y="1130" on="1"/>
        <pt x="462" y="1130" on="0"/>
        <pt x="389" y="1201" on="0"/>
        <pt x="389" y="1251" on="1"/>
        <pt x="389" y="1301" on="0"/>
        <pt x="462" y="1370" on="0"/>
        <pt x="510" y="1370" on="1"/>
        <pt x="559" y="1370" on="0"/>
        <pt x="629" y="1302" on="0"/>
        <pt x="629" y="1251" on="1"/>
        <pt x="629" y="1201" on="0"/>
        <pt x="559" y="1130" on="0"/>
      </contour>
      <contour>
        <pt x="174" y="1130" on="1"/>
        <pt x="126" y="1130" on="0"/>
        <pt x="53" y="1204" on="0"/>
        <pt x="53" y="1251" on="1"/>
        <pt x="53" y="1299" on="0"/>
        <pt x="125" y="1370" on="0"/>
        <pt x="174" y="1370" on="1"/>
        <pt x="223" y="1370" on="0"/>
        <pt x="293" y="1299" on="0"/>
        <pt x="293" y="1251" on="1"/>
        <pt x="293" y="1201" on="0"/>
        <pt x="223" y="1130" on="0"/>
      </contour>
    </TTGlyph>
    <TTGlyph name="dieresistonos" xMin="-8" yMin="1118" xMax="690" yMax="1522">
      <contour>
        <pt x="583" y="1132" on="1"/>
        <pt x="538" y="1132" on="0"/>
        <pt x="474" y="1196" on="0"/>
        <pt x="474" y="1241" on="1"/>
        <pt x="474" y="1286" on="0"/>
        <pt x="539" y="1348" on="0"/>
        <pt x="583" y="1348" on="1"/>
        <pt x="627" y="1348" on="0"/>
        <pt x="690" y="1287" on="0"/>
        <pt x="690" y="1241" on="1"/>
        <pt x="690" y="1195" on="0"/>
        <pt x="628" y="1132" on="0"/>
      </contour>
      <contour>
        <pt x="101" y="1132" on="1"/>
        <pt x="56" y="1132" on="0"/>
        <pt x="-8" y="1196" on="0"/>
        <pt x="-8" y="1241" on="1"/>
        <pt x="-8" y="1286" on="0"/>
        <pt x="57" y="1348" on="0"/>
        <pt x="101" y="1348" on="1"/>
        <pt x="145" y="1348" on="0"/>
        <pt x="208" y="1284" on="0"/>
        <pt x="208" y="1241" on="1"/>
        <pt x="208" y="1195" on="0"/>
        <pt x="146" y="1132" on="0"/>
      </contour>
      <contour>
        <pt x="244" y="1118" on="1"/>
        <pt x="244" y="1151" on="1"/>
        <pt x="307" y="1522" on="1"/>
        <pt x="549" y="1522" on="1"/>
        <pt x="549" y="1485" on="1"/>
        <pt x="330" y="1118" on="1"/>
      </contour>
    </TTGlyph>
    <TTGlyph name="divide" xMin="86" yMin="183" xMax="1038" yMax="1177">
      <contour>
        <pt x="1038" y="751" on="1"/>
        <pt x="1038" y="608" on="1"/>
        <pt x="86" y="608" on="1"/>
        <pt x="86" y="751" on="1"/>
      </contour>
      <contour>
        <pt x="561" y="183" on="1"/>
        <pt x="505" y="183" on="0"/>
        <pt x="427" y="261" on="0"/>
        <pt x="427" y="317" on="1"/>
        <pt x="427" y="373" on="0"/>
        <pt x="505" y="451" on="0"/>
        <pt x="561" y="451" on="1"/>
        <pt x="617" y="451" on="0"/>
        <pt x="695" y="373" on="0"/>
        <pt x="695" y="317" on="1"/>
        <pt x="695" y="261" on="0"/>
        <pt x="617" y="183" on="0"/>
      </contour>
      <contour>
        <pt x="561" y="909" on="1"/>
        <pt x="505" y="909" on="0"/>
        <pt x="427" y="987" on="0"/>
        <pt x="427" y="1043" on="1"/>
        <pt x="427" y="1099" on="0"/>
        <pt x="505" y="1177" on="0"/>
        <pt x="561" y="1177" on="1"/>
        <pt x="617" y="1177" on="0"/>
        <pt x="695" y="1099" on="0"/>
        <pt x="695" y="1043" on="1"/>
        <pt x="695" y="987" on="0"/>
        <pt x="617" y="909" on="0"/>
      </contour>
    </TTGlyph>
    <TTGlyph name="dkshade" xMin="0" yMin="-621" xMax="1493" yMax="1699">
      <contour>
        <pt x="1493" y="-621" on="1"/>
        <pt x="0" y="-621" on="1"/>
        <pt x="0" y="-331" on="1"/>
        <pt x="106" y="-331" on="1"/>
        <pt x="106" y="-234" on="1"/>
        <pt x="0" y="-234" on="1"/>
        <pt x="0" y="56" on="1"/>
        <pt x="106" y="56" on="1"/>
        <pt x="106" y="153" on="1"/>
        <pt x="0" y="153" on="1"/>
        <pt x="0" y="444" on="1"/>
        <pt x="106" y="444" on="1"/>
        <pt x="106" y="540" on="1"/>
        <pt x="0" y="540" on="1"/>
        <pt x="0" y="829" on="1"/>
        <pt x="106" y="829" on="1"/>
        <pt x="106" y="927" on="1"/>
        <pt x="0" y="927" on="1"/>
        <pt x="0" y="1216" on="1"/>
        <pt x="106" y="1216" on="1"/>
        <pt x="106" y="1314" on="1"/>
        <pt x="0" y="1314" on="1"/>
        <pt x="0" y="1603" on="1"/>
        <pt x="106" y="1603" on="1"/>
        <pt x="106" y="1699" on="1"/>
        <pt x="213" y="1699" on="1"/>
        <pt x="213" y="1603" on="1"/>
        <pt x="319" y="1603" on="1"/>
        <pt x="319" y="1699" on="1"/>
        <pt x="426" y="1699" on="1"/>
        <pt x="426" y="1603" on="1"/>
        <pt x="532" y="1603" on="1"/>
        <pt x="532" y="1699" on="1"/>
        <pt x="639" y="1699" on="1"/>
        <pt x="639" y="1603" on="1"/>
        <pt x="746" y="1603" on="1"/>
        <pt x="746" y="1699" on="1"/>
        <pt x="853" y="1699" on="1"/>
        <pt x="853" y="1603" on="1"/>
        <pt x="960" y="1603" on="1"/>
        <pt x="960" y="1699" on="1"/>
        <pt x="1067" y="1699" on="1"/>
        <pt x="1067" y="1603" on="1"/>
        <pt x="1173" y="1603" on="1"/>
        <pt x="1173" y="1699" on="1"/>
        <pt x="1280" y="1699" on="1"/>
        <pt x="1280" y="1603" on="1"/>
        <pt x="1386" y="1603" on="1"/>
        <pt x="1386" y="1699" on="1"/>
        <pt x="1493" y="1699" on="1"/>
        <pt x="1493" y="1506" on="1"/>
        <pt x="1386" y="1506" on="1"/>
        <pt x="1386" y="1408" on="1"/>
        <pt x="1493" y="1408" on="1"/>
        <pt x="1493" y="1119" on="1"/>
        <pt x="1386" y="1119" on="1"/>
        <pt x="1386" y="1023" on="1"/>
        <pt x="1493" y="1023" on="1"/>
        <pt x="1493" y="732" on="1"/>
        <pt x="1386" y="732" on="1"/>
        <pt x="1386" y="636" on="1"/>
        <pt x="1493" y="636" on="1"/>
        <pt x="1493" y="345" on="1"/>
        <pt x="1386" y="345" on="1"/>
        <pt x="1386" y="249" on="1"/>
        <pt x="1493" y="249" on="1"/>
        <pt x="1493" y="-42" on="1"/>
        <pt x="1386" y="-42" on="1"/>
        <pt x="1386" y="-136" on="1"/>
        <pt x="1493" y="-136" on="1"/>
        <pt x="1493" y="-427" on="1"/>
        <pt x="1386" y="-427" on="1"/>
        <pt x="1386" y="-523" on="1"/>
        <pt x="1493" y="-523" on="1"/>
      </contour>
      <contour>
        <pt x="106" y="1119" on="1"/>
        <pt x="106" y="1023" on="1"/>
        <pt x="213" y="1023" on="1"/>
        <pt x="213" y="1119" on="1"/>
      </contour>
      <contour>
        <pt x="319" y="1119" on="1"/>
        <pt x="319" y="1023" on="1"/>
        <pt x="426" y="1023" on="1"/>
        <pt x="426" y="1119" on="1"/>
      </contour>
      <contour>
        <pt x="532" y="1119" on="1"/>
        <pt x="532" y="1023" on="1"/>
        <pt x="639" y="1023" on="1"/>
        <pt x="639" y="1119" on="1"/>
      </contour>
      <contour>
        <pt x="746" y="1119" on="1"/>
        <pt x="746" y="1023" on="1"/>
        <pt x="853" y="1023" on="1"/>
        <pt x="853" y="1119" on="1"/>
      </contour>
      <contour>
        <pt x="960" y="927" on="1"/>
        <pt x="853" y="927" on="1"/>
        <pt x="853" y="829" on="1"/>
        <pt x="960" y="829" on="1"/>
      </contour>
      <contour>
        <pt x="746" y="927" on="1"/>
        <pt x="639" y="927" on="1"/>
        <pt x="639" y="829" on="1"/>
        <pt x="746" y="829" on="1"/>
      </contour>
      <contour>
        <pt x="532" y="927" on="1"/>
        <pt x="426" y="927" on="1"/>
        <pt x="426" y="829" on="1"/>
        <pt x="532" y="829" on="1"/>
      </contour>
      <contour>
        <pt x="319" y="927" on="1"/>
        <pt x="213" y="927" on="1"/>
        <pt x="213" y="829" on="1"/>
        <pt x="319" y="829" on="1"/>
      </contour>
      <contour>
        <pt x="106" y="732" on="1"/>
        <pt x="106" y="636" on="1"/>
        <pt x="213" y="636" on="1"/>
        <pt x="213" y="732" on="1"/>
      </contour>
      <contour>
        <pt x="319" y="732" on="1"/>
        <pt x="319" y="636" on="1"/>
        <pt x="426" y="636" on="1"/>
        <pt x="426" y="732" on="1"/>
      </contour>
      <contour>
        <pt x="532" y="732" on="1"/>
        <pt x="532" y="636" on="1"/>
        <pt x="639" y="636" on="1"/>
        <pt x="639" y="732" on="1"/>
      </contour>
      <contour>
        <pt x="746" y="732" on="1"/>
        <pt x="746" y="636" on="1"/>
        <pt x="853" y="636" on="1"/>
        <pt x="853" y="732" on="1"/>
      </contour>
      <contour>
        <pt x="319" y="540" on="1"/>
        <pt x="213" y="540" on="1"/>
        <pt x="213" y="444" on="1"/>
        <pt x="319" y="444" on="1"/>
      </contour>
      <contour>
        <pt x="426" y="540" on="1"/>
        <pt x="426" y="444" on="1"/>
        <pt x="532" y="444" on="1"/>
        <pt x="532" y="540" on="1"/>
      </contour>
      <contour>
        <pt x="639" y="540" on="1"/>
        <pt x="639" y="444" on="1"/>
        <pt x="746" y="444" on="1"/>
        <pt x="746" y="540" on="1"/>
      </contour>
      <contour>
        <pt x="853" y="540" on="1"/>
        <pt x="853" y="444" on="1"/>
        <pt x="960" y="444" on="1"/>
        <pt x="960" y="540" on="1"/>
      </contour>
      <contour>
        <pt x="106" y="345" on="1"/>
        <pt x="106" y="249" on="1"/>
        <pt x="213" y="249" on="1"/>
        <pt x="213" y="345" on="1"/>
      </contour>
      <contour>
        <pt x="532" y="345" on="1"/>
        <pt x="532" y="249" on="1"/>
        <pt x="639" y="249" on="1"/>
        <pt x="639" y="345" on="1"/>
      </contour>
      <contour>
        <pt x="426" y="249" on="1"/>
        <pt x="426" y="345" on="1"/>
        <pt x="319" y="345" on="1"/>
        <pt x="319" y="249" on="1"/>
      </contour>
      <contour>
        <pt x="746" y="345" on="1"/>
        <pt x="746" y="249" on="1"/>
        <pt x="853" y="249" on="1"/>
        <pt x="853" y="345" on="1"/>
      </contour>
      <contour>
        <pt x="960" y="56" on="1"/>
        <pt x="960" y="153" on="1"/>
        <pt x="853" y="153" on="1"/>
        <pt x="853" y="56" on="1"/>
      </contour>
      <contour>
        <pt x="746" y="56" on="1"/>
        <pt x="746" y="153" on="1"/>
        <pt x="639" y="153" on="1"/>
        <pt x="639" y="56" on="1"/>
      </contour>
      <contour>
        <pt x="532" y="56" on="1"/>
        <pt x="532" y="153" on="1"/>
        <pt x="426" y="153" on="1"/>
        <pt x="426" y="56" on="1"/>
      </contour>
      <contour>
        <pt x="319" y="56" on="1"/>
        <pt x="319" y="153" on="1"/>
        <pt x="213" y="153" on="1"/>
        <pt x="213" y="56" on="1"/>
      </contour>
      <contour>
        <pt x="106" y="-42" on="1"/>
        <pt x="106" y="-136" on="1"/>
        <pt x="213" y="-136" on="1"/>
        <pt x="213" y="-42" on="1"/>
      </contour>
      <contour>
        <pt x="319" y="-42" on="1"/>
        <pt x="319" y="-136" on="1"/>
        <pt x="426" y="-136" on="1"/>
        <pt x="426" y="-42" on="1"/>
      </contour>
      <contour>
        <pt x="532" y="-42" on="1"/>
        <pt x="532" y="-136" on="1"/>
        <pt x="639" y="-136" on="1"/>
        <pt x="639" y="-42" on="1"/>
      </contour>
      <contour>
        <pt x="746" y="-42" on="1"/>
        <pt x="746" y="-136" on="1"/>
        <pt x="853" y="-136" on="1"/>
        <pt x="853" y="-42" on="1"/>
      </contour>
      <contour>
        <pt x="960" y="-331" on="1"/>
        <pt x="960" y="-234" on="1"/>
        <pt x="853" y="-234" on="1"/>
        <pt x="853" y="-331" on="1"/>
      </contour>
      <contour>
        <pt x="746" y="-331" on="1"/>
        <pt x="746" y="-234" on="1"/>
        <pt x="639" y="-234" on="1"/>
        <pt x="639" y="-331" on="1"/>
      </contour>
      <contour>
        <pt x="532" y="-331" on="1"/>
        <pt x="532" y="-234" on="1"/>
        <pt x="426" y="-234" on="1"/>
        <pt x="426" y="-331" on="1"/>
      </contour>
      <contour>
        <pt x="319" y="-331" on="1"/>
        <pt x="319" y="-234" on="1"/>
        <pt x="213" y="-234" on="1"/>
        <pt x="213" y="-331" on="1"/>
      </contour>
      <contour>
        <pt x="106" y="-427" on="1"/>
        <pt x="106" y="-523" on="1"/>
        <pt x="213" y="-523" on="1"/>
        <pt x="213" y="-427" on="1"/>
      </contour>
      <contour>
        <pt x="319" y="-427" on="1"/>
        <pt x="319" y="-523" on="1"/>
        <pt x="426" y="-523" on="1"/>
        <pt x="426" y="-427" on="1"/>
      </contour>
      <contour>
        <pt x="532" y="-427" on="1"/>
        <pt x="532" y="-523" on="1"/>
        <pt x="639" y="-523" on="1"/>
        <pt x="639" y="-427" on="1"/>
      </contour>
      <contour>
        <pt x="746" y="-427" on="1"/>
        <pt x="746" y="-523" on="1"/>
        <pt x="853" y="-523" on="1"/>
        <pt x="853" y="-427" on="1"/>
      </contour>
      <contour>
        <pt x="960" y="1314" on="1"/>
        <pt x="853" y="1314" on="1"/>
        <pt x="853" y="1216" on="1"/>
        <pt x="960" y="1216" on="1"/>
      </contour>
      <contour>
        <pt x="746" y="1314" on="1"/>
        <pt x="639" y="1314" on="1"/>
        <pt x="639" y="1216" on="1"/>
        <pt x="746" y="1216" on="1"/>
      </contour>
      <contour>
        <pt x="532" y="1314" on="1"/>
        <pt x="426" y="1314" on="1"/>
        <pt x="426" y="1216" on="1"/>
        <pt x="532" y="1216" on="1"/>
      </contour>
      <contour>
        <pt x="319" y="1314" on="1"/>
        <pt x="213" y="1314" on="1"/>
        <pt x="213" y="1216" on="1"/>
        <pt x="319" y="1216" on="1"/>
      </contour>
      <contour>
        <pt x="853" y="1506" on="1"/>
        <pt x="746" y="1506" on="1"/>
        <pt x="746" y="1408" on="1"/>
        <pt x="853" y="1408" on="1"/>
      </contour>
      <contour>
        <pt x="639" y="1506" on="1"/>
        <pt x="532" y="1506" on="1"/>
        <pt x="532" y="1408" on="1"/>
        <pt x="639" y="1408" on="1"/>
      </contour>
      <contour>
        <pt x="426" y="1506" on="1"/>
        <pt x="319" y="1506" on="1"/>
        <pt x="319" y="1408" on="1"/>
        <pt x="426" y="1408" on="1"/>
      </contour>
      <contour>
        <pt x="213" y="1506" on="1"/>
        <pt x="106" y="1506" on="1"/>
        <pt x="106" y="1408" on="1"/>
        <pt x="213" y="1408" on="1"/>
      </contour>
      <contour>
        <pt x="960" y="1119" on="1"/>
        <pt x="960" y="1023" on="1"/>
        <pt x="1067" y="1023" on="1"/>
        <pt x="1067" y="1119" on="1"/>
      </contour>
      <contour>
        <pt x="1173" y="1119" on="1"/>
        <pt x="1173" y="1023" on="1"/>
        <pt x="1280" y="1023" on="1"/>
        <pt x="1280" y="1119" on="1"/>
      </contour>
      <contour>
        <pt x="1386" y="927" on="1"/>
        <pt x="1280" y="927" on="1"/>
        <pt x="1280" y="829" on="1"/>
        <pt x="1386" y="829" on="1"/>
      </contour>
      <contour>
        <pt x="1173" y="927" on="1"/>
        <pt x="1067" y="927" on="1"/>
        <pt x="1067" y="829" on="1"/>
        <pt x="1173" y="829" on="1"/>
      </contour>
      <contour>
        <pt x="960" y="732" on="1"/>
        <pt x="960" y="636" on="1"/>
        <pt x="1067" y="636" on="1"/>
        <pt x="1067" y="732" on="1"/>
      </contour>
      <contour>
        <pt x="1173" y="732" on="1"/>
        <pt x="1173" y="636" on="1"/>
        <pt x="1280" y="636" on="1"/>
        <pt x="1280" y="732" on="1"/>
      </contour>
      <contour>
        <pt x="1173" y="540" on="1"/>
        <pt x="1067" y="540" on="1"/>
        <pt x="1067" y="444" on="1"/>
        <pt x="1173" y="444" on="1"/>
      </contour>
      <contour>
        <pt x="1280" y="540" on="1"/>
        <pt x="1280" y="444" on="1"/>
        <pt x="1386" y="444" on="1"/>
        <pt x="1386" y="540" on="1"/>
      </contour>
      <contour>
        <pt x="960" y="345" on="1"/>
        <pt x="960" y="249" on="1"/>
        <pt x="1067" y="249" on="1"/>
        <pt x="1067" y="345" on="1"/>
      </contour>
      <contour>
        <pt x="1280" y="249" on="1"/>
        <pt x="1280" y="345" on="1"/>
        <pt x="1173" y="345" on="1"/>
        <pt x="1173" y="249" on="1"/>
      </contour>
      <contour>
        <pt x="1386" y="56" on="1"/>
        <pt x="1386" y="153" on="1"/>
        <pt x="1280" y="153" on="1"/>
        <pt x="1280" y="56" on="1"/>
      </contour>
      <contour>
        <pt x="1173" y="56" on="1"/>
        <pt x="1173" y="153" on="1"/>
        <pt x="1067" y="153" on="1"/>
        <pt x="1067" y="56" on="1"/>
      </contour>
      <contour>
        <pt x="960" y="-42" on="1"/>
        <pt x="960" y="-136" on="1"/>
        <pt x="1067" y="-136" on="1"/>
        <pt x="1067" y="-42" on="1"/>
      </contour>
      <contour>
        <pt x="1173" y="-42" on="1"/>
        <pt x="1173" y="-136" on="1"/>
        <pt x="1280" y="-136" on="1"/>
        <pt x="1280" y="-42" on="1"/>
      </contour>
      <contour>
        <pt x="1386" y="-331" on="1"/>
        <pt x="1386" y="-234" on="1"/>
        <pt x="1280" y="-234" on="1"/>
        <pt x="1280" y="-331" on="1"/>
      </contour>
      <contour>
        <pt x="1173" y="-331" on="1"/>
        <pt x="1173" y="-234" on="1"/>
        <pt x="1067" y="-234" on="1"/>
        <pt x="1067" y="-331" on="1"/>
      </contour>
      <contour>
        <pt x="960" y="-427" on="1"/>
        <pt x="960" y="-523" on="1"/>
        <pt x="1067" y="-523" on="1"/>
        <pt x="1067" y="-427" on="1"/>
      </contour>
      <contour>
        <pt x="1173" y="-427" on="1"/>
        <pt x="1173" y="-523" on="1"/>
        <pt x="1280" y="-523" on="1"/>
        <pt x="1280" y="-427" on="1"/>
      </contour>
      <contour>
        <pt x="1386" y="1314" on="1"/>
        <pt x="1280" y="1314" on="1"/>
        <pt x="1280" y="1216" on="1"/>
        <pt x="1386" y="1216" on="1"/>
      </contour>
      <contour>
        <pt x="1173" y="1314" on="1"/>
        <pt x="1067" y="1314" on="1"/>
        <pt x="1067" y="1216" on="1"/>
        <pt x="1173" y="1216" on="1"/>
      </contour>
      <contour>
        <pt x="1280" y="1506" on="1"/>
        <pt x="1173" y="1506" on="1"/>
        <pt x="1173" y="1408" on="1"/>
        <pt x="1280" y="1408" on="1"/>
      </contour>
      <contour>
        <pt x="1067" y="1506" on="1"/>
        <pt x="960" y="1506" on="1"/>
        <pt x="960" y="1408" on="1"/>
        <pt x="1067" y="1408" on="1"/>
      </contour>
    </TTGlyph>
    <TTGlyph name="dnblock" xMin="0" yMin="-621" xMax="1451" yMax="621">
      <contour>
        <pt x="1451" y="-621" on="1"/>
        <pt x="0" y="-621" on="1"/>
        <pt x="0" y="621" on="1"/>
        <pt x="1451" y="621" on="1"/>
      </contour>
    </TTGlyph>
    <TTGlyph name="dollar" xMin="73" yMin="-156" xMax="966" yMax="1483">
      <contour>
        <pt x="466" y="-20" on="1"/>
        <pt x="359" y="-18" on="0"/>
        <pt x="128" y="26" on="0"/>
        <pt x="73" y="51" on="1"/>
        <pt x="73" y="371" on="1"/>
        <pt x="166" y="371" on="1"/>
        <pt x="202" y="185" on="1"/>
        <pt x="232" y="144" on="0"/>
        <pt x="401" y="80" on="0"/>
        <pt x="466" y="78" on="1"/>
        <pt x="466" y="566" on="1"/>
        <pt x="298" y="632" on="0"/>
        <pt x="164" y="739" on="0"/>
        <pt x="89" y="895" on="0"/>
        <pt x="89" y="1014" on="1"/>
        <pt x="89" y="1158" on="0"/>
        <pt x="295" y="1340" on="0"/>
        <pt x="466" y="1354" on="1"/>
        <pt x="466" y="1483" on="1"/>
        <pt x="568" y="1483" on="1"/>
        <pt x="568" y="1356" on="1"/>
        <pt x="719" y="1350" on="0"/>
        <pt x="874" y="1313" on="1"/>
        <pt x="874" y="1034" on="1"/>
        <pt x="783" y="1034" on="1"/>
        <pt x="751" y="1177" on="1"/>
        <pt x="722" y="1206" on="0"/>
        <pt x="622" y="1251" on="0"/>
        <pt x="568" y="1256" on="1"/>
        <pt x="568" y="841" on="1"/>
        <pt x="693" y="791" on="0"/>
        <pt x="795" y="736" on="0"/>
        <pt x="875" y="669" on="0"/>
        <pt x="933" y="581" on="0"/>
        <pt x="966" y="463" on="0"/>
        <pt x="966" y="387" on="1"/>
        <pt x="966" y="212" on="0"/>
        <pt x="751" y="-3" on="0"/>
        <pt x="568" y="-16" on="1"/>
        <pt x="568" y="-156" on="1"/>
        <pt x="466" y="-156" on="1"/>
      </contour>
      <contour>
        <pt x="752" y="330" on="1"/>
        <pt x="752" y="379" on="0"/>
        <pt x="716" y="449" on="0"/>
        <pt x="647" y="499" on="0"/>
        <pt x="568" y="528" on="1"/>
        <pt x="568" y="77" on="1"/>
        <pt x="657" y="93" on="0"/>
        <pt x="752" y="220" on="0"/>
      </contour>
      <contour>
        <pt x="303" y="1067" on="1"/>
        <pt x="303" y="1021" on="0"/>
        <pt x="333" y="956" on="0"/>
        <pt x="393" y="909" on="0"/>
        <pt x="466" y="879" on="1"/>
        <pt x="466" y="1254" on="1"/>
        <pt x="387" y="1242" on="0"/>
        <pt x="303" y="1143" on="0"/>
      </contour>
    </TTGlyph>
    <TTGlyph name="dotaccent" xMin="189" yMin="1114" xMax="496" yMax="1421">
      <contour>
        <pt x="189" y="1268" on="1"/>
        <pt x="189" y="1333" on="0"/>
        <pt x="280" y="1421" on="0"/>
        <pt x="343" y="1421" on="1"/>
        <pt x="407" y="1421" on="0"/>
        <pt x="496" y="1332" on="0"/>
        <pt x="496" y="1268" on="1"/>
        <pt x="496" y="1205" on="0"/>
        <pt x="408" y="1114" on="0"/>
        <pt x="343" y="1114" on="1"/>
        <pt x="279" y="1114" on="0"/>
        <pt x="189" y="1203" on="0"/>
      </contour>
    </TTGlyph>
    <TTGlyph name="dotbelow.alt1" xMin="-241" yMin="-311" xMax="-61" yMax="-139">
      <contour>
        <pt x="-241" y="-311" on="1"/>
        <pt x="-241" y="-139" on="1"/>
        <pt x="-61" y="-139" on="1"/>
        <pt x="-61" y="-311" on="1"/>
      </contour>
    </TTGlyph>
    <TTGlyph name="dotbelow.alt10" xMin="-775" yMin="-311" xMax="-595" yMax="-139">
      <component glyphName="dotbelow.alt1" x="-534" y="0" flags="0x4"/>
    </TTGlyph>
    <TTGlyph name="dotbelow.alt11" xMin="-646" yMin="-311" xMax="-466" yMax="-139">
      <component glyphName="dotbelow.alt1" x="-405" y="0" flags="0x4"/>
    </TTGlyph>
    <TTGlyph name="dotbelow.alt12" xMin="-666" yMin="-311" xMax="-486" yMax="-139">
      <component glyphName="dotbelow.alt1" x="-425" y="0" flags="0x4"/>
    </TTGlyph>
    <TTGlyph name="dotbelow.alt13" xMin="-866" yMin="-311" xMax="-686" yMax="-139">
      <component glyphName="dotbelow.alt1" x="-625" y="0" flags="0x4"/>
    </TTGlyph>
    <TTGlyph name="dotbelow.alt14" xMin="-733" yMin="-311" xMax="-553" yMax="-139">
      <component glyphName="dotbelow.alt1" x="-492" y="0" flags="0x4"/>
    </TTGlyph>
    <TTGlyph name="dotbelow.alt15" xMin="-966" yMin="-311" xMax="-786" yMax="-139">
      <component glyphName="dotbelow.alt1" x="-725" y="0" flags="0x4"/>
    </TTGlyph>
    <TTGlyph name="dotbelow.alt2" xMin="-769" yMin="-311" xMax="-589" yMax="-139">
      <component glyphName="dotbelow.alt1" x="-528" y="0" flags="0x4"/>
    </TTGlyph>
    <TTGlyph name="dotbelow.alt3" xMin="-885" yMin="-311" xMax="-705" yMax="-139">
      <component glyphName="dotbelow.alt1" x="-644" y="0" flags="0x4"/>
    </TTGlyph>
    <TTGlyph name="dotbelow.alt4" xMin="-1045" yMin="-311" xMax="-865" yMax="-139">
      <component glyphName="dotbelow.alt1" x="-804" y="0" flags="0x4"/>
    </TTGlyph>
    <TTGlyph name="dotbelow.alt5" xMin="-817" yMin="-311" xMax="-637" yMax="-139">
      <component glyphName="dotbelow.alt1" x="-576" y="0" flags="0x4"/>
    </TTGlyph>
    <TTGlyph name="dotbelow.alt6" xMin="-1114" yMin="-311" xMax="-934" yMax="-139">
      <component glyphName="dotbelow.alt1" x="-873" y="0" flags="0x4"/>
    </TTGlyph>
    <TTGlyph name="dotbelow.alt7" xMin="-659" yMin="-311" xMax="-479" yMax="-139">
      <component glyphName="dotbelow.alt1" x="-418" y="0" flags="0x4"/>
    </TTGlyph>
    <TTGlyph name="dotbelow.alt8" xMin="-380" yMin="-311" xMax="-200" yMax="-139">
      <component glyphName="dotbelow.alt1" x="-139" y="0" flags="0x4"/>
    </TTGlyph>
    <TTGlyph name="dotbelow.alt9" xMin="-310" yMin="-311" xMax="-130" yMax="-139">
      <component glyphName="dotbelow.alt1" x="-69" y="0" flags="0x4"/>
    </TTGlyph>
    <TTGlyph name="dotbelowcomb" xMin="-154" yMin="-401" xMax="153" yMax="-94">
      <contour>
        <pt x="-154" y="-247" on="1"/>
        <pt x="-154" y="-182" on="0"/>
        <pt x="-63" y="-94" on="0"/>
        <pt x="0" y="-94" on="1"/>
        <pt x="64" y="-94" on="0"/>
        <pt x="153" y="-183" on="0"/>
        <pt x="153" y="-247" on="1"/>
        <pt x="153" y="-310" on="0"/>
        <pt x="65" y="-401" on="0"/>
        <pt x="0" y="-401" on="1"/>
        <pt x="-64" y="-401" on="0"/>
        <pt x="-154" y="-312" on="0"/>
      </contour>
    </TTGlyph>
    <TTGlyph name="dotlessi" xMin="45" yMin="0" xMax="539" yMax="940">
      <contour>
        <pt x="436" y="90" on="1"/>
        <pt x="539" y="66" on="1"/>
        <pt x="539" y="0" on="1"/>
        <pt x="45" y="0" on="1"/>
        <pt x="45" y="66" on="1"/>
        <pt x="147" y="90" on="1"/>
        <pt x="147" y="850" on="1"/>
        <pt x="51" y="874" on="1"/>
        <pt x="51" y="940" on="1"/>
        <pt x="436" y="940" on="1"/>
      </contour>
    </TTGlyph>
    <TTGlyph name="dotlessi.alt1" xMin="45" yMin="0" xMax="539" yMax="940">
      <contour>
        <pt x="436" y="90" on="1"/>
        <pt x="539" y="66" on="1"/>
        <pt x="539" y="0" on="1"/>
        <pt x="45" y="0" on="1"/>
        <pt x="45" y="66" on="1"/>
        <pt x="147" y="90" on="1"/>
        <pt x="147" y="850" on="1"/>
        <pt x="51" y="874" on="1"/>
        <pt x="51" y="940" on="1"/>
        <pt x="436" y="940" on="1"/>
      </contour>
    </TTGlyph>
    <TTGlyph name="dottediacute" xMin="45" yMin="0" xMax="544" yMax="1840">
      <component glyphName="i" x="0" y="0" flags="0x204"/>
      <component glyphName="acute" x="-52" y="417" flags="0x4"/>
    </TTGlyph>
    <TTGlyph name="e" xMin="70" yMin="-19" xMax="856" yMax="963">
      <contour>
        <pt x="494" y="963" on="1"/>
        <pt x="685" y="963" on="0"/>
        <pt x="856" y="759" on="0"/>
        <pt x="856" y="544" on="1"/>
        <pt x="856" y="462" on="1"/>
        <pt x="363" y="462" on="1"/>
        <pt x="363" y="446" on="1"/>
        <pt x="363" y="297" on="0"/>
        <pt x="411" y="171" on="0"/>
        <pt x="519" y="105" on="0"/>
        <pt x="613" y="105" on="1"/>
        <pt x="701" y="105" on="0"/>
        <pt x="835" y="134" on="1"/>
        <pt x="835" y="57" on="1"/>
        <pt x="780" y="24" on="0"/>
        <pt x="605" y="-19" on="0"/>
        <pt x="522" y="-19" on="1"/>
        <pt x="291" y="-19" on="0"/>
        <pt x="70" y="222" on="0"/>
        <pt x="70" y="475" on="1"/>
        <pt x="70" y="721" on="0"/>
        <pt x="281" y="963" on="0"/>
      </contour>
      <contour>
        <pt x="483" y="862" on="1"/>
        <pt x="423" y="862" on="0"/>
        <pt x="364" y="732" on="0"/>
        <pt x="364" y="567" on="1"/>
        <pt x="582" y="567" on="1"/>
        <pt x="582" y="701" on="0"/>
        <pt x="564" y="810" on="0"/>
        <pt x="521" y="862" on="0"/>
      </contour>
    </TTGlyph>
    <TTGlyph name="eacute" xMin="70" yMin="-19" xMax="856" yMax="1423">
      <component glyphName="e" x="0" y="0" flags="0x204"/>
      <component glyphName="acute" x="213" y="0" flags="0x4"/>
    </TTGlyph>
    <TTGlyph name="ebreve" xMin="70" yMin="-19" xMax="856" yMax="1443">
      <component glyphName="e" x="0" y="0" flags="0x204"/>
      <component glyphName="breve" x="142" y="0" flags="0x4"/>
    </TTGlyph>
    <TTGlyph name="ecaron" xMin="70" yMin="-19" xMax="856" yMax="1444">
      <component glyphName="e" x="0" y="0" flags="0x204"/>
      <component glyphName="caron" x="134" y="0" flags="0x4"/>
    </TTGlyph>
</ttFont>
